%TF.GenerationSoftware,KiCad,Pcbnew,(5.0.0-3-g5ebb6b6)*%
%TF.CreationDate,2018-07-24T23:49:47-07:00*%
%TF.ProjectId,pyoven,70796F76656E2E6B696361645F706362,rev?*%
%TF.SameCoordinates,Original*%
%TF.FileFunction,Soldermask,Top*%
%TF.FilePolarity,Negative*%
%FSLAX46Y46*%
G04 Gerber Fmt 4.6, Leading zero omitted, Abs format (unit mm)*
G04 Created by KiCad (PCBNEW (5.0.0-3-g5ebb6b6)) date Tuesday, July 24, 2018 at 11:49:47 PM*
%MOMM*%
%LPD*%
G01*
G04 APERTURE LIST*
%ADD10C,6.501600*%
%ADD11C,0.731600*%
%ADD12C,1.651600*%
%ADD13R,0.901600X0.851600*%
%ADD14R,0.851600X0.901600*%
%ADD15R,6.501600X5.901600*%
%ADD16R,2.301600X1.301600*%
%ADD17R,1.001600X1.301600*%
%ADD18R,1.301600X1.001600*%
%ADD19R,1.801600X1.801600*%
%ADD20O,1.801600X1.801600*%
%ADD21C,1.901600*%
%ADD22C,0.100000*%
%ADD23O,1.101600X1.101600*%
%ADD24R,1.101600X1.101600*%
%ADD25R,0.751600X1.161600*%
%ADD26R,0.901600X1.001600*%
%ADD27R,1.601600X0.401600*%
%ADD28R,0.401600X1.601600*%
%ADD29C,3.301600*%
%ADD30C,2.601600*%
%ADD31R,1.101600X0.386600*%
%ADD32O,1.451600X1.451600*%
%ADD33R,1.451600X1.451600*%
G04 APERTURE END LIST*
D10*
%TO.C,J13*%
X110000000Y-58000000D03*
%TD*%
%TO.C,J10*%
X214000000Y-90000000D03*
%TD*%
D11*
%TO.C,J1*%
X235300000Y-76100000D03*
X235300000Y-65100000D03*
D12*
X235470000Y-74700000D03*
X232530000Y-74700000D03*
X235470000Y-66500000D03*
X232530000Y-66500000D03*
%TD*%
D13*
%TO.C,C17*%
X119150000Y-82800000D03*
X117650000Y-82800000D03*
%TD*%
%TO.C,C16*%
X117250000Y-65400000D03*
X118750000Y-65400000D03*
%TD*%
D14*
%TO.C,C15*%
X240800000Y-56550000D03*
X240800000Y-55050000D03*
%TD*%
D15*
%TO.C,U3*%
X229900000Y-55000000D03*
D16*
X236200000Y-52720000D03*
X236200000Y-57280000D03*
%TD*%
D17*
%TO.C,R29*%
X208000000Y-89900000D03*
X208000000Y-87700000D03*
%TD*%
D18*
%TO.C,D1*%
X238700000Y-64650000D03*
X238700000Y-67950000D03*
%TD*%
%TO.C,D8*%
X238700000Y-59650000D03*
X238700000Y-62950000D03*
%TD*%
D19*
%TO.C,J17*%
X217400000Y-74700000D03*
%TD*%
D17*
%TO.C,R25*%
X231400000Y-79800000D03*
X231400000Y-77600000D03*
%TD*%
%TO.C,R26*%
X233900000Y-79000000D03*
X233900000Y-81200000D03*
%TD*%
%TO.C,R27*%
X236400000Y-81200000D03*
X236400000Y-79000000D03*
%TD*%
%TO.C,R28*%
X239000000Y-77500000D03*
X239000000Y-79700000D03*
%TD*%
D18*
%TO.C,R13*%
X116900000Y-52900000D03*
X119100000Y-52900000D03*
%TD*%
%TO.C,R14*%
X119000000Y-72900000D03*
X116800000Y-72900000D03*
%TD*%
%TO.C,R15*%
X109900000Y-92900000D03*
X112100000Y-92900000D03*
%TD*%
%TO.C,R16*%
X125900000Y-92900000D03*
X123700000Y-92900000D03*
%TD*%
%TO.C,R17*%
X149900000Y-74100000D03*
X152100000Y-74100000D03*
%TD*%
%TO.C,R18*%
X159200000Y-90000000D03*
X157000000Y-90000000D03*
%TD*%
%TO.C,R19*%
X159200000Y-58000000D03*
X157000000Y-58000000D03*
%TD*%
D17*
%TO.C,R20*%
X165000000Y-75000000D03*
X165000000Y-72800000D03*
%TD*%
D20*
%TO.C,J3*%
X246000000Y-80780000D03*
X246000000Y-78240000D03*
X246000000Y-75700000D03*
X246000000Y-73160000D03*
X246000000Y-70620000D03*
X246000000Y-68080000D03*
X246000000Y-65540000D03*
D19*
X246000000Y-63000000D03*
%TD*%
D13*
%TO.C,C14*%
X175650000Y-80000000D03*
X177150000Y-80000000D03*
%TD*%
%TO.C,C13*%
X175650000Y-74000000D03*
X177150000Y-74000000D03*
%TD*%
D21*
%TO.C,D2*%
X164500000Y-66300000D03*
D22*
G36*
X165601460Y-67071251D02*
X163728749Y-67401460D01*
X163398540Y-65528749D01*
X165271251Y-65198540D01*
X165601460Y-67071251D01*
X165601460Y-67071251D01*
G37*
D21*
X164058934Y-63798588D03*
%TD*%
%TO.C,D5*%
X164941066Y-80998588D03*
X164500000Y-83500000D03*
D22*
G36*
X165271251Y-84601460D02*
X163398540Y-84271251D01*
X163728749Y-82398540D01*
X165601460Y-82728749D01*
X165271251Y-84601460D01*
X165271251Y-84601460D01*
G37*
%TD*%
D21*
%TO.C,D6*%
X164200000Y-50200000D03*
D22*
G36*
X164548017Y-51498817D02*
X162901183Y-50548017D01*
X163851983Y-48901183D01*
X165498817Y-49851983D01*
X164548017Y-51498817D01*
X164548017Y-51498817D01*
G37*
D21*
X165470000Y-48000295D03*
%TD*%
%TO.C,D7*%
X163230000Y-95500295D03*
X164500000Y-97700000D03*
D22*
G36*
X165798817Y-98048017D02*
X164151983Y-98998817D01*
X163201183Y-97351983D01*
X164848017Y-96401183D01*
X165798817Y-98048017D01*
X165798817Y-98048017D01*
G37*
%TD*%
D23*
%TO.C,J19*%
X226780000Y-73470000D03*
X226780000Y-72200000D03*
X225510000Y-73470000D03*
X225510000Y-72200000D03*
X224240000Y-73470000D03*
X224240000Y-72200000D03*
X222970000Y-73470000D03*
X222970000Y-72200000D03*
X221700000Y-73470000D03*
D24*
X221700000Y-72200000D03*
%TD*%
D18*
%TO.C,R9*%
X167800000Y-68100000D03*
X170000000Y-68100000D03*
%TD*%
%TO.C,R10*%
X169400000Y-85200000D03*
X167200000Y-85200000D03*
%TD*%
%TO.C,R11*%
X166500000Y-55200000D03*
X168700000Y-55200000D03*
%TD*%
D17*
%TO.C,R12*%
X168600000Y-94700000D03*
X168600000Y-96900000D03*
%TD*%
D25*
%TO.C,U4*%
X177250000Y-78100000D03*
X175350000Y-78100000D03*
X175350000Y-75900000D03*
X176300000Y-75900000D03*
X177250000Y-75900000D03*
%TD*%
D18*
%TO.C,R1*%
X242900000Y-70600000D03*
X240700000Y-70600000D03*
%TD*%
%TO.C,R2*%
X240700000Y-73200000D03*
X242900000Y-73200000D03*
%TD*%
%TO.C,R3*%
X242900000Y-75900000D03*
X240700000Y-75900000D03*
%TD*%
%TO.C,R4*%
X187100000Y-66000000D03*
X184900000Y-66000000D03*
%TD*%
%TO.C,R5*%
X180900000Y-68000000D03*
X183100000Y-68000000D03*
%TD*%
%TO.C,R6*%
X188100000Y-72000000D03*
X185900000Y-72000000D03*
%TD*%
%TO.C,R7*%
X181900000Y-74000000D03*
X184100000Y-74000000D03*
%TD*%
D17*
%TO.C,R8*%
X219500000Y-68900000D03*
X219500000Y-71100000D03*
%TD*%
D13*
%TO.C,C12*%
X184250000Y-97900000D03*
X182750000Y-97900000D03*
%TD*%
%TO.C,C10*%
X194750000Y-92300000D03*
X196250000Y-92300000D03*
%TD*%
D14*
%TO.C,C3*%
X193700000Y-56350000D03*
X193700000Y-57850000D03*
%TD*%
%TO.C,C4*%
X192000000Y-57850000D03*
X192000000Y-56350000D03*
%TD*%
D13*
%TO.C,C5*%
X186850000Y-82100000D03*
X188350000Y-82100000D03*
%TD*%
D14*
%TO.C,C6*%
X178900000Y-87850000D03*
X178900000Y-89350000D03*
%TD*%
D13*
%TO.C,C9*%
X196250000Y-93800000D03*
X194750000Y-93800000D03*
%TD*%
%TO.C,C8*%
X194750000Y-95300000D03*
X196250000Y-95300000D03*
%TD*%
%TO.C,C11*%
X191350000Y-97900000D03*
X189850000Y-97900000D03*
%TD*%
D14*
%TO.C,C7*%
X195300000Y-90850000D03*
X195300000Y-89350000D03*
%TD*%
D26*
%TO.C,Q1*%
X186050000Y-70000000D03*
X187950000Y-70000000D03*
X187000000Y-68000000D03*
%TD*%
%TO.C,Q2*%
X183000000Y-70000000D03*
X183950000Y-72000000D03*
X182050000Y-72000000D03*
%TD*%
D27*
%TO.C,U2*%
X192700000Y-86250000D03*
X192700000Y-86750000D03*
X192700000Y-87250000D03*
X192700000Y-87750000D03*
X192700000Y-88250000D03*
X192700000Y-88750000D03*
X192700000Y-89250000D03*
X192700000Y-89750000D03*
X192700000Y-90250000D03*
X192700000Y-90750000D03*
X192700000Y-91250000D03*
X192700000Y-91750000D03*
X192700000Y-92250000D03*
X192700000Y-92750000D03*
X192700000Y-93250000D03*
X192700000Y-93750000D03*
D28*
X190750000Y-95700000D03*
X190250000Y-95700000D03*
X189750000Y-95700000D03*
X189250000Y-95700000D03*
X188750000Y-95700000D03*
X188250000Y-95700000D03*
X187750000Y-95700000D03*
X187250000Y-95700000D03*
X186750000Y-95700000D03*
X186250000Y-95700000D03*
X185750000Y-95700000D03*
X185250000Y-95700000D03*
X184750000Y-95700000D03*
X184250000Y-95700000D03*
X183750000Y-95700000D03*
X183250000Y-95700000D03*
D27*
X181300000Y-93750000D03*
X181300000Y-93250000D03*
X181300000Y-92750000D03*
X181300000Y-92250000D03*
X181300000Y-91750000D03*
X181300000Y-91250000D03*
X181300000Y-90750000D03*
X181300000Y-90250000D03*
X181300000Y-89750000D03*
X181300000Y-89250000D03*
X181300000Y-88750000D03*
X181300000Y-88250000D03*
X181300000Y-87750000D03*
X181300000Y-87250000D03*
X181300000Y-86750000D03*
X181300000Y-86250000D03*
D28*
X183250000Y-84300000D03*
X183750000Y-84300000D03*
X184250000Y-84300000D03*
X184750000Y-84300000D03*
X185250000Y-84300000D03*
X185750000Y-84300000D03*
X186250000Y-84300000D03*
X186750000Y-84300000D03*
X187250000Y-84300000D03*
X187750000Y-84300000D03*
X188250000Y-84300000D03*
X188750000Y-84300000D03*
X189250000Y-84300000D03*
X189750000Y-84300000D03*
X190250000Y-84300000D03*
X190750000Y-84300000D03*
%TD*%
D29*
%TO.C,J15*%
X141500000Y-91000000D03*
%TD*%
D30*
%TO.C,J12*%
X132000000Y-47000000D03*
%TD*%
D29*
%TO.C,J16*%
X128000000Y-85500000D03*
%TD*%
%TO.C,J14*%
X141500000Y-55000000D03*
%TD*%
%TO.C,J18*%
X126000000Y-47000000D03*
%TD*%
%TO.C,J11*%
X106000000Y-86000000D03*
%TD*%
D31*
%TO.C,U1*%
X182650000Y-62550000D03*
X182650000Y-62050000D03*
X182650000Y-61550000D03*
X182650000Y-61050000D03*
X182650000Y-60550000D03*
X182650000Y-60050000D03*
X182650000Y-59550000D03*
X182650000Y-59050000D03*
X182650000Y-58550000D03*
X182650000Y-58050000D03*
X182650000Y-57550000D03*
X182650000Y-57050000D03*
X182650000Y-56550000D03*
X182650000Y-56050000D03*
X182650000Y-55550000D03*
X182650000Y-55050000D03*
X182650000Y-54550000D03*
X182650000Y-54050000D03*
X182650000Y-53550000D03*
X182650000Y-53050000D03*
X182650000Y-52550000D03*
X182650000Y-52050000D03*
X182650000Y-51550000D03*
X182650000Y-51050000D03*
X190150000Y-51050000D03*
X190150000Y-51550000D03*
X190150000Y-52050000D03*
X190150000Y-52550000D03*
X190150000Y-53050000D03*
X190150000Y-53550000D03*
X190150000Y-54050000D03*
X190150000Y-54550000D03*
X190150000Y-55050000D03*
X190150000Y-55550000D03*
X190150000Y-56050000D03*
X190150000Y-56550000D03*
X190150000Y-57050000D03*
X190150000Y-57550000D03*
X190150000Y-58050000D03*
X190150000Y-58550000D03*
X190150000Y-59050000D03*
X190150000Y-59550000D03*
X190150000Y-60050000D03*
X190150000Y-60550000D03*
X190150000Y-61050000D03*
X190150000Y-61550000D03*
X190150000Y-62050000D03*
X190150000Y-62550000D03*
%TD*%
D30*
%TO.C,J9*%
X246500000Y-92000000D03*
%TD*%
%TO.C,J8*%
X246500000Y-52500000D03*
%TD*%
D29*
%TO.C,J6*%
X219000000Y-97000000D03*
%TD*%
%TO.C,J4*%
X218500000Y-47000000D03*
%TD*%
%TO.C,J5*%
X246500000Y-46000000D03*
%TD*%
%TO.C,J7*%
X246500000Y-98000000D03*
%TD*%
D32*
%TO.C,J2*%
X202500000Y-85000000D03*
X202500000Y-83000000D03*
X202500000Y-81000000D03*
X202500000Y-79000000D03*
X202500000Y-77000000D03*
X202500000Y-75000000D03*
X202500000Y-73000000D03*
X202500000Y-71000000D03*
X202500000Y-69000000D03*
X202500000Y-67000000D03*
X202500000Y-65000000D03*
D33*
X202500000Y-63000000D03*
%TD*%
M02*
