%TF.GenerationSoftware,KiCad,Pcbnew,(2018-01-05 revision b98cc0b)-master*%
%TF.CreationDate,2018-01-06T14:23:44-08:00*%
%TF.ProjectId,pyoven,70796F76656E2E6B696361645F706362,rev?*%
%TF.SameCoordinates,Original*%
%TF.FileFunction,Legend,Bot*%
%TF.FilePolarity,Positive*%
%FSLAX46Y46*%
G04 Gerber Fmt 4.6, Leading zero omitted, Abs format (unit mm)*
G04 Created by KiCad (PCBNEW (2018-01-05 revision b98cc0b)-master) date Saturday, January 06, 2018 'PMt' 02:23:44 PM*
%MOMM*%
%LPD*%
G01*
G04 APERTURE LIST*
%ADD10C,0.300000*%
%ADD11C,0.150000*%
%ADD12C,0.120000*%
G04 APERTURE END LIST*
D10*
X229521428Y-84892857D02*
X228021428Y-84892857D01*
X229450000Y-84892857D02*
X229521428Y-84750000D01*
X229521428Y-84464285D01*
X229450000Y-84321428D01*
X229378571Y-84250000D01*
X229235714Y-84178571D01*
X228807142Y-84178571D01*
X228664285Y-84250000D01*
X228592857Y-84321428D01*
X228521428Y-84464285D01*
X228521428Y-84750000D01*
X228592857Y-84892857D01*
X229521428Y-83678571D02*
X228521428Y-83321428D01*
X229521428Y-82964285D02*
X228521428Y-83321428D01*
X228164285Y-83464285D01*
X228092857Y-83535714D01*
X228021428Y-83678571D01*
X228521428Y-82178571D02*
X228592857Y-82321428D01*
X228664285Y-82392857D01*
X228807142Y-82464285D01*
X229235714Y-82464285D01*
X229378571Y-82392857D01*
X229450000Y-82321428D01*
X229521428Y-82178571D01*
X229521428Y-81964285D01*
X229450000Y-81821428D01*
X229378571Y-81750000D01*
X229235714Y-81678571D01*
X228807142Y-81678571D01*
X228664285Y-81750000D01*
X228592857Y-81821428D01*
X228521428Y-81964285D01*
X228521428Y-82178571D01*
X229521428Y-81178571D02*
X228521428Y-80821428D01*
X229521428Y-80464285D01*
X228592857Y-79321428D02*
X228521428Y-79464285D01*
X228521428Y-79750000D01*
X228592857Y-79892857D01*
X228735714Y-79964285D01*
X229307142Y-79964285D01*
X229450000Y-79892857D01*
X229521428Y-79750000D01*
X229521428Y-79464285D01*
X229450000Y-79321428D01*
X229307142Y-79250000D01*
X229164285Y-79250000D01*
X229021428Y-79964285D01*
X229521428Y-78607142D02*
X228521428Y-78607142D01*
X229378571Y-78607142D02*
X229450000Y-78535714D01*
X229521428Y-78392857D01*
X229521428Y-78178571D01*
X229450000Y-78035714D01*
X229307142Y-77964285D01*
X228521428Y-77964285D01*
X228521428Y-75321428D02*
X228521428Y-76178571D01*
X228521428Y-75750000D02*
X230021428Y-75750000D01*
X229807142Y-75892857D01*
X229664285Y-76035714D01*
X229592857Y-76178571D01*
X228664285Y-74678571D02*
X228592857Y-74607142D01*
X228521428Y-74678571D01*
X228592857Y-74750000D01*
X228664285Y-74678571D01*
X228521428Y-74678571D01*
X230021428Y-73678571D02*
X230021428Y-73535714D01*
X229950000Y-73392857D01*
X229878571Y-73321428D01*
X229735714Y-73250000D01*
X229450000Y-73178571D01*
X229092857Y-73178571D01*
X228807142Y-73250000D01*
X228664285Y-73321428D01*
X228592857Y-73392857D01*
X228521428Y-73535714D01*
X228521428Y-73678571D01*
X228592857Y-73821428D01*
X228664285Y-73892857D01*
X228807142Y-73964285D01*
X229092857Y-74035714D01*
X229450000Y-74035714D01*
X229735714Y-73964285D01*
X229878571Y-73892857D01*
X229950000Y-73821428D01*
X230021428Y-73678571D01*
X228664285Y-72535714D02*
X228592857Y-72464285D01*
X228521428Y-72535714D01*
X228592857Y-72607142D01*
X228664285Y-72535714D01*
X228521428Y-72535714D01*
X230021428Y-71535714D02*
X230021428Y-71392857D01*
X229950000Y-71250000D01*
X229878571Y-71178571D01*
X229735714Y-71107142D01*
X229450000Y-71035714D01*
X229092857Y-71035714D01*
X228807142Y-71107142D01*
X228664285Y-71178571D01*
X228592857Y-71250000D01*
X228521428Y-71392857D01*
X228521428Y-71535714D01*
X228592857Y-71678571D01*
X228664285Y-71750000D01*
X228807142Y-71821428D01*
X229092857Y-71892857D01*
X229450000Y-71892857D01*
X229735714Y-71821428D01*
X229878571Y-71750000D01*
X229950000Y-71678571D01*
X230021428Y-71535714D01*
X256885714Y-62807142D02*
X255742857Y-62807142D01*
X256314285Y-63378571D02*
X256314285Y-62235714D01*
X254242857Y-63378571D02*
X255100000Y-63378571D01*
X254671428Y-63378571D02*
X254671428Y-61878571D01*
X254814285Y-62092857D01*
X254957142Y-62235714D01*
X255100000Y-62307142D01*
X252885714Y-61878571D02*
X253600000Y-61878571D01*
X253671428Y-62592857D01*
X253600000Y-62521428D01*
X253457142Y-62450000D01*
X253100000Y-62450000D01*
X252957142Y-62521428D01*
X252885714Y-62592857D01*
X252814285Y-62735714D01*
X252814285Y-63092857D01*
X252885714Y-63235714D01*
X252957142Y-63307142D01*
X253100000Y-63378571D01*
X253457142Y-63378571D01*
X253600000Y-63307142D01*
X253671428Y-63235714D01*
X252385714Y-61878571D02*
X251885714Y-63378571D01*
X251385714Y-61878571D01*
X250885714Y-63378571D02*
X250885714Y-62378571D01*
X250885714Y-61878571D02*
X250957142Y-61950000D01*
X250885714Y-62021428D01*
X250814285Y-61950000D01*
X250885714Y-61878571D01*
X250885714Y-62021428D01*
X250242857Y-63307142D02*
X250100000Y-63378571D01*
X249814285Y-63378571D01*
X249671428Y-63307142D01*
X249600000Y-63164285D01*
X249600000Y-63092857D01*
X249671428Y-62950000D01*
X249814285Y-62878571D01*
X250028571Y-62878571D01*
X250171428Y-62807142D01*
X250242857Y-62664285D01*
X250242857Y-62592857D01*
X250171428Y-62450000D01*
X250028571Y-62378571D01*
X249814285Y-62378571D01*
X249671428Y-62450000D01*
X248957142Y-63378571D02*
X248957142Y-61878571D01*
X248314285Y-63378571D02*
X248314285Y-62592857D01*
X248385714Y-62450000D01*
X248528571Y-62378571D01*
X248742857Y-62378571D01*
X248885714Y-62450000D01*
X248957142Y-62521428D01*
X251242857Y-64750000D02*
X251385714Y-64678571D01*
X251600000Y-64678571D01*
X251814285Y-64750000D01*
X251957142Y-64892857D01*
X252028571Y-65035714D01*
X252100000Y-65321428D01*
X252100000Y-65535714D01*
X252028571Y-65821428D01*
X251957142Y-65964285D01*
X251814285Y-66107142D01*
X251600000Y-66178571D01*
X251457142Y-66178571D01*
X251242857Y-66107142D01*
X251171428Y-66035714D01*
X251171428Y-65535714D01*
X251457142Y-65535714D01*
X250528571Y-66178571D02*
X250528571Y-64678571D01*
X249671428Y-66178571D01*
X249671428Y-64678571D01*
X248957142Y-66178571D02*
X248957142Y-64678571D01*
X248600000Y-64678571D01*
X248385714Y-64750000D01*
X248242857Y-64892857D01*
X248171428Y-65035714D01*
X248100000Y-65321428D01*
X248100000Y-65535714D01*
X248171428Y-65821428D01*
X248242857Y-65964285D01*
X248385714Y-66107142D01*
X248600000Y-66178571D01*
X248957142Y-66178571D01*
X255985714Y-67892857D02*
X255485714Y-67892857D01*
X255271428Y-68678571D02*
X255985714Y-68678571D01*
X255985714Y-67178571D01*
X255271428Y-67178571D01*
X254628571Y-68678571D02*
X254628571Y-67178571D01*
X253771428Y-68678571D01*
X253771428Y-67178571D01*
X253128571Y-68250000D02*
X252414285Y-68250000D01*
X253271428Y-68678571D02*
X252771428Y-67178571D01*
X252271428Y-68678571D01*
X251271428Y-67892857D02*
X251057142Y-67964285D01*
X250985714Y-68035714D01*
X250914285Y-68178571D01*
X250914285Y-68392857D01*
X250985714Y-68535714D01*
X251057142Y-68607142D01*
X251200000Y-68678571D01*
X251771428Y-68678571D01*
X251771428Y-67178571D01*
X251271428Y-67178571D01*
X251128571Y-67250000D01*
X251057142Y-67321428D01*
X250985714Y-67464285D01*
X250985714Y-67607142D01*
X251057142Y-67750000D01*
X251128571Y-67821428D01*
X251271428Y-67892857D01*
X251771428Y-67892857D01*
X249557142Y-68678571D02*
X250271428Y-68678571D01*
X250271428Y-67178571D01*
X249057142Y-67892857D02*
X248557142Y-67892857D01*
X248342857Y-68678571D02*
X249057142Y-68678571D01*
X249057142Y-67178571D01*
X248342857Y-67178571D01*
X255121428Y-71078571D02*
X255621428Y-70364285D01*
X255978571Y-71078571D02*
X255978571Y-69578571D01*
X255407142Y-69578571D01*
X255264285Y-69650000D01*
X255192857Y-69721428D01*
X255121428Y-69864285D01*
X255121428Y-70078571D01*
X255192857Y-70221428D01*
X255264285Y-70292857D01*
X255407142Y-70364285D01*
X255978571Y-70364285D01*
X254478571Y-70292857D02*
X253978571Y-70292857D01*
X253764285Y-71078571D02*
X254478571Y-71078571D01*
X254478571Y-69578571D01*
X253764285Y-69578571D01*
X252407142Y-71078571D02*
X253121428Y-71078571D01*
X253121428Y-69578571D01*
X251978571Y-70650000D02*
X251264285Y-70650000D01*
X252121428Y-71078571D02*
X251621428Y-69578571D01*
X251121428Y-71078571D01*
X250335714Y-70364285D02*
X250335714Y-71078571D01*
X250835714Y-69578571D02*
X250335714Y-70364285D01*
X249835714Y-69578571D01*
X249407142Y-69721428D02*
X249335714Y-69650000D01*
X249192857Y-69578571D01*
X248835714Y-69578571D01*
X248692857Y-69650000D01*
X248621428Y-69721428D01*
X248550000Y-69864285D01*
X248550000Y-70007142D01*
X248621428Y-70221428D01*
X249478571Y-71078571D01*
X248550000Y-71078571D01*
X255121428Y-73578571D02*
X255621428Y-72864285D01*
X255978571Y-73578571D02*
X255978571Y-72078571D01*
X255407142Y-72078571D01*
X255264285Y-72150000D01*
X255192857Y-72221428D01*
X255121428Y-72364285D01*
X255121428Y-72578571D01*
X255192857Y-72721428D01*
X255264285Y-72792857D01*
X255407142Y-72864285D01*
X255978571Y-72864285D01*
X254478571Y-72792857D02*
X253978571Y-72792857D01*
X253764285Y-73578571D02*
X254478571Y-73578571D01*
X254478571Y-72078571D01*
X253764285Y-72078571D01*
X252407142Y-73578571D02*
X253121428Y-73578571D01*
X253121428Y-72078571D01*
X251978571Y-73150000D02*
X251264285Y-73150000D01*
X252121428Y-73578571D02*
X251621428Y-72078571D01*
X251121428Y-73578571D01*
X250335714Y-72864285D02*
X250335714Y-73578571D01*
X250835714Y-72078571D02*
X250335714Y-72864285D01*
X249835714Y-72078571D01*
X248550000Y-73578571D02*
X249407142Y-73578571D01*
X248978571Y-73578571D02*
X248978571Y-72078571D01*
X249121428Y-72292857D01*
X249264285Y-72435714D01*
X249407142Y-72507142D01*
X255635714Y-75692857D02*
X255421428Y-75764285D01*
X255350000Y-75835714D01*
X255278571Y-75978571D01*
X255278571Y-76192857D01*
X255350000Y-76335714D01*
X255421428Y-76407142D01*
X255564285Y-76478571D01*
X256135714Y-76478571D01*
X256135714Y-74978571D01*
X255635714Y-74978571D01*
X255492857Y-75050000D01*
X255421428Y-75121428D01*
X255350000Y-75264285D01*
X255350000Y-75407142D01*
X255421428Y-75550000D01*
X255492857Y-75621428D01*
X255635714Y-75692857D01*
X256135714Y-75692857D01*
X254635714Y-74978571D02*
X254635714Y-76192857D01*
X254564285Y-76335714D01*
X254492857Y-76407142D01*
X254350000Y-76478571D01*
X254064285Y-76478571D01*
X253921428Y-76407142D01*
X253850000Y-76335714D01*
X253778571Y-76192857D01*
X253778571Y-74978571D01*
X253207142Y-74978571D02*
X252207142Y-74978571D01*
X253207142Y-76478571D01*
X252207142Y-76478571D01*
X251778571Y-74978571D02*
X250778571Y-74978571D01*
X251778571Y-76478571D01*
X250778571Y-76478571D01*
X250207142Y-75692857D02*
X249707142Y-75692857D01*
X249492857Y-76478571D02*
X250207142Y-76478571D01*
X250207142Y-74978571D01*
X249492857Y-74978571D01*
X247992857Y-76478571D02*
X248492857Y-75764285D01*
X248850000Y-76478571D02*
X248850000Y-74978571D01*
X248278571Y-74978571D01*
X248135714Y-75050000D01*
X248064285Y-75121428D01*
X247992857Y-75264285D01*
X247992857Y-75478571D01*
X248064285Y-75621428D01*
X248135714Y-75692857D01*
X248278571Y-75764285D01*
X248850000Y-75764285D01*
X255642857Y-77578571D02*
X254785714Y-77578571D01*
X255214285Y-79078571D02*
X255214285Y-77578571D01*
X254285714Y-78292857D02*
X253785714Y-78292857D01*
X253571428Y-79078571D02*
X254285714Y-79078571D01*
X254285714Y-77578571D01*
X253571428Y-77578571D01*
X252928571Y-79078571D02*
X252928571Y-77578571D01*
X252428571Y-78650000D01*
X251928571Y-77578571D01*
X251928571Y-79078571D01*
X251214285Y-79078571D02*
X251214285Y-77578571D01*
X250642857Y-77578571D01*
X250500000Y-77650000D01*
X250428571Y-77721428D01*
X250357142Y-77864285D01*
X250357142Y-78078571D01*
X250428571Y-78221428D01*
X250500000Y-78292857D01*
X250642857Y-78364285D01*
X251214285Y-78364285D01*
X249714285Y-78507142D02*
X248571428Y-78507142D01*
X249142857Y-79078571D02*
X249142857Y-77935714D01*
X255442857Y-80078571D02*
X254585714Y-80078571D01*
X255014285Y-81578571D02*
X255014285Y-80078571D01*
X254085714Y-80792857D02*
X253585714Y-80792857D01*
X253371428Y-81578571D02*
X254085714Y-81578571D01*
X254085714Y-80078571D01*
X253371428Y-80078571D01*
X252728571Y-81578571D02*
X252728571Y-80078571D01*
X252228571Y-81150000D01*
X251728571Y-80078571D01*
X251728571Y-81578571D01*
X251014285Y-81578571D02*
X251014285Y-80078571D01*
X250442857Y-80078571D01*
X250300000Y-80150000D01*
X250228571Y-80221428D01*
X250157142Y-80364285D01*
X250157142Y-80578571D01*
X250228571Y-80721428D01*
X250300000Y-80792857D01*
X250442857Y-80864285D01*
X251014285Y-80864285D01*
X249514285Y-81007142D02*
X248371428Y-81007142D01*
X226278571Y-62578571D02*
X226778571Y-61864285D01*
X227135714Y-62578571D02*
X227135714Y-61078571D01*
X226564285Y-61078571D01*
X226421428Y-61150000D01*
X226350000Y-61221428D01*
X226278571Y-61364285D01*
X226278571Y-61578571D01*
X226350000Y-61721428D01*
X226421428Y-61792857D01*
X226564285Y-61864285D01*
X227135714Y-61864285D01*
X225635714Y-61792857D02*
X225135714Y-61792857D01*
X224921428Y-62578571D02*
X225635714Y-62578571D01*
X225635714Y-61078571D01*
X224921428Y-61078571D01*
X224350000Y-62507142D02*
X224135714Y-62578571D01*
X223778571Y-62578571D01*
X223635714Y-62507142D01*
X223564285Y-62435714D01*
X223492857Y-62292857D01*
X223492857Y-62150000D01*
X223564285Y-62007142D01*
X223635714Y-61935714D01*
X223778571Y-61864285D01*
X224064285Y-61792857D01*
X224207142Y-61721428D01*
X224278571Y-61650000D01*
X224350000Y-61507142D01*
X224350000Y-61364285D01*
X224278571Y-61221428D01*
X224207142Y-61150000D01*
X224064285Y-61078571D01*
X223707142Y-61078571D01*
X223492857Y-61150000D01*
X222850000Y-61792857D02*
X222350000Y-61792857D01*
X222135714Y-62578571D02*
X222850000Y-62578571D01*
X222850000Y-61078571D01*
X222135714Y-61078571D01*
X221707142Y-61078571D02*
X220850000Y-61078571D01*
X221278571Y-62578571D02*
X221278571Y-61078571D01*
X216721428Y-72985714D02*
X218221428Y-72985714D01*
X218221428Y-72414285D01*
X218150000Y-72271428D01*
X218078571Y-72200000D01*
X217935714Y-72128571D01*
X217721428Y-72128571D01*
X217578571Y-72200000D01*
X217507142Y-72271428D01*
X217435714Y-72414285D01*
X217435714Y-72985714D01*
X218221428Y-71485714D02*
X217007142Y-71485714D01*
X216864285Y-71414285D01*
X216792857Y-71342857D01*
X216721428Y-71200000D01*
X216721428Y-70914285D01*
X216792857Y-70771428D01*
X216864285Y-70700000D01*
X217007142Y-70628571D01*
X218221428Y-70628571D01*
X216721428Y-69914285D02*
X218221428Y-69914285D01*
X217150000Y-69414285D01*
X218221428Y-68914285D01*
X216721428Y-68914285D01*
X216721428Y-68200000D02*
X218221428Y-68200000D01*
X218221428Y-67628571D01*
X218150000Y-67485714D01*
X218078571Y-67414285D01*
X217935714Y-67342857D01*
X217721428Y-67342857D01*
X217578571Y-67414285D01*
X217507142Y-67485714D01*
X217435714Y-67628571D01*
X217435714Y-68200000D01*
X239107142Y-88635714D02*
X239035714Y-88421428D01*
X238964285Y-88350000D01*
X238821428Y-88278571D01*
X238607142Y-88278571D01*
X238464285Y-88350000D01*
X238392857Y-88421428D01*
X238321428Y-88564285D01*
X238321428Y-89135714D01*
X239821428Y-89135714D01*
X239821428Y-88635714D01*
X239750000Y-88492857D01*
X239678571Y-88421428D01*
X239535714Y-88350000D01*
X239392857Y-88350000D01*
X239250000Y-88421428D01*
X239178571Y-88492857D01*
X239107142Y-88635714D01*
X239107142Y-89135714D01*
X239821428Y-87635714D02*
X238607142Y-87635714D01*
X238464285Y-87564285D01*
X238392857Y-87492857D01*
X238321428Y-87350000D01*
X238321428Y-87064285D01*
X238392857Y-86921428D01*
X238464285Y-86850000D01*
X238607142Y-86778571D01*
X239821428Y-86778571D01*
X239821428Y-86207142D02*
X239821428Y-85207142D01*
X238321428Y-86207142D01*
X238321428Y-85207142D01*
X239821428Y-84778571D02*
X239821428Y-83778571D01*
X238321428Y-84778571D01*
X238321428Y-83778571D01*
X239107142Y-83207142D02*
X239107142Y-82707142D01*
X238321428Y-82492857D02*
X238321428Y-83207142D01*
X239821428Y-83207142D01*
X239821428Y-82492857D01*
X238321428Y-80992857D02*
X239035714Y-81492857D01*
X238321428Y-81850000D02*
X239821428Y-81850000D01*
X239821428Y-81278571D01*
X239750000Y-81135714D01*
X239678571Y-81064285D01*
X239535714Y-80992857D01*
X239321428Y-80992857D01*
X239178571Y-81064285D01*
X239107142Y-81135714D01*
X239035714Y-81278571D01*
X239035714Y-81850000D01*
X235721428Y-87421428D02*
X236435714Y-87921428D01*
X235721428Y-88278571D02*
X237221428Y-88278571D01*
X237221428Y-87707142D01*
X237150000Y-87564285D01*
X237078571Y-87492857D01*
X236935714Y-87421428D01*
X236721428Y-87421428D01*
X236578571Y-87492857D01*
X236507142Y-87564285D01*
X236435714Y-87707142D01*
X236435714Y-88278571D01*
X236507142Y-86778571D02*
X236507142Y-86278571D01*
X235721428Y-86064285D02*
X235721428Y-86778571D01*
X237221428Y-86778571D01*
X237221428Y-86064285D01*
X235721428Y-84707142D02*
X235721428Y-85421428D01*
X237221428Y-85421428D01*
X236150000Y-84278571D02*
X236150000Y-83564285D01*
X235721428Y-84421428D02*
X237221428Y-83921428D01*
X235721428Y-83421428D01*
X236435714Y-82635714D02*
X235721428Y-82635714D01*
X237221428Y-83135714D02*
X236435714Y-82635714D01*
X237221428Y-82135714D01*
X235721428Y-80850000D02*
X235721428Y-81707142D01*
X235721428Y-81278571D02*
X237221428Y-81278571D01*
X237007142Y-81421428D01*
X236864285Y-81564285D01*
X236792857Y-81707142D01*
X233121428Y-87421428D02*
X233835714Y-87921428D01*
X233121428Y-88278571D02*
X234621428Y-88278571D01*
X234621428Y-87707142D01*
X234550000Y-87564285D01*
X234478571Y-87492857D01*
X234335714Y-87421428D01*
X234121428Y-87421428D01*
X233978571Y-87492857D01*
X233907142Y-87564285D01*
X233835714Y-87707142D01*
X233835714Y-88278571D01*
X233907142Y-86778571D02*
X233907142Y-86278571D01*
X233121428Y-86064285D02*
X233121428Y-86778571D01*
X234621428Y-86778571D01*
X234621428Y-86064285D01*
X233121428Y-84707142D02*
X233121428Y-85421428D01*
X234621428Y-85421428D01*
X233550000Y-84278571D02*
X233550000Y-83564285D01*
X233121428Y-84421428D02*
X234621428Y-83921428D01*
X233121428Y-83421428D01*
X233835714Y-82635714D02*
X233121428Y-82635714D01*
X234621428Y-83135714D02*
X233835714Y-82635714D01*
X234621428Y-82135714D01*
X234478571Y-81707142D02*
X234550000Y-81635714D01*
X234621428Y-81492857D01*
X234621428Y-81135714D01*
X234550000Y-80992857D01*
X234478571Y-80921428D01*
X234335714Y-80850000D01*
X234192857Y-80850000D01*
X233978571Y-80921428D01*
X233121428Y-81778571D01*
X233121428Y-80850000D01*
X231607142Y-88485714D02*
X231607142Y-87985714D01*
X230821428Y-87771428D02*
X230821428Y-88485714D01*
X232321428Y-88485714D01*
X232321428Y-87771428D01*
X230821428Y-87128571D02*
X232321428Y-87128571D01*
X230821428Y-86271428D01*
X232321428Y-86271428D01*
X231250000Y-85628571D02*
X231250000Y-84914285D01*
X230821428Y-85771428D02*
X232321428Y-85271428D01*
X230821428Y-84771428D01*
X231607142Y-83771428D02*
X231535714Y-83557142D01*
X231464285Y-83485714D01*
X231321428Y-83414285D01*
X231107142Y-83414285D01*
X230964285Y-83485714D01*
X230892857Y-83557142D01*
X230821428Y-83700000D01*
X230821428Y-84271428D01*
X232321428Y-84271428D01*
X232321428Y-83771428D01*
X232250000Y-83628571D01*
X232178571Y-83557142D01*
X232035714Y-83485714D01*
X231892857Y-83485714D01*
X231750000Y-83557142D01*
X231678571Y-83628571D01*
X231607142Y-83771428D01*
X231607142Y-84271428D01*
X230821428Y-82057142D02*
X230821428Y-82771428D01*
X232321428Y-82771428D01*
X231607142Y-81557142D02*
X231607142Y-81057142D01*
X230821428Y-80842857D02*
X230821428Y-81557142D01*
X232321428Y-81557142D01*
X232321428Y-80842857D01*
D11*
%TO.C,LED2*%
X116641421Y-78500000D02*
G75*
G03X116641421Y-78500000I-141421J0D01*
G01*
%TO.C,LED1*%
X116641421Y-62500000D02*
G75*
G03X116641421Y-62500000I-141421J0D01*
G01*
D12*
%TO.C,R21*%
X229420000Y-67600000D02*
X229420000Y-68600000D01*
X230780000Y-68600000D02*
X230780000Y-67600000D01*
%TO.C,R22*%
X237700000Y-72080000D02*
X238700000Y-72080000D01*
X238700000Y-70720000D02*
X237700000Y-70720000D01*
%TO.C,D3*%
X223700000Y-83450000D02*
X223700000Y-79550000D01*
X221700000Y-83450000D02*
X221700000Y-79550000D01*
X223700000Y-83450000D02*
X221700000Y-83450000D01*
%TO.C,D4*%
X222250000Y-78600000D02*
X222250000Y-76600000D01*
X222250000Y-76600000D02*
X226150000Y-76600000D01*
X222250000Y-78600000D02*
X226150000Y-78600000D01*
%TO.C,D9*%
X230850000Y-76900000D02*
X231950000Y-76900000D01*
X231950000Y-76900000D02*
X231950000Y-79500000D01*
X230850000Y-76900000D02*
X230850000Y-79500000D01*
%TO.C,D10*%
X233350000Y-76900000D02*
X233350000Y-79500000D01*
X234450000Y-76900000D02*
X234450000Y-79500000D01*
X233350000Y-76900000D02*
X234450000Y-76900000D01*
%TO.C,D11*%
X235850000Y-76900000D02*
X236950000Y-76900000D01*
X236950000Y-76900000D02*
X236950000Y-79500000D01*
X235850000Y-76900000D02*
X235850000Y-79500000D01*
%TO.C,D12*%
X238350000Y-76900000D02*
X238350000Y-79500000D01*
X239450000Y-76900000D02*
X239450000Y-79500000D01*
X238350000Y-76900000D02*
X239450000Y-76900000D01*
%TO.C,R23*%
X236200000Y-60720000D02*
X235200000Y-60720000D01*
X235200000Y-62080000D02*
X236200000Y-62080000D01*
%TO.C,R24*%
X239300000Y-62080000D02*
X240300000Y-62080000D01*
X240300000Y-60720000D02*
X239300000Y-60720000D01*
%TO.C,SW9*%
X227430000Y-69830000D02*
X220970000Y-69830000D01*
X227430000Y-65300000D02*
X227430000Y-67900000D01*
X227430000Y-63370000D02*
X220970000Y-63370000D01*
X220970000Y-65300000D02*
X220970000Y-67900000D01*
X227430000Y-63400000D02*
X227430000Y-63370000D01*
X227430000Y-69830000D02*
X227430000Y-69800000D01*
X220970000Y-69830000D02*
X220970000Y-69800000D01*
X220970000Y-63370000D02*
X220970000Y-63400000D01*
%TO.C,D2*%
X165051291Y-63215067D02*
G75*
G02X165767104Y-66371049I-771824J-1834227D01*
G01*
X162926847Y-63589664D02*
G75*
G03X163333612Y-66800139I1352620J-1459630D01*
G01*
X165162109Y-63836470D02*
G75*
G02X165523820Y-65886901I-882642J-1212824D01*
G01*
X163035244Y-64211492D02*
G75*
G03X163396635Y-66261981I1244223J-837802D01*
G01*
X165767580Y-66370965D02*
X165613950Y-66398054D01*
X163486766Y-66773134D02*
X163333136Y-66800223D01*
%TO.C,D5*%
X163386050Y-83598054D02*
X163232420Y-83570965D01*
X165666864Y-84000223D02*
X165513234Y-83973134D01*
X163837891Y-81036470D02*
G75*
G03X163476180Y-83086901I882642J-1212824D01*
G01*
X165964756Y-81411492D02*
G75*
G02X165603365Y-83461981I-1244223J-837802D01*
G01*
X163948709Y-80415067D02*
G75*
G03X163232896Y-83571049I771824J-1834227D01*
G01*
X166073153Y-80789664D02*
G75*
G02X165666388Y-84000139I-1352620J-1459630D01*
G01*
%TO.C,D6*%
X166605269Y-48191168D02*
G75*
G02X165124988Y-51068905I-1770269J-908980D01*
G01*
X164737066Y-47112560D02*
G75*
G03X162985012Y-49833389I97934J-1987588D01*
G01*
X166290730Y-48738422D02*
G75*
G02X165249827Y-50541646I-1455730J-361726D01*
G01*
X164420399Y-47658584D02*
G75*
G03X163379212Y-49461646I414601J-1441564D01*
G01*
X165125407Y-51069147D02*
X164990307Y-50991147D01*
X163119693Y-49911147D02*
X162984593Y-49833147D01*
%TO.C,D7*%
X163709692Y-98491147D02*
X163574592Y-98569147D01*
X165715407Y-97333148D02*
X165580307Y-97411148D01*
X162409270Y-96238422D02*
G75*
G03X163450173Y-98041646I1455730J-361726D01*
G01*
X164279601Y-95158584D02*
G75*
G02X165320788Y-96961646I-414601J-1441564D01*
G01*
X162094731Y-95691168D02*
G75*
G03X163575012Y-98568905I1770269J-908980D01*
G01*
X163962934Y-94612560D02*
G75*
G02X165714988Y-97333389I-97934J-1987588D01*
G01*
%TO.C,J19*%
X220940000Y-71070000D02*
X220940000Y-72200000D01*
X221700000Y-71070000D02*
X220940000Y-71070000D01*
X221005000Y-73777530D02*
X221005000Y-74600000D01*
X221005000Y-72960000D02*
X221005000Y-73162470D01*
X221136529Y-72960000D02*
X221005000Y-72960000D01*
X222406529Y-72960000D02*
X222263471Y-72960000D01*
X222460000Y-72763471D02*
X222460000Y-72906529D01*
X222460000Y-71070000D02*
X222460000Y-71636529D01*
X221005000Y-74600000D02*
X227475000Y-74600000D01*
X222460000Y-71070000D02*
X227475000Y-71070000D01*
X227475000Y-72507530D02*
X227475000Y-73162470D01*
X227475000Y-73777530D02*
X227475000Y-74600000D01*
X227475000Y-71070000D02*
X227475000Y-71892470D01*
%TO.C,SW8*%
X168230000Y-77230000D02*
X168230000Y-77200000D01*
X168230000Y-70770000D02*
X168230000Y-70800000D01*
X161770000Y-70770000D02*
X161770000Y-70800000D01*
X161770000Y-77200000D02*
X161770000Y-77230000D01*
X168230000Y-75300000D02*
X168230000Y-72700000D01*
X161770000Y-77230000D02*
X168230000Y-77230000D01*
X161770000Y-75300000D02*
X161770000Y-72700000D01*
X161770000Y-70770000D02*
X168230000Y-70770000D01*
%TO.C,SW7*%
X154770000Y-54770000D02*
X161230000Y-54770000D01*
X154770000Y-59300000D02*
X154770000Y-56700000D01*
X154770000Y-61230000D02*
X161230000Y-61230000D01*
X161230000Y-59300000D02*
X161230000Y-56700000D01*
X154770000Y-61200000D02*
X154770000Y-61230000D01*
X154770000Y-54770000D02*
X154770000Y-54800000D01*
X161230000Y-54770000D02*
X161230000Y-54800000D01*
X161230000Y-61230000D02*
X161230000Y-61200000D01*
%TO.C,SW6*%
X161230000Y-93230000D02*
X161230000Y-93200000D01*
X161230000Y-86770000D02*
X161230000Y-86800000D01*
X154770000Y-86770000D02*
X154770000Y-86800000D01*
X154770000Y-93200000D02*
X154770000Y-93230000D01*
X161230000Y-91300000D02*
X161230000Y-88700000D01*
X154770000Y-93230000D02*
X161230000Y-93230000D01*
X154770000Y-91300000D02*
X154770000Y-88700000D01*
X154770000Y-86770000D02*
X161230000Y-86770000D01*
%TO.C,SW5*%
X147770000Y-70770000D02*
X154230000Y-70770000D01*
X147770000Y-75300000D02*
X147770000Y-72700000D01*
X147770000Y-77230000D02*
X154230000Y-77230000D01*
X154230000Y-75300000D02*
X154230000Y-72700000D01*
X147770000Y-77200000D02*
X147770000Y-77230000D01*
X147770000Y-70770000D02*
X147770000Y-70800000D01*
X154230000Y-70770000D02*
X154230000Y-70800000D01*
X154230000Y-77230000D02*
X154230000Y-77200000D01*
%TO.C,SW4*%
X128230000Y-96230000D02*
X128230000Y-96200000D01*
X128230000Y-89770000D02*
X128230000Y-89800000D01*
X121770000Y-89770000D02*
X121770000Y-89800000D01*
X121770000Y-96200000D02*
X121770000Y-96230000D01*
X128230000Y-94300000D02*
X128230000Y-91700000D01*
X121770000Y-96230000D02*
X128230000Y-96230000D01*
X121770000Y-94300000D02*
X121770000Y-91700000D01*
X121770000Y-89770000D02*
X128230000Y-89770000D01*
%TO.C,SW3*%
X114770000Y-69770000D02*
X121230000Y-69770000D01*
X114770000Y-74300000D02*
X114770000Y-71700000D01*
X114770000Y-76230000D02*
X121230000Y-76230000D01*
X121230000Y-74300000D02*
X121230000Y-71700000D01*
X114770000Y-76200000D02*
X114770000Y-76230000D01*
X114770000Y-69770000D02*
X114770000Y-69800000D01*
X121230000Y-69770000D02*
X121230000Y-69800000D01*
X121230000Y-76230000D02*
X121230000Y-76200000D01*
%TO.C,SW2*%
X121230000Y-56230000D02*
X121230000Y-56200000D01*
X121230000Y-49770000D02*
X121230000Y-49800000D01*
X114770000Y-49770000D02*
X114770000Y-49800000D01*
X114770000Y-56200000D02*
X114770000Y-56230000D01*
X121230000Y-54300000D02*
X121230000Y-51700000D01*
X114770000Y-56230000D02*
X121230000Y-56230000D01*
X114770000Y-54300000D02*
X114770000Y-51700000D01*
X114770000Y-49770000D02*
X121230000Y-49770000D01*
%TO.C,SW1*%
X107770000Y-89770000D02*
X114230000Y-89770000D01*
X107770000Y-94300000D02*
X107770000Y-91700000D01*
X107770000Y-96230000D02*
X114230000Y-96230000D01*
X114230000Y-94300000D02*
X114230000Y-91700000D01*
X107770000Y-96200000D02*
X107770000Y-96230000D01*
X107770000Y-89770000D02*
X107770000Y-89800000D01*
X114230000Y-89770000D02*
X114230000Y-89800000D01*
X114230000Y-96230000D02*
X114230000Y-96200000D01*
%TO.C,J2*%
X203560000Y-61940000D02*
X202500000Y-61940000D01*
X203560000Y-63000000D02*
X203560000Y-61940000D01*
X203560000Y-64000000D02*
X201440000Y-64000000D01*
X201440000Y-64000000D02*
X201440000Y-86060000D01*
X203560000Y-64000000D02*
X203560000Y-86060000D01*
X203560000Y-86060000D02*
X201440000Y-86060000D01*
%TO.C,C2*%
X224500000Y-80750000D02*
X224500000Y-81450000D01*
X225700000Y-81450000D02*
X225700000Y-80750000D01*
%TO.C,C1*%
X219900000Y-80650000D02*
X219900000Y-81350000D01*
X221100000Y-81350000D02*
X221100000Y-80650000D01*
%TO.C,LED2*%
D11*
X119119047Y-83852380D02*
X119595238Y-83852380D01*
X119595238Y-82852380D01*
X118785714Y-83328571D02*
X118452380Y-83328571D01*
X118309523Y-83852380D02*
X118785714Y-83852380D01*
X118785714Y-82852380D01*
X118309523Y-82852380D01*
X117880952Y-83852380D02*
X117880952Y-82852380D01*
X117642857Y-82852380D01*
X117500000Y-82900000D01*
X117404761Y-82995238D01*
X117357142Y-83090476D01*
X117309523Y-83280952D01*
X117309523Y-83423809D01*
X117357142Y-83614285D01*
X117404761Y-83709523D01*
X117500000Y-83804761D01*
X117642857Y-83852380D01*
X117880952Y-83852380D01*
X116928571Y-82947619D02*
X116880952Y-82900000D01*
X116785714Y-82852380D01*
X116547619Y-82852380D01*
X116452380Y-82900000D01*
X116404761Y-82947619D01*
X116357142Y-83042857D01*
X116357142Y-83138095D01*
X116404761Y-83280952D01*
X116976190Y-83852380D01*
X116357142Y-83852380D01*
%TO.C,LED1*%
X119119047Y-60642380D02*
X119595238Y-60642380D01*
X119595238Y-59642380D01*
X118785714Y-60118571D02*
X118452380Y-60118571D01*
X118309523Y-60642380D02*
X118785714Y-60642380D01*
X118785714Y-59642380D01*
X118309523Y-59642380D01*
X117880952Y-60642380D02*
X117880952Y-59642380D01*
X117642857Y-59642380D01*
X117500000Y-59690000D01*
X117404761Y-59785238D01*
X117357142Y-59880476D01*
X117309523Y-60070952D01*
X117309523Y-60213809D01*
X117357142Y-60404285D01*
X117404761Y-60499523D01*
X117500000Y-60594761D01*
X117642857Y-60642380D01*
X117880952Y-60642380D01*
X116357142Y-60642380D02*
X116928571Y-60642380D01*
X116642857Y-60642380D02*
X116642857Y-59642380D01*
X116738095Y-59785238D01*
X116833333Y-59880476D01*
X116928571Y-59928095D01*
%TO.C,R21*%
X230552380Y-64757142D02*
X230076190Y-64423809D01*
X230552380Y-64185714D02*
X229552380Y-64185714D01*
X229552380Y-64566666D01*
X229600000Y-64661904D01*
X229647619Y-64709523D01*
X229742857Y-64757142D01*
X229885714Y-64757142D01*
X229980952Y-64709523D01*
X230028571Y-64661904D01*
X230076190Y-64566666D01*
X230076190Y-64185714D01*
X229647619Y-65138095D02*
X229600000Y-65185714D01*
X229552380Y-65280952D01*
X229552380Y-65519047D01*
X229600000Y-65614285D01*
X229647619Y-65661904D01*
X229742857Y-65709523D01*
X229838095Y-65709523D01*
X229980952Y-65661904D01*
X230552380Y-65090476D01*
X230552380Y-65709523D01*
X230552380Y-66661904D02*
X230552380Y-66090476D01*
X230552380Y-66376190D02*
X229552380Y-66376190D01*
X229695238Y-66280952D01*
X229790476Y-66185714D01*
X229838095Y-66090476D01*
%TO.C,R22*%
X241642857Y-71852380D02*
X241976190Y-71376190D01*
X242214285Y-71852380D02*
X242214285Y-70852380D01*
X241833333Y-70852380D01*
X241738095Y-70900000D01*
X241690476Y-70947619D01*
X241642857Y-71042857D01*
X241642857Y-71185714D01*
X241690476Y-71280952D01*
X241738095Y-71328571D01*
X241833333Y-71376190D01*
X242214285Y-71376190D01*
X241261904Y-70947619D02*
X241214285Y-70900000D01*
X241119047Y-70852380D01*
X240880952Y-70852380D01*
X240785714Y-70900000D01*
X240738095Y-70947619D01*
X240690476Y-71042857D01*
X240690476Y-71138095D01*
X240738095Y-71280952D01*
X241309523Y-71852380D01*
X240690476Y-71852380D01*
X240309523Y-70947619D02*
X240261904Y-70900000D01*
X240166666Y-70852380D01*
X239928571Y-70852380D01*
X239833333Y-70900000D01*
X239785714Y-70947619D01*
X239738095Y-71042857D01*
X239738095Y-71138095D01*
X239785714Y-71280952D01*
X240357142Y-71852380D01*
X239738095Y-71852380D01*
%TO.C,D3*%
X223152380Y-83761904D02*
X222152380Y-83761904D01*
X222152380Y-84000000D01*
X222200000Y-84142857D01*
X222295238Y-84238095D01*
X222390476Y-84285714D01*
X222580952Y-84333333D01*
X222723809Y-84333333D01*
X222914285Y-84285714D01*
X223009523Y-84238095D01*
X223104761Y-84142857D01*
X223152380Y-84000000D01*
X223152380Y-83761904D01*
X222152380Y-84666666D02*
X222152380Y-85285714D01*
X222533333Y-84952380D01*
X222533333Y-85095238D01*
X222580952Y-85190476D01*
X222628571Y-85238095D01*
X222723809Y-85285714D01*
X222961904Y-85285714D01*
X223057142Y-85238095D01*
X223104761Y-85190476D01*
X223152380Y-85095238D01*
X223152380Y-84809523D01*
X223104761Y-84714285D01*
X223057142Y-84666666D01*
%TO.C,D4*%
X221838095Y-78052380D02*
X221838095Y-77052380D01*
X221600000Y-77052380D01*
X221457142Y-77100000D01*
X221361904Y-77195238D01*
X221314285Y-77290476D01*
X221266666Y-77480952D01*
X221266666Y-77623809D01*
X221314285Y-77814285D01*
X221361904Y-77909523D01*
X221457142Y-78004761D01*
X221600000Y-78052380D01*
X221838095Y-78052380D01*
X220409523Y-77385714D02*
X220409523Y-78052380D01*
X220647619Y-77004761D02*
X220885714Y-77719047D01*
X220266666Y-77719047D01*
%TO.C,R23*%
X236342857Y-63302380D02*
X236676190Y-62826190D01*
X236914285Y-63302380D02*
X236914285Y-62302380D01*
X236533333Y-62302380D01*
X236438095Y-62350000D01*
X236390476Y-62397619D01*
X236342857Y-62492857D01*
X236342857Y-62635714D01*
X236390476Y-62730952D01*
X236438095Y-62778571D01*
X236533333Y-62826190D01*
X236914285Y-62826190D01*
X235961904Y-62397619D02*
X235914285Y-62350000D01*
X235819047Y-62302380D01*
X235580952Y-62302380D01*
X235485714Y-62350000D01*
X235438095Y-62397619D01*
X235390476Y-62492857D01*
X235390476Y-62588095D01*
X235438095Y-62730952D01*
X236009523Y-63302380D01*
X235390476Y-63302380D01*
X235057142Y-62302380D02*
X234438095Y-62302380D01*
X234771428Y-62683333D01*
X234628571Y-62683333D01*
X234533333Y-62730952D01*
X234485714Y-62778571D01*
X234438095Y-62873809D01*
X234438095Y-63111904D01*
X234485714Y-63207142D01*
X234533333Y-63254761D01*
X234628571Y-63302380D01*
X234914285Y-63302380D01*
X235009523Y-63254761D01*
X235057142Y-63207142D01*
%TO.C,R24*%
X240442857Y-60252380D02*
X240776190Y-59776190D01*
X241014285Y-60252380D02*
X241014285Y-59252380D01*
X240633333Y-59252380D01*
X240538095Y-59300000D01*
X240490476Y-59347619D01*
X240442857Y-59442857D01*
X240442857Y-59585714D01*
X240490476Y-59680952D01*
X240538095Y-59728571D01*
X240633333Y-59776190D01*
X241014285Y-59776190D01*
X240061904Y-59347619D02*
X240014285Y-59300000D01*
X239919047Y-59252380D01*
X239680952Y-59252380D01*
X239585714Y-59300000D01*
X239538095Y-59347619D01*
X239490476Y-59442857D01*
X239490476Y-59538095D01*
X239538095Y-59680952D01*
X240109523Y-60252380D01*
X239490476Y-60252380D01*
X238633333Y-59585714D02*
X238633333Y-60252380D01*
X238871428Y-59204761D02*
X239109523Y-59919047D01*
X238490476Y-59919047D01*
%TO.C,J1*%
X233452380Y-64866666D02*
X234166666Y-64866666D01*
X234309523Y-64819047D01*
X234404761Y-64723809D01*
X234452380Y-64580952D01*
X234452380Y-64485714D01*
X234452380Y-65866666D02*
X234452380Y-65295238D01*
X234452380Y-65580952D02*
X233452380Y-65580952D01*
X233595238Y-65485714D01*
X233690476Y-65390476D01*
X233738095Y-65295238D01*
%TO.C,SW9*%
X225533333Y-67004761D02*
X225390476Y-67052380D01*
X225152380Y-67052380D01*
X225057142Y-67004761D01*
X225009523Y-66957142D01*
X224961904Y-66861904D01*
X224961904Y-66766666D01*
X225009523Y-66671428D01*
X225057142Y-66623809D01*
X225152380Y-66576190D01*
X225342857Y-66528571D01*
X225438095Y-66480952D01*
X225485714Y-66433333D01*
X225533333Y-66338095D01*
X225533333Y-66242857D01*
X225485714Y-66147619D01*
X225438095Y-66100000D01*
X225342857Y-66052380D01*
X225104761Y-66052380D01*
X224961904Y-66100000D01*
X224628571Y-66052380D02*
X224390476Y-67052380D01*
X224200000Y-66338095D01*
X224009523Y-67052380D01*
X223771428Y-66052380D01*
X223342857Y-67052380D02*
X223152380Y-67052380D01*
X223057142Y-67004761D01*
X223009523Y-66957142D01*
X222914285Y-66814285D01*
X222866666Y-66623809D01*
X222866666Y-66242857D01*
X222914285Y-66147619D01*
X222961904Y-66100000D01*
X223057142Y-66052380D01*
X223247619Y-66052380D01*
X223342857Y-66100000D01*
X223390476Y-66147619D01*
X223438095Y-66242857D01*
X223438095Y-66480952D01*
X223390476Y-66576190D01*
X223342857Y-66623809D01*
X223247619Y-66671428D01*
X223057142Y-66671428D01*
X222961904Y-66623809D01*
X222914285Y-66576190D01*
X222866666Y-66480952D01*
%TO.C,D2*%
X166877158Y-65340733D02*
X167861966Y-65167084D01*
X167820621Y-64932606D01*
X167748919Y-64800188D01*
X167638589Y-64722935D01*
X167536529Y-64692577D01*
X167340678Y-64678758D01*
X167199991Y-64703565D01*
X167020678Y-64783536D01*
X166935155Y-64846970D01*
X166857902Y-64957299D01*
X166835813Y-65106255D01*
X166877158Y-65340733D01*
X167602795Y-64245710D02*
X167641422Y-64190546D01*
X167671780Y-64088485D01*
X167630435Y-63854007D01*
X167567001Y-63768485D01*
X167511837Y-63729858D01*
X167409777Y-63699501D01*
X167315985Y-63716039D01*
X167183568Y-63787741D01*
X166720048Y-64449716D01*
X166612551Y-63840073D01*
%TO.C,D5*%
X168209241Y-82114966D02*
X167224433Y-81941318D01*
X167183088Y-82175796D01*
X167205177Y-82324751D01*
X167282430Y-82435080D01*
X167367952Y-82498514D01*
X167547266Y-82578485D01*
X167687953Y-82603292D01*
X167883804Y-82589473D01*
X167985864Y-82559115D01*
X168096193Y-82481862D01*
X168167896Y-82349444D01*
X168209241Y-82114966D01*
X166968095Y-83395081D02*
X167050785Y-82926125D01*
X167528010Y-82961919D01*
X167472845Y-83000546D01*
X167409412Y-83086068D01*
X167368067Y-83320546D01*
X167398425Y-83422606D01*
X167437051Y-83477771D01*
X167522573Y-83541205D01*
X167757051Y-83582549D01*
X167859112Y-83552192D01*
X167914276Y-83513565D01*
X167977710Y-83428043D01*
X168019055Y-83193565D01*
X167988697Y-83091505D01*
X167950070Y-83036340D01*
%TO.C,D6*%
X168159256Y-50167129D02*
X167293230Y-49667129D01*
X167174182Y-49873325D01*
X167143993Y-50020853D01*
X167178853Y-50150950D01*
X167237522Y-50239809D01*
X167378670Y-50376286D01*
X167502387Y-50447715D01*
X167691154Y-50501713D01*
X167797442Y-50508093D01*
X167927540Y-50473234D01*
X168040208Y-50373325D01*
X168159256Y-50167129D01*
X166578944Y-50904308D02*
X166674182Y-50739351D01*
X166763041Y-50680682D01*
X166828090Y-50663252D01*
X166999427Y-50652202D01*
X167188193Y-50706201D01*
X167518108Y-50896677D01*
X167576777Y-50985535D01*
X167594207Y-51050584D01*
X167587827Y-51156872D01*
X167492589Y-51321829D01*
X167403730Y-51380498D01*
X167338682Y-51397928D01*
X167232394Y-51391548D01*
X167026197Y-51272501D01*
X166967528Y-51183642D01*
X166950098Y-51118594D01*
X166956478Y-51012305D01*
X167051716Y-50847348D01*
X167140574Y-50788679D01*
X167205623Y-50771249D01*
X167311911Y-50777629D01*
%TO.C,D7*%
X166405709Y-95985547D02*
X167271734Y-95485547D01*
X167152687Y-95279351D01*
X167040019Y-95179442D01*
X166909921Y-95144583D01*
X166803633Y-95150962D01*
X166614866Y-95204961D01*
X166491148Y-95276390D01*
X166350000Y-95412867D01*
X166291331Y-95501726D01*
X166256472Y-95631823D01*
X166286661Y-95779351D01*
X166405709Y-95985547D01*
X166819353Y-94702000D02*
X166486020Y-94124650D01*
X165834280Y-94995804D01*
%TO.C,J19*%
X219457380Y-72025476D02*
X220171666Y-72025476D01*
X220314523Y-71977857D01*
X220409761Y-71882619D01*
X220457380Y-71739761D01*
X220457380Y-71644523D01*
X220457380Y-73025476D02*
X220457380Y-72454047D01*
X220457380Y-72739761D02*
X219457380Y-72739761D01*
X219600238Y-72644523D01*
X219695476Y-72549285D01*
X219743095Y-72454047D01*
X220457380Y-73501666D02*
X220457380Y-73692142D01*
X220409761Y-73787380D01*
X220362142Y-73835000D01*
X220219285Y-73930238D01*
X220028809Y-73977857D01*
X219647857Y-73977857D01*
X219552619Y-73930238D01*
X219505000Y-73882619D01*
X219457380Y-73787380D01*
X219457380Y-73596904D01*
X219505000Y-73501666D01*
X219552619Y-73454047D01*
X219647857Y-73406428D01*
X219885952Y-73406428D01*
X219981190Y-73454047D01*
X220028809Y-73501666D01*
X220076428Y-73596904D01*
X220076428Y-73787380D01*
X220028809Y-73882619D01*
X219981190Y-73930238D01*
X219885952Y-73977857D01*
%TO.C,SW8*%
X166333333Y-78454761D02*
X166190476Y-78502380D01*
X165952380Y-78502380D01*
X165857142Y-78454761D01*
X165809523Y-78407142D01*
X165761904Y-78311904D01*
X165761904Y-78216666D01*
X165809523Y-78121428D01*
X165857142Y-78073809D01*
X165952380Y-78026190D01*
X166142857Y-77978571D01*
X166238095Y-77930952D01*
X166285714Y-77883333D01*
X166333333Y-77788095D01*
X166333333Y-77692857D01*
X166285714Y-77597619D01*
X166238095Y-77550000D01*
X166142857Y-77502380D01*
X165904761Y-77502380D01*
X165761904Y-77550000D01*
X165428571Y-77502380D02*
X165190476Y-78502380D01*
X165000000Y-77788095D01*
X164809523Y-78502380D01*
X164571428Y-77502380D01*
X164047619Y-77930952D02*
X164142857Y-77883333D01*
X164190476Y-77835714D01*
X164238095Y-77740476D01*
X164238095Y-77692857D01*
X164190476Y-77597619D01*
X164142857Y-77550000D01*
X164047619Y-77502380D01*
X163857142Y-77502380D01*
X163761904Y-77550000D01*
X163714285Y-77597619D01*
X163666666Y-77692857D01*
X163666666Y-77740476D01*
X163714285Y-77835714D01*
X163761904Y-77883333D01*
X163857142Y-77930952D01*
X164047619Y-77930952D01*
X164142857Y-77978571D01*
X164190476Y-78026190D01*
X164238095Y-78121428D01*
X164238095Y-78311904D01*
X164190476Y-78407142D01*
X164142857Y-78454761D01*
X164047619Y-78502380D01*
X163857142Y-78502380D01*
X163761904Y-78454761D01*
X163714285Y-78407142D01*
X163666666Y-78311904D01*
X163666666Y-78121428D01*
X163714285Y-78026190D01*
X163761904Y-77978571D01*
X163857142Y-77930952D01*
%TO.C,SW7*%
X159333333Y-62454761D02*
X159190476Y-62502380D01*
X158952380Y-62502380D01*
X158857142Y-62454761D01*
X158809523Y-62407142D01*
X158761904Y-62311904D01*
X158761904Y-62216666D01*
X158809523Y-62121428D01*
X158857142Y-62073809D01*
X158952380Y-62026190D01*
X159142857Y-61978571D01*
X159238095Y-61930952D01*
X159285714Y-61883333D01*
X159333333Y-61788095D01*
X159333333Y-61692857D01*
X159285714Y-61597619D01*
X159238095Y-61550000D01*
X159142857Y-61502380D01*
X158904761Y-61502380D01*
X158761904Y-61550000D01*
X158428571Y-61502380D02*
X158190476Y-62502380D01*
X158000000Y-61788095D01*
X157809523Y-62502380D01*
X157571428Y-61502380D01*
X157285714Y-61502380D02*
X156619047Y-61502380D01*
X157047619Y-62502380D01*
%TO.C,SW6*%
X159333333Y-94454761D02*
X159190476Y-94502380D01*
X158952380Y-94502380D01*
X158857142Y-94454761D01*
X158809523Y-94407142D01*
X158761904Y-94311904D01*
X158761904Y-94216666D01*
X158809523Y-94121428D01*
X158857142Y-94073809D01*
X158952380Y-94026190D01*
X159142857Y-93978571D01*
X159238095Y-93930952D01*
X159285714Y-93883333D01*
X159333333Y-93788095D01*
X159333333Y-93692857D01*
X159285714Y-93597619D01*
X159238095Y-93550000D01*
X159142857Y-93502380D01*
X158904761Y-93502380D01*
X158761904Y-93550000D01*
X158428571Y-93502380D02*
X158190476Y-94502380D01*
X158000000Y-93788095D01*
X157809523Y-94502380D01*
X157571428Y-93502380D01*
X156761904Y-93502380D02*
X156952380Y-93502380D01*
X157047619Y-93550000D01*
X157095238Y-93597619D01*
X157190476Y-93740476D01*
X157238095Y-93930952D01*
X157238095Y-94311904D01*
X157190476Y-94407142D01*
X157142857Y-94454761D01*
X157047619Y-94502380D01*
X156857142Y-94502380D01*
X156761904Y-94454761D01*
X156714285Y-94407142D01*
X156666666Y-94311904D01*
X156666666Y-94073809D01*
X156714285Y-93978571D01*
X156761904Y-93930952D01*
X156857142Y-93883333D01*
X157047619Y-93883333D01*
X157142857Y-93930952D01*
X157190476Y-93978571D01*
X157238095Y-94073809D01*
%TO.C,SW5*%
X152333333Y-78454761D02*
X152190476Y-78502380D01*
X151952380Y-78502380D01*
X151857142Y-78454761D01*
X151809523Y-78407142D01*
X151761904Y-78311904D01*
X151761904Y-78216666D01*
X151809523Y-78121428D01*
X151857142Y-78073809D01*
X151952380Y-78026190D01*
X152142857Y-77978571D01*
X152238095Y-77930952D01*
X152285714Y-77883333D01*
X152333333Y-77788095D01*
X152333333Y-77692857D01*
X152285714Y-77597619D01*
X152238095Y-77550000D01*
X152142857Y-77502380D01*
X151904761Y-77502380D01*
X151761904Y-77550000D01*
X151428571Y-77502380D02*
X151190476Y-78502380D01*
X151000000Y-77788095D01*
X150809523Y-78502380D01*
X150571428Y-77502380D01*
X149714285Y-77502380D02*
X150190476Y-77502380D01*
X150238095Y-77978571D01*
X150190476Y-77930952D01*
X150095238Y-77883333D01*
X149857142Y-77883333D01*
X149761904Y-77930952D01*
X149714285Y-77978571D01*
X149666666Y-78073809D01*
X149666666Y-78311904D01*
X149714285Y-78407142D01*
X149761904Y-78454761D01*
X149857142Y-78502380D01*
X150095238Y-78502380D01*
X150190476Y-78454761D01*
X150238095Y-78407142D01*
%TO.C,SW4*%
X126333333Y-97454761D02*
X126190476Y-97502380D01*
X125952380Y-97502380D01*
X125857142Y-97454761D01*
X125809523Y-97407142D01*
X125761904Y-97311904D01*
X125761904Y-97216666D01*
X125809523Y-97121428D01*
X125857142Y-97073809D01*
X125952380Y-97026190D01*
X126142857Y-96978571D01*
X126238095Y-96930952D01*
X126285714Y-96883333D01*
X126333333Y-96788095D01*
X126333333Y-96692857D01*
X126285714Y-96597619D01*
X126238095Y-96550000D01*
X126142857Y-96502380D01*
X125904761Y-96502380D01*
X125761904Y-96550000D01*
X125428571Y-96502380D02*
X125190476Y-97502380D01*
X125000000Y-96788095D01*
X124809523Y-97502380D01*
X124571428Y-96502380D01*
X123761904Y-96835714D02*
X123761904Y-97502380D01*
X124000000Y-96454761D02*
X124238095Y-97169047D01*
X123619047Y-97169047D01*
%TO.C,SW3*%
X119333333Y-77454761D02*
X119190476Y-77502380D01*
X118952380Y-77502380D01*
X118857142Y-77454761D01*
X118809523Y-77407142D01*
X118761904Y-77311904D01*
X118761904Y-77216666D01*
X118809523Y-77121428D01*
X118857142Y-77073809D01*
X118952380Y-77026190D01*
X119142857Y-76978571D01*
X119238095Y-76930952D01*
X119285714Y-76883333D01*
X119333333Y-76788095D01*
X119333333Y-76692857D01*
X119285714Y-76597619D01*
X119238095Y-76550000D01*
X119142857Y-76502380D01*
X118904761Y-76502380D01*
X118761904Y-76550000D01*
X118428571Y-76502380D02*
X118190476Y-77502380D01*
X118000000Y-76788095D01*
X117809523Y-77502380D01*
X117571428Y-76502380D01*
X117285714Y-76502380D02*
X116666666Y-76502380D01*
X117000000Y-76883333D01*
X116857142Y-76883333D01*
X116761904Y-76930952D01*
X116714285Y-76978571D01*
X116666666Y-77073809D01*
X116666666Y-77311904D01*
X116714285Y-77407142D01*
X116761904Y-77454761D01*
X116857142Y-77502380D01*
X117142857Y-77502380D01*
X117238095Y-77454761D01*
X117285714Y-77407142D01*
%TO.C,SW2*%
X119333333Y-57454761D02*
X119190476Y-57502380D01*
X118952380Y-57502380D01*
X118857142Y-57454761D01*
X118809523Y-57407142D01*
X118761904Y-57311904D01*
X118761904Y-57216666D01*
X118809523Y-57121428D01*
X118857142Y-57073809D01*
X118952380Y-57026190D01*
X119142857Y-56978571D01*
X119238095Y-56930952D01*
X119285714Y-56883333D01*
X119333333Y-56788095D01*
X119333333Y-56692857D01*
X119285714Y-56597619D01*
X119238095Y-56550000D01*
X119142857Y-56502380D01*
X118904761Y-56502380D01*
X118761904Y-56550000D01*
X118428571Y-56502380D02*
X118190476Y-57502380D01*
X118000000Y-56788095D01*
X117809523Y-57502380D01*
X117571428Y-56502380D01*
X117238095Y-56597619D02*
X117190476Y-56550000D01*
X117095238Y-56502380D01*
X116857142Y-56502380D01*
X116761904Y-56550000D01*
X116714285Y-56597619D01*
X116666666Y-56692857D01*
X116666666Y-56788095D01*
X116714285Y-56930952D01*
X117285714Y-57502380D01*
X116666666Y-57502380D01*
%TO.C,SW1*%
X112333333Y-97454761D02*
X112190476Y-97502380D01*
X111952380Y-97502380D01*
X111857142Y-97454761D01*
X111809523Y-97407142D01*
X111761904Y-97311904D01*
X111761904Y-97216666D01*
X111809523Y-97121428D01*
X111857142Y-97073809D01*
X111952380Y-97026190D01*
X112142857Y-96978571D01*
X112238095Y-96930952D01*
X112285714Y-96883333D01*
X112333333Y-96788095D01*
X112333333Y-96692857D01*
X112285714Y-96597619D01*
X112238095Y-96550000D01*
X112142857Y-96502380D01*
X111904761Y-96502380D01*
X111761904Y-96550000D01*
X111428571Y-96502380D02*
X111190476Y-97502380D01*
X111000000Y-96788095D01*
X110809523Y-97502380D01*
X110571428Y-96502380D01*
X109666666Y-97502380D02*
X110238095Y-97502380D01*
X109952380Y-97502380D02*
X109952380Y-96502380D01*
X110047619Y-96645238D01*
X110142857Y-96740476D01*
X110238095Y-96788095D01*
%TO.C,J2*%
X202833333Y-60392380D02*
X202833333Y-61106666D01*
X202880952Y-61249523D01*
X202976190Y-61344761D01*
X203119047Y-61392380D01*
X203214285Y-61392380D01*
X202404761Y-60487619D02*
X202357142Y-60440000D01*
X202261904Y-60392380D01*
X202023809Y-60392380D01*
X201928571Y-60440000D01*
X201880952Y-60487619D01*
X201833333Y-60582857D01*
X201833333Y-60678095D01*
X201880952Y-60820952D01*
X202452380Y-61392380D01*
X201833333Y-61392380D01*
%TO.C,C2*%
X226957142Y-80933333D02*
X227004761Y-80885714D01*
X227052380Y-80742857D01*
X227052380Y-80647619D01*
X227004761Y-80504761D01*
X226909523Y-80409523D01*
X226814285Y-80361904D01*
X226623809Y-80314285D01*
X226480952Y-80314285D01*
X226290476Y-80361904D01*
X226195238Y-80409523D01*
X226100000Y-80504761D01*
X226052380Y-80647619D01*
X226052380Y-80742857D01*
X226100000Y-80885714D01*
X226147619Y-80933333D01*
X226147619Y-81314285D02*
X226100000Y-81361904D01*
X226052380Y-81457142D01*
X226052380Y-81695238D01*
X226100000Y-81790476D01*
X226147619Y-81838095D01*
X226242857Y-81885714D01*
X226338095Y-81885714D01*
X226480952Y-81838095D01*
X227052380Y-81266666D01*
X227052380Y-81885714D01*
%TO.C,C1*%
X219357142Y-80833333D02*
X219404761Y-80785714D01*
X219452380Y-80642857D01*
X219452380Y-80547619D01*
X219404761Y-80404761D01*
X219309523Y-80309523D01*
X219214285Y-80261904D01*
X219023809Y-80214285D01*
X218880952Y-80214285D01*
X218690476Y-80261904D01*
X218595238Y-80309523D01*
X218500000Y-80404761D01*
X218452380Y-80547619D01*
X218452380Y-80642857D01*
X218500000Y-80785714D01*
X218547619Y-80833333D01*
X219452380Y-81785714D02*
X219452380Y-81214285D01*
X219452380Y-81500000D02*
X218452380Y-81500000D01*
X218595238Y-81404761D01*
X218690476Y-81309523D01*
X218738095Y-81214285D01*
%TD*%
M02*
