%TF.GenerationSoftware,KiCad,Pcbnew,(5.0.0-3-g5ebb6b6)*%
%TF.CreationDate,2018-07-24T23:49:47-07:00*%
%TF.ProjectId,pyoven,70796F76656E2E6B696361645F706362,rev?*%
%TF.SameCoordinates,Original*%
%TF.FileFunction,Soldermask,Bot*%
%TF.FilePolarity,Negative*%
%FSLAX46Y46*%
G04 Gerber Fmt 4.6, Leading zero omitted, Abs format (unit mm)*
G04 Created by KiCad (PCBNEW (5.0.0-3-g5ebb6b6)) date Tuesday, July 24, 2018 at 11:49:47 PM*
%MOMM*%
%LPD*%
G01*
G04 APERTURE LIST*
%ADD10C,0.010000*%
%ADD11C,6.501600*%
%ADD12C,0.731600*%
%ADD13C,1.651600*%
%ADD14R,1.901600X0.371600*%
%ADD15R,0.851600X0.901600*%
%ADD16R,0.901600X0.601600*%
%ADD17R,0.901600X0.401600*%
%ADD18R,1.001600X0.601600*%
%ADD19R,0.601600X1.001600*%
%ADD20R,1.301600X1.001600*%
%ADD21R,1.001600X1.301600*%
%ADD22R,1.801600X1.801600*%
%ADD23R,1.651600X1.401600*%
%ADD24O,1.801600X1.801600*%
%ADD25C,1.901600*%
%ADD26C,0.100000*%
%ADD27O,1.101600X1.101600*%
%ADD28R,1.101600X1.101600*%
%ADD29C,3.301600*%
%ADD30C,2.601600*%
%ADD31O,1.451600X1.451600*%
%ADD32R,1.451600X1.451600*%
G04 APERTURE END LIST*
D10*
%TO.C,G\002A\002A\002A*%
G36*
X244276897Y-67358969D02*
X244275122Y-67321134D01*
X244272050Y-67285237D01*
X244267549Y-67249588D01*
X244261488Y-67212501D01*
X244256774Y-67187463D01*
X244249127Y-67150495D01*
X244240944Y-67115230D01*
X244231892Y-67080622D01*
X244221636Y-67045624D01*
X244209844Y-67009191D01*
X244196182Y-66970278D01*
X244180316Y-66927839D01*
X244161912Y-66880827D01*
X244147594Y-66845263D01*
X244128195Y-66798042D01*
X244108057Y-66750102D01*
X244086989Y-66701041D01*
X244064801Y-66650453D01*
X244041305Y-66597934D01*
X244016311Y-66543079D01*
X243989628Y-66485486D01*
X243961068Y-66424749D01*
X243930441Y-66360464D01*
X243897558Y-66292227D01*
X243862228Y-66219635D01*
X243824263Y-66142281D01*
X243783472Y-66059764D01*
X243739667Y-65971677D01*
X243710823Y-65913915D01*
X243670036Y-65832201D01*
X243632302Y-65756268D01*
X243597404Y-65685642D01*
X243565125Y-65619851D01*
X243535248Y-65558423D01*
X243507556Y-65500885D01*
X243481833Y-65446765D01*
X243457862Y-65395591D01*
X243435425Y-65346889D01*
X243414305Y-65300189D01*
X243394286Y-65255018D01*
X243375152Y-65210903D01*
X243356684Y-65167371D01*
X243338666Y-65123951D01*
X243320881Y-65080171D01*
X243303112Y-65035557D01*
X243285143Y-64989637D01*
X243278491Y-64972458D01*
X243269207Y-64948476D01*
X243260545Y-64926212D01*
X243252891Y-64906652D01*
X243246634Y-64890781D01*
X243242160Y-64879586D01*
X243239930Y-64874216D01*
X243235427Y-64864168D01*
X243216151Y-64879302D01*
X243202098Y-64891111D01*
X243184518Y-64907080D01*
X243164551Y-64926079D01*
X243143337Y-64946977D01*
X243122014Y-64968643D01*
X243101723Y-64989945D01*
X243083603Y-65009754D01*
X243076080Y-65018319D01*
X243014961Y-65093898D01*
X242956762Y-65175648D01*
X242901625Y-65263253D01*
X242849694Y-65356399D01*
X242801114Y-65454769D01*
X242756027Y-65558048D01*
X242714578Y-65665921D01*
X242676909Y-65778072D01*
X242643165Y-65894186D01*
X242613490Y-66013946D01*
X242604719Y-66053722D01*
X242592433Y-66112747D01*
X242581987Y-66166586D01*
X242573123Y-66216795D01*
X242565587Y-66264926D01*
X242559123Y-66312531D01*
X242553474Y-66361165D01*
X242552412Y-66371222D01*
X242550815Y-66391268D01*
X242549562Y-66416488D01*
X242548652Y-66445561D01*
X242548087Y-66477167D01*
X242547866Y-66509986D01*
X242547989Y-66542697D01*
X242548457Y-66573980D01*
X242549270Y-66602515D01*
X242550428Y-66626981D01*
X242551931Y-66646059D01*
X242552371Y-66649917D01*
X242563641Y-66720413D01*
X242579223Y-66785332D01*
X242599125Y-66844686D01*
X242623358Y-66898489D01*
X242651929Y-66946754D01*
X242684848Y-66989494D01*
X242722125Y-67026725D01*
X242763767Y-67058458D01*
X242809784Y-67084708D01*
X242856444Y-67104186D01*
X242884664Y-67113436D01*
X242910210Y-67120050D01*
X242935330Y-67124389D01*
X242962274Y-67126811D01*
X242993290Y-67127677D01*
X243003310Y-67127689D01*
X243060217Y-67127494D01*
X243062570Y-67150459D01*
X243064922Y-67173423D01*
X243030990Y-67223181D01*
X242981641Y-67222739D01*
X242923410Y-67218754D01*
X242866659Y-67207973D01*
X242811805Y-67190573D01*
X242759268Y-67166733D01*
X242709464Y-67136631D01*
X242662812Y-67100446D01*
X242635845Y-67075226D01*
X242599000Y-67034590D01*
X242566629Y-66990860D01*
X242538509Y-66943528D01*
X242514416Y-66892089D01*
X242494127Y-66836034D01*
X242477416Y-66774857D01*
X242464062Y-66708052D01*
X242458887Y-66674611D01*
X242456611Y-66653545D01*
X242454815Y-66626697D01*
X242453500Y-66595325D01*
X242452666Y-66560685D01*
X242452312Y-66524034D01*
X242452438Y-66486631D01*
X242453044Y-66449731D01*
X242454130Y-66414593D01*
X242455697Y-66382474D01*
X242457743Y-66354630D01*
X242458912Y-66343000D01*
X242474085Y-66228753D01*
X242493945Y-66113621D01*
X242518230Y-65998476D01*
X242546679Y-65884191D01*
X242579031Y-65771641D01*
X242615025Y-65661697D01*
X242654400Y-65555234D01*
X242696894Y-65453124D01*
X242742246Y-65356240D01*
X242770502Y-65301392D01*
X242817249Y-65218282D01*
X242866369Y-65139342D01*
X242917513Y-65065019D01*
X242970332Y-64995759D01*
X243024478Y-64932007D01*
X243079603Y-64874209D01*
X243135357Y-64822812D01*
X243161520Y-64801120D01*
X243179428Y-64786411D01*
X243191741Y-64775353D01*
X243198733Y-64767679D01*
X243200678Y-64763122D01*
X243200627Y-64762894D01*
X243196988Y-64748318D01*
X243192861Y-64727871D01*
X243188412Y-64702704D01*
X243183807Y-64673971D01*
X243179213Y-64642826D01*
X243174796Y-64610421D01*
X243170724Y-64577909D01*
X243167163Y-64546444D01*
X243164280Y-64517179D01*
X243163107Y-64503264D01*
X243161370Y-64473004D01*
X243160689Y-64439491D01*
X243161091Y-64402279D01*
X243162602Y-64360925D01*
X243165250Y-64314983D01*
X243169062Y-64264009D01*
X243174063Y-64207559D01*
X243180281Y-64145188D01*
X243187744Y-64076452D01*
X243190147Y-64055236D01*
X243201961Y-63957304D01*
X243215747Y-63852890D01*
X243231456Y-63742274D01*
X243249038Y-63625733D01*
X243268441Y-63503546D01*
X243289614Y-63375989D01*
X243312508Y-63243343D01*
X243337072Y-63105883D01*
X243363254Y-62963890D01*
X243391005Y-62817640D01*
X243420273Y-62667412D01*
X243451009Y-62513483D01*
X243483160Y-62356133D01*
X243516678Y-62195639D01*
X243551511Y-62032279D01*
X243587608Y-61866331D01*
X243593834Y-61838028D01*
X243600732Y-61806495D01*
X243607213Y-61776427D01*
X243613101Y-61748674D01*
X243618220Y-61724087D01*
X243622393Y-61703516D01*
X243625444Y-61687814D01*
X243627196Y-61677830D01*
X243627480Y-61675750D01*
X243627397Y-61648371D01*
X243621802Y-61619403D01*
X243611360Y-61590663D01*
X243596737Y-61563968D01*
X243578600Y-61541137D01*
X243577903Y-61540423D01*
X243565542Y-61529666D01*
X243547416Y-61516441D01*
X243524218Y-61501127D01*
X243496638Y-61484102D01*
X243465367Y-61465747D01*
X243431098Y-61446438D01*
X243394521Y-61426556D01*
X243356329Y-61406479D01*
X243317211Y-61386585D01*
X243277861Y-61367253D01*
X243238969Y-61348863D01*
X243201226Y-61331792D01*
X243181112Y-61323062D01*
X243112172Y-61295582D01*
X243047247Y-61273705D01*
X242986369Y-61257436D01*
X242929572Y-61246780D01*
X242876888Y-61241742D01*
X242828350Y-61242326D01*
X242783992Y-61248538D01*
X242745645Y-61259697D01*
X242725383Y-61269279D01*
X242703470Y-61282842D01*
X242682372Y-61298641D01*
X242664559Y-61314928D01*
X242659140Y-61320911D01*
X242647229Y-61336300D01*
X242636713Y-61352919D01*
X242627482Y-61371311D01*
X242619426Y-61392022D01*
X242612435Y-61415594D01*
X242606398Y-61442573D01*
X242601206Y-61473502D01*
X242596748Y-61508926D01*
X242592914Y-61549388D01*
X242589595Y-61595433D01*
X242586679Y-61647604D01*
X242584818Y-61688097D01*
X242584039Y-61707868D01*
X242583124Y-61733696D01*
X242582103Y-61764584D01*
X242581006Y-61799536D01*
X242579863Y-61837554D01*
X242578706Y-61877643D01*
X242577563Y-61918805D01*
X242576466Y-61960044D01*
X242575930Y-61980903D01*
X242573135Y-62086868D01*
X242570272Y-62186377D01*
X242567312Y-62280029D01*
X242564226Y-62368424D01*
X242560984Y-62452160D01*
X242557556Y-62531838D01*
X242553914Y-62608056D01*
X242550028Y-62681413D01*
X242545868Y-62752509D01*
X242541405Y-62821944D01*
X242536610Y-62890317D01*
X242531452Y-62958226D01*
X242525904Y-63026271D01*
X242522832Y-63062167D01*
X242508516Y-63214575D01*
X242492499Y-63361084D01*
X242474574Y-63502686D01*
X242454538Y-63640371D01*
X242432187Y-63775131D01*
X242407314Y-63907958D01*
X242379717Y-64039844D01*
X242349189Y-64171779D01*
X242315527Y-64304756D01*
X242278526Y-64439766D01*
X242237982Y-64577801D01*
X242193689Y-64719851D01*
X242158484Y-64827819D01*
X242139585Y-64884471D01*
X242121819Y-64936899D01*
X242104921Y-64985676D01*
X242088623Y-65031373D01*
X242072660Y-65074563D01*
X242056765Y-65115816D01*
X242040673Y-65155705D01*
X242024116Y-65194801D01*
X242006830Y-65233675D01*
X241988548Y-65272901D01*
X241969003Y-65313048D01*
X241947929Y-65354690D01*
X241925061Y-65398398D01*
X241900131Y-65444743D01*
X241872875Y-65494297D01*
X241843025Y-65547632D01*
X241810316Y-65605320D01*
X241774481Y-65667932D01*
X241737185Y-65732694D01*
X241708257Y-65782887D01*
X241682550Y-65827657D01*
X241659702Y-65867661D01*
X241639352Y-65903555D01*
X241621137Y-65935994D01*
X241604697Y-65965635D01*
X241589670Y-65993134D01*
X241575693Y-66019147D01*
X241562406Y-66044330D01*
X241549446Y-66069338D01*
X241536451Y-66094828D01*
X241525180Y-66117222D01*
X241493259Y-66182539D01*
X241465298Y-66243326D01*
X241440936Y-66300631D01*
X241419812Y-66355499D01*
X241401564Y-66408978D01*
X241385831Y-66462115D01*
X241372252Y-66515957D01*
X241360463Y-66571551D01*
X241351906Y-66619025D01*
X241342525Y-66678301D01*
X241335151Y-66732886D01*
X241329623Y-66784804D01*
X241325777Y-66836074D01*
X241323450Y-66888721D01*
X241322478Y-66944766D01*
X241322491Y-66983292D01*
X241322691Y-67009880D01*
X241322949Y-67034924D01*
X241323249Y-67057330D01*
X241323574Y-67076003D01*
X241323908Y-67089851D01*
X241324233Y-67097777D01*
X241324245Y-67097944D01*
X241333260Y-67188991D01*
X241346904Y-67278800D01*
X241364958Y-67366515D01*
X241387202Y-67451282D01*
X241413417Y-67532244D01*
X241443381Y-67608545D01*
X241470183Y-67666209D01*
X241517081Y-67752043D01*
X241570623Y-67835670D01*
X241630727Y-67917012D01*
X241697310Y-67995994D01*
X241770292Y-68072539D01*
X241849589Y-68146571D01*
X241935121Y-68218015D01*
X242026804Y-68286793D01*
X242124558Y-68352829D01*
X242228299Y-68416048D01*
X242337947Y-68476373D01*
X242346254Y-68480700D01*
X242421266Y-68517707D01*
X242499011Y-68552221D01*
X242580420Y-68584600D01*
X242666426Y-68615202D01*
X242757961Y-68644388D01*
X242814242Y-68660890D01*
X242840831Y-68668457D01*
X242939956Y-68914194D01*
X242955931Y-68953671D01*
X242971209Y-68991187D01*
X242985578Y-69026234D01*
X242998827Y-69058306D01*
X243010743Y-69086898D01*
X243021113Y-69111502D01*
X243029726Y-69131612D01*
X243036370Y-69146722D01*
X243040832Y-69156326D01*
X243042899Y-69159917D01*
X243042945Y-69159931D01*
X243045822Y-69157356D01*
X243053035Y-69149885D01*
X243064238Y-69137902D01*
X243079083Y-69121787D01*
X243097224Y-69101922D01*
X243118314Y-69078690D01*
X243142006Y-69052471D01*
X243167952Y-69023649D01*
X243195807Y-68992605D01*
X243225222Y-68959720D01*
X243248034Y-68934153D01*
X243449259Y-68708375D01*
X243488978Y-68693997D01*
X243559052Y-68665662D01*
X243625955Y-68632414D01*
X243690293Y-68593848D01*
X243752676Y-68549555D01*
X243813713Y-68499130D01*
X243874010Y-68442165D01*
X243890083Y-68425776D01*
X243950261Y-68358462D01*
X244005941Y-68285870D01*
X244056990Y-68208266D01*
X244103278Y-68125914D01*
X244144670Y-68039079D01*
X244181036Y-67948026D01*
X244212242Y-67853021D01*
X244238158Y-67754329D01*
X244248166Y-67708250D01*
X244256803Y-67663853D01*
X244263573Y-67624131D01*
X244268705Y-67587021D01*
X244272428Y-67550460D01*
X244274971Y-67512386D01*
X244276561Y-67470735D01*
X244277084Y-67447194D01*
X244277507Y-67400426D01*
X244276897Y-67358969D01*
X244276897Y-67358969D01*
G37*
X244276897Y-67358969D02*
X244275122Y-67321134D01*
X244272050Y-67285237D01*
X244267549Y-67249588D01*
X244261488Y-67212501D01*
X244256774Y-67187463D01*
X244249127Y-67150495D01*
X244240944Y-67115230D01*
X244231892Y-67080622D01*
X244221636Y-67045624D01*
X244209844Y-67009191D01*
X244196182Y-66970278D01*
X244180316Y-66927839D01*
X244161912Y-66880827D01*
X244147594Y-66845263D01*
X244128195Y-66798042D01*
X244108057Y-66750102D01*
X244086989Y-66701041D01*
X244064801Y-66650453D01*
X244041305Y-66597934D01*
X244016311Y-66543079D01*
X243989628Y-66485486D01*
X243961068Y-66424749D01*
X243930441Y-66360464D01*
X243897558Y-66292227D01*
X243862228Y-66219635D01*
X243824263Y-66142281D01*
X243783472Y-66059764D01*
X243739667Y-65971677D01*
X243710823Y-65913915D01*
X243670036Y-65832201D01*
X243632302Y-65756268D01*
X243597404Y-65685642D01*
X243565125Y-65619851D01*
X243535248Y-65558423D01*
X243507556Y-65500885D01*
X243481833Y-65446765D01*
X243457862Y-65395591D01*
X243435425Y-65346889D01*
X243414305Y-65300189D01*
X243394286Y-65255018D01*
X243375152Y-65210903D01*
X243356684Y-65167371D01*
X243338666Y-65123951D01*
X243320881Y-65080171D01*
X243303112Y-65035557D01*
X243285143Y-64989637D01*
X243278491Y-64972458D01*
X243269207Y-64948476D01*
X243260545Y-64926212D01*
X243252891Y-64906652D01*
X243246634Y-64890781D01*
X243242160Y-64879586D01*
X243239930Y-64874216D01*
X243235427Y-64864168D01*
X243216151Y-64879302D01*
X243202098Y-64891111D01*
X243184518Y-64907080D01*
X243164551Y-64926079D01*
X243143337Y-64946977D01*
X243122014Y-64968643D01*
X243101723Y-64989945D01*
X243083603Y-65009754D01*
X243076080Y-65018319D01*
X243014961Y-65093898D01*
X242956762Y-65175648D01*
X242901625Y-65263253D01*
X242849694Y-65356399D01*
X242801114Y-65454769D01*
X242756027Y-65558048D01*
X242714578Y-65665921D01*
X242676909Y-65778072D01*
X242643165Y-65894186D01*
X242613490Y-66013946D01*
X242604719Y-66053722D01*
X242592433Y-66112747D01*
X242581987Y-66166586D01*
X242573123Y-66216795D01*
X242565587Y-66264926D01*
X242559123Y-66312531D01*
X242553474Y-66361165D01*
X242552412Y-66371222D01*
X242550815Y-66391268D01*
X242549562Y-66416488D01*
X242548652Y-66445561D01*
X242548087Y-66477167D01*
X242547866Y-66509986D01*
X242547989Y-66542697D01*
X242548457Y-66573980D01*
X242549270Y-66602515D01*
X242550428Y-66626981D01*
X242551931Y-66646059D01*
X242552371Y-66649917D01*
X242563641Y-66720413D01*
X242579223Y-66785332D01*
X242599125Y-66844686D01*
X242623358Y-66898489D01*
X242651929Y-66946754D01*
X242684848Y-66989494D01*
X242722125Y-67026725D01*
X242763767Y-67058458D01*
X242809784Y-67084708D01*
X242856444Y-67104186D01*
X242884664Y-67113436D01*
X242910210Y-67120050D01*
X242935330Y-67124389D01*
X242962274Y-67126811D01*
X242993290Y-67127677D01*
X243003310Y-67127689D01*
X243060217Y-67127494D01*
X243062570Y-67150459D01*
X243064922Y-67173423D01*
X243030990Y-67223181D01*
X242981641Y-67222739D01*
X242923410Y-67218754D01*
X242866659Y-67207973D01*
X242811805Y-67190573D01*
X242759268Y-67166733D01*
X242709464Y-67136631D01*
X242662812Y-67100446D01*
X242635845Y-67075226D01*
X242599000Y-67034590D01*
X242566629Y-66990860D01*
X242538509Y-66943528D01*
X242514416Y-66892089D01*
X242494127Y-66836034D01*
X242477416Y-66774857D01*
X242464062Y-66708052D01*
X242458887Y-66674611D01*
X242456611Y-66653545D01*
X242454815Y-66626697D01*
X242453500Y-66595325D01*
X242452666Y-66560685D01*
X242452312Y-66524034D01*
X242452438Y-66486631D01*
X242453044Y-66449731D01*
X242454130Y-66414593D01*
X242455697Y-66382474D01*
X242457743Y-66354630D01*
X242458912Y-66343000D01*
X242474085Y-66228753D01*
X242493945Y-66113621D01*
X242518230Y-65998476D01*
X242546679Y-65884191D01*
X242579031Y-65771641D01*
X242615025Y-65661697D01*
X242654400Y-65555234D01*
X242696894Y-65453124D01*
X242742246Y-65356240D01*
X242770502Y-65301392D01*
X242817249Y-65218282D01*
X242866369Y-65139342D01*
X242917513Y-65065019D01*
X242970332Y-64995759D01*
X243024478Y-64932007D01*
X243079603Y-64874209D01*
X243135357Y-64822812D01*
X243161520Y-64801120D01*
X243179428Y-64786411D01*
X243191741Y-64775353D01*
X243198733Y-64767679D01*
X243200678Y-64763122D01*
X243200627Y-64762894D01*
X243196988Y-64748318D01*
X243192861Y-64727871D01*
X243188412Y-64702704D01*
X243183807Y-64673971D01*
X243179213Y-64642826D01*
X243174796Y-64610421D01*
X243170724Y-64577909D01*
X243167163Y-64546444D01*
X243164280Y-64517179D01*
X243163107Y-64503264D01*
X243161370Y-64473004D01*
X243160689Y-64439491D01*
X243161091Y-64402279D01*
X243162602Y-64360925D01*
X243165250Y-64314983D01*
X243169062Y-64264009D01*
X243174063Y-64207559D01*
X243180281Y-64145188D01*
X243187744Y-64076452D01*
X243190147Y-64055236D01*
X243201961Y-63957304D01*
X243215747Y-63852890D01*
X243231456Y-63742274D01*
X243249038Y-63625733D01*
X243268441Y-63503546D01*
X243289614Y-63375989D01*
X243312508Y-63243343D01*
X243337072Y-63105883D01*
X243363254Y-62963890D01*
X243391005Y-62817640D01*
X243420273Y-62667412D01*
X243451009Y-62513483D01*
X243483160Y-62356133D01*
X243516678Y-62195639D01*
X243551511Y-62032279D01*
X243587608Y-61866331D01*
X243593834Y-61838028D01*
X243600732Y-61806495D01*
X243607213Y-61776427D01*
X243613101Y-61748674D01*
X243618220Y-61724087D01*
X243622393Y-61703516D01*
X243625444Y-61687814D01*
X243627196Y-61677830D01*
X243627480Y-61675750D01*
X243627397Y-61648371D01*
X243621802Y-61619403D01*
X243611360Y-61590663D01*
X243596737Y-61563968D01*
X243578600Y-61541137D01*
X243577903Y-61540423D01*
X243565542Y-61529666D01*
X243547416Y-61516441D01*
X243524218Y-61501127D01*
X243496638Y-61484102D01*
X243465367Y-61465747D01*
X243431098Y-61446438D01*
X243394521Y-61426556D01*
X243356329Y-61406479D01*
X243317211Y-61386585D01*
X243277861Y-61367253D01*
X243238969Y-61348863D01*
X243201226Y-61331792D01*
X243181112Y-61323062D01*
X243112172Y-61295582D01*
X243047247Y-61273705D01*
X242986369Y-61257436D01*
X242929572Y-61246780D01*
X242876888Y-61241742D01*
X242828350Y-61242326D01*
X242783992Y-61248538D01*
X242745645Y-61259697D01*
X242725383Y-61269279D01*
X242703470Y-61282842D01*
X242682372Y-61298641D01*
X242664559Y-61314928D01*
X242659140Y-61320911D01*
X242647229Y-61336300D01*
X242636713Y-61352919D01*
X242627482Y-61371311D01*
X242619426Y-61392022D01*
X242612435Y-61415594D01*
X242606398Y-61442573D01*
X242601206Y-61473502D01*
X242596748Y-61508926D01*
X242592914Y-61549388D01*
X242589595Y-61595433D01*
X242586679Y-61647604D01*
X242584818Y-61688097D01*
X242584039Y-61707868D01*
X242583124Y-61733696D01*
X242582103Y-61764584D01*
X242581006Y-61799536D01*
X242579863Y-61837554D01*
X242578706Y-61877643D01*
X242577563Y-61918805D01*
X242576466Y-61960044D01*
X242575930Y-61980903D01*
X242573135Y-62086868D01*
X242570272Y-62186377D01*
X242567312Y-62280029D01*
X242564226Y-62368424D01*
X242560984Y-62452160D01*
X242557556Y-62531838D01*
X242553914Y-62608056D01*
X242550028Y-62681413D01*
X242545868Y-62752509D01*
X242541405Y-62821944D01*
X242536610Y-62890317D01*
X242531452Y-62958226D01*
X242525904Y-63026271D01*
X242522832Y-63062167D01*
X242508516Y-63214575D01*
X242492499Y-63361084D01*
X242474574Y-63502686D01*
X242454538Y-63640371D01*
X242432187Y-63775131D01*
X242407314Y-63907958D01*
X242379717Y-64039844D01*
X242349189Y-64171779D01*
X242315527Y-64304756D01*
X242278526Y-64439766D01*
X242237982Y-64577801D01*
X242193689Y-64719851D01*
X242158484Y-64827819D01*
X242139585Y-64884471D01*
X242121819Y-64936899D01*
X242104921Y-64985676D01*
X242088623Y-65031373D01*
X242072660Y-65074563D01*
X242056765Y-65115816D01*
X242040673Y-65155705D01*
X242024116Y-65194801D01*
X242006830Y-65233675D01*
X241988548Y-65272901D01*
X241969003Y-65313048D01*
X241947929Y-65354690D01*
X241925061Y-65398398D01*
X241900131Y-65444743D01*
X241872875Y-65494297D01*
X241843025Y-65547632D01*
X241810316Y-65605320D01*
X241774481Y-65667932D01*
X241737185Y-65732694D01*
X241708257Y-65782887D01*
X241682550Y-65827657D01*
X241659702Y-65867661D01*
X241639352Y-65903555D01*
X241621137Y-65935994D01*
X241604697Y-65965635D01*
X241589670Y-65993134D01*
X241575693Y-66019147D01*
X241562406Y-66044330D01*
X241549446Y-66069338D01*
X241536451Y-66094828D01*
X241525180Y-66117222D01*
X241493259Y-66182539D01*
X241465298Y-66243326D01*
X241440936Y-66300631D01*
X241419812Y-66355499D01*
X241401564Y-66408978D01*
X241385831Y-66462115D01*
X241372252Y-66515957D01*
X241360463Y-66571551D01*
X241351906Y-66619025D01*
X241342525Y-66678301D01*
X241335151Y-66732886D01*
X241329623Y-66784804D01*
X241325777Y-66836074D01*
X241323450Y-66888721D01*
X241322478Y-66944766D01*
X241322491Y-66983292D01*
X241322691Y-67009880D01*
X241322949Y-67034924D01*
X241323249Y-67057330D01*
X241323574Y-67076003D01*
X241323908Y-67089851D01*
X241324233Y-67097777D01*
X241324245Y-67097944D01*
X241333260Y-67188991D01*
X241346904Y-67278800D01*
X241364958Y-67366515D01*
X241387202Y-67451282D01*
X241413417Y-67532244D01*
X241443381Y-67608545D01*
X241470183Y-67666209D01*
X241517081Y-67752043D01*
X241570623Y-67835670D01*
X241630727Y-67917012D01*
X241697310Y-67995994D01*
X241770292Y-68072539D01*
X241849589Y-68146571D01*
X241935121Y-68218015D01*
X242026804Y-68286793D01*
X242124558Y-68352829D01*
X242228299Y-68416048D01*
X242337947Y-68476373D01*
X242346254Y-68480700D01*
X242421266Y-68517707D01*
X242499011Y-68552221D01*
X242580420Y-68584600D01*
X242666426Y-68615202D01*
X242757961Y-68644388D01*
X242814242Y-68660890D01*
X242840831Y-68668457D01*
X242939956Y-68914194D01*
X242955931Y-68953671D01*
X242971209Y-68991187D01*
X242985578Y-69026234D01*
X242998827Y-69058306D01*
X243010743Y-69086898D01*
X243021113Y-69111502D01*
X243029726Y-69131612D01*
X243036370Y-69146722D01*
X243040832Y-69156326D01*
X243042899Y-69159917D01*
X243042945Y-69159931D01*
X243045822Y-69157356D01*
X243053035Y-69149885D01*
X243064238Y-69137902D01*
X243079083Y-69121787D01*
X243097224Y-69101922D01*
X243118314Y-69078690D01*
X243142006Y-69052471D01*
X243167952Y-69023649D01*
X243195807Y-68992605D01*
X243225222Y-68959720D01*
X243248034Y-68934153D01*
X243449259Y-68708375D01*
X243488978Y-68693997D01*
X243559052Y-68665662D01*
X243625955Y-68632414D01*
X243690293Y-68593848D01*
X243752676Y-68549555D01*
X243813713Y-68499130D01*
X243874010Y-68442165D01*
X243890083Y-68425776D01*
X243950261Y-68358462D01*
X244005941Y-68285870D01*
X244056990Y-68208266D01*
X244103278Y-68125914D01*
X244144670Y-68039079D01*
X244181036Y-67948026D01*
X244212242Y-67853021D01*
X244238158Y-67754329D01*
X244248166Y-67708250D01*
X244256803Y-67663853D01*
X244263573Y-67624131D01*
X244268705Y-67587021D01*
X244272428Y-67550460D01*
X244274971Y-67512386D01*
X244276561Y-67470735D01*
X244277084Y-67447194D01*
X244277507Y-67400426D01*
X244276897Y-67358969D01*
%TD*%
D11*
%TO.C,J13*%
X110000000Y-58000000D03*
%TD*%
%TO.C,J10*%
X214000000Y-90000000D03*
%TD*%
D12*
%TO.C,J1*%
X235300000Y-76100000D03*
X235300000Y-65100000D03*
D13*
X235470000Y-74700000D03*
X232530000Y-74700000D03*
X235470000Y-66500000D03*
X232530000Y-66500000D03*
D14*
X236000000Y-73350000D03*
X236000000Y-72850000D03*
X236000000Y-72350000D03*
X236000000Y-71850000D03*
X236000000Y-71350000D03*
X236000000Y-70850000D03*
X236000000Y-70350000D03*
X236000000Y-69850000D03*
X236000000Y-69350000D03*
X236000000Y-68850000D03*
X236000000Y-68350000D03*
X236000000Y-67850000D03*
X232000000Y-67850000D03*
X232000000Y-68350000D03*
X232000000Y-68850000D03*
X232000000Y-69350000D03*
X232000000Y-69850000D03*
X232000000Y-70350000D03*
X232000000Y-70850000D03*
X232000000Y-71350000D03*
X232000000Y-71850000D03*
X232000000Y-72350000D03*
X232000000Y-72850000D03*
X232000000Y-73350000D03*
%TD*%
D15*
%TO.C,C18*%
X226600000Y-81750000D03*
X226600000Y-80250000D03*
%TD*%
D16*
%TO.C,LED2*%
X118850000Y-80900000D03*
D17*
X118850000Y-80000000D03*
D16*
X118850000Y-79100000D03*
X117150000Y-79100000D03*
D17*
X117150000Y-80000000D03*
D16*
X117150000Y-80900000D03*
%TD*%
%TO.C,LED1*%
X118850000Y-64900000D03*
D17*
X118850000Y-64000000D03*
D16*
X118850000Y-63100000D03*
X117150000Y-63100000D03*
D17*
X117150000Y-64000000D03*
D16*
X117150000Y-64900000D03*
%TD*%
D18*
%TO.C,R21*%
X230100000Y-68850000D03*
X230100000Y-67350000D03*
%TD*%
D19*
%TO.C,R22*%
X239550000Y-71400000D03*
X238050000Y-71400000D03*
%TD*%
D20*
%TO.C,D3*%
X222700000Y-79550000D03*
X222700000Y-82850000D03*
%TD*%
D21*
%TO.C,D4*%
X222850000Y-77600000D03*
X226150000Y-77600000D03*
%TD*%
%TO.C,D9*%
X231400000Y-77600000D03*
X231400000Y-79800000D03*
%TD*%
%TO.C,D10*%
X233900000Y-79800000D03*
X233900000Y-77600000D03*
%TD*%
%TO.C,D11*%
X236400000Y-77600000D03*
X236400000Y-79800000D03*
%TD*%
%TO.C,D12*%
X238900000Y-79800000D03*
X238900000Y-77600000D03*
%TD*%
D22*
%TO.C,J17*%
X217400000Y-74700000D03*
%TD*%
D20*
%TO.C,R23*%
X234600000Y-61400000D03*
X236800000Y-61400000D03*
%TD*%
%TO.C,R24*%
X240900000Y-61400000D03*
X238700000Y-61400000D03*
%TD*%
D23*
%TO.C,SW9*%
X220220000Y-68850000D03*
X220220000Y-64350000D03*
X228180000Y-64350000D03*
X228180000Y-68850000D03*
%TD*%
D24*
%TO.C,J3*%
X246000000Y-80780000D03*
X246000000Y-78240000D03*
X246000000Y-75700000D03*
X246000000Y-73160000D03*
X246000000Y-70620000D03*
X246000000Y-68080000D03*
X246000000Y-65540000D03*
D22*
X246000000Y-63000000D03*
%TD*%
D25*
%TO.C,D2*%
X164500000Y-66300000D03*
D26*
G36*
X165601460Y-67071251D02*
X163728749Y-67401460D01*
X163398540Y-65528749D01*
X165271251Y-65198540D01*
X165601460Y-67071251D01*
X165601460Y-67071251D01*
G37*
D25*
X164058934Y-63798588D03*
%TD*%
%TO.C,D5*%
X164941066Y-80998588D03*
X164500000Y-83500000D03*
D26*
G36*
X165271251Y-84601460D02*
X163398540Y-84271251D01*
X163728749Y-82398540D01*
X165601460Y-82728749D01*
X165271251Y-84601460D01*
X165271251Y-84601460D01*
G37*
%TD*%
D25*
%TO.C,D6*%
X164200000Y-50200000D03*
D26*
G36*
X164548017Y-51498817D02*
X162901183Y-50548017D01*
X163851983Y-48901183D01*
X165498817Y-49851983D01*
X164548017Y-51498817D01*
X164548017Y-51498817D01*
G37*
D25*
X165470000Y-48000295D03*
%TD*%
%TO.C,D7*%
X163230000Y-95500295D03*
X164500000Y-97700000D03*
D26*
G36*
X165798817Y-98048017D02*
X164151983Y-98998817D01*
X163201183Y-97351983D01*
X164848017Y-96401183D01*
X165798817Y-98048017D01*
X165798817Y-98048017D01*
G37*
%TD*%
D27*
%TO.C,J19*%
X226780000Y-73470000D03*
X226780000Y-72200000D03*
X225510000Y-73470000D03*
X225510000Y-72200000D03*
X224240000Y-73470000D03*
X224240000Y-72200000D03*
X222970000Y-73470000D03*
X222970000Y-72200000D03*
X221700000Y-73470000D03*
D28*
X221700000Y-72200000D03*
%TD*%
D29*
%TO.C,J15*%
X141500000Y-91000000D03*
%TD*%
D30*
%TO.C,J12*%
X132000000Y-47000000D03*
%TD*%
D29*
%TO.C,J16*%
X128000000Y-85500000D03*
%TD*%
%TO.C,J14*%
X141500000Y-55000000D03*
%TD*%
%TO.C,J18*%
X126000000Y-47000000D03*
%TD*%
%TO.C,J11*%
X106000000Y-86000000D03*
%TD*%
D23*
%TO.C,SW8*%
X161020000Y-71750000D03*
X161020000Y-76250000D03*
X168980000Y-76250000D03*
X168980000Y-71750000D03*
%TD*%
%TO.C,SW7*%
X161980000Y-55750000D03*
X161980000Y-60250000D03*
X154020000Y-60250000D03*
X154020000Y-55750000D03*
%TD*%
%TO.C,SW6*%
X154020000Y-87750000D03*
X154020000Y-92250000D03*
X161980000Y-92250000D03*
X161980000Y-87750000D03*
%TD*%
%TO.C,SW5*%
X154980000Y-71750000D03*
X154980000Y-76250000D03*
X147020000Y-76250000D03*
X147020000Y-71750000D03*
%TD*%
%TO.C,SW4*%
X119020000Y-90750000D03*
X119020000Y-95250000D03*
X126980000Y-95250000D03*
X126980000Y-90750000D03*
%TD*%
%TO.C,SW3*%
X121980000Y-70750000D03*
X121980000Y-75250000D03*
X114020000Y-75250000D03*
X114020000Y-70750000D03*
%TD*%
%TO.C,SW2*%
X114020000Y-50750000D03*
X114020000Y-55250000D03*
X121980000Y-55250000D03*
X121980000Y-50750000D03*
%TD*%
%TO.C,SW1*%
X114980000Y-90750000D03*
X114980000Y-95250000D03*
X107020000Y-95250000D03*
X107020000Y-90750000D03*
%TD*%
D30*
%TO.C,J9*%
X246500000Y-92000000D03*
%TD*%
%TO.C,J8*%
X246500000Y-52500000D03*
%TD*%
D29*
%TO.C,J6*%
X219000000Y-97000000D03*
%TD*%
%TO.C,J4*%
X218500000Y-47000000D03*
%TD*%
%TO.C,J5*%
X246500000Y-46000000D03*
%TD*%
%TO.C,J7*%
X246500000Y-98000000D03*
%TD*%
D31*
%TO.C,J2*%
X202500000Y-85000000D03*
X202500000Y-83000000D03*
X202500000Y-81000000D03*
X202500000Y-79000000D03*
X202500000Y-77000000D03*
X202500000Y-75000000D03*
X202500000Y-73000000D03*
X202500000Y-71000000D03*
X202500000Y-69000000D03*
X202500000Y-67000000D03*
X202500000Y-65000000D03*
D32*
X202500000Y-63000000D03*
%TD*%
D15*
%TO.C,C2*%
X225100000Y-80350000D03*
X225100000Y-81850000D03*
%TD*%
%TO.C,C1*%
X219800000Y-80250000D03*
X219800000Y-81750000D03*
%TD*%
M02*
