%TF.GenerationSoftware,KiCad,Pcbnew,(5.0.0-3-g5ebb6b6)*%
%TF.CreationDate,2018-07-24T23:49:47-07:00*%
%TF.ProjectId,pyoven,70796F76656E2E6B696361645F706362,rev?*%
%TF.SameCoordinates,Original*%
%TF.FileFunction,Profile,NP*%
%FSLAX46Y46*%
G04 Gerber Fmt 4.6, Leading zero omitted, Abs format (unit mm)*
G04 Created by KiCad (PCBNEW (5.0.0-3-g5ebb6b6)) date Tuesday, July 24, 2018 at 11:49:47 PM*
%MOMM*%
%LPD*%
G01*
G04 APERTURE LIST*
%ADD10C,0.150000*%
G04 APERTURE END LIST*
D10*
X202000000Y-43000000D02*
X250000000Y-43000000D01*
X199000000Y-43000000D02*
X180000000Y-43000000D01*
X202000000Y-53000000D02*
X202000000Y-43000000D01*
X199000000Y-53000000D02*
X202000000Y-53000000D01*
X199000000Y-53000000D02*
X199000000Y-43000000D01*
X174000000Y-48000000D02*
X177000000Y-48000000D01*
X171000000Y-53000000D02*
X171000000Y-47000000D01*
X174000000Y-53000000D02*
X171000000Y-53000000D01*
X174000000Y-48000000D02*
X174000000Y-53000000D01*
X140000000Y-95000000D02*
X140000000Y-100000000D01*
X132000000Y-95000000D02*
X132000000Y-100000000D01*
X202000000Y-100000000D02*
X260000000Y-100000000D01*
X202000000Y-93000000D02*
X202000000Y-100000000D01*
X199000000Y-93000000D02*
X202000000Y-93000000D01*
X199000000Y-100000000D02*
X199000000Y-93000000D01*
X174000000Y-100000000D02*
X199000000Y-100000000D01*
X174000000Y-93000000D02*
X174000000Y-100000000D01*
X171000000Y-93000000D02*
X174000000Y-93000000D01*
X171000000Y-100000000D02*
X171000000Y-93000000D01*
X140000000Y-100000000D02*
X171000000Y-100000000D01*
X132000000Y-95000000D02*
G75*
G02X140000000Y-95000000I4000000J0D01*
G01*
X100000000Y-100000000D02*
X132000000Y-100000000D01*
X166000000Y-47000000D02*
X171000000Y-47000000D01*
X166001733Y-47000346D02*
G75*
G02X162000000Y-42999999I998267J5000346D01*
G01*
X177000000Y-48000000D02*
G75*
G03X180000000Y-45000000I0J3000000D01*
G01*
X180000000Y-43000000D02*
X180000000Y-45000000D01*
X110000000Y-43000000D02*
X162000000Y-43000000D01*
X110000000Y-44000000D02*
X110000000Y-43000000D01*
X105000000Y-49000000D02*
X100000000Y-49000000D01*
X110000000Y-44000000D02*
G75*
G02X105000000Y-49000000I-5000000J0D01*
G01*
X250000000Y-44000000D02*
X250000000Y-43000000D01*
X260000000Y-49000000D02*
X255000000Y-49000000D01*
X255000000Y-49000000D02*
G75*
G02X250000000Y-44000000I0J5000000D01*
G01*
X100000000Y-100000000D02*
X100000000Y-49000000D01*
X260000000Y-100000000D02*
X260000000Y-49000000D01*
M02*
