%TF.GenerationSoftware,KiCad,Pcbnew,(2018-01-05 revision b98cc0b)-master*%
%TF.CreationDate,2018-01-06T14:23:44-08:00*%
%TF.ProjectId,pyoven,70796F76656E2E6B696361645F706362,rev?*%
%TF.SameCoordinates,Original*%
%TF.FileFunction,Soldermask,Bot*%
%TF.FilePolarity,Negative*%
%FSLAX46Y46*%
G04 Gerber Fmt 4.6, Leading zero omitted, Abs format (unit mm)*
G04 Created by KiCad (PCBNEW (2018-01-05 revision b98cc0b)-master) date Saturday, January 06, 2018 'PMt' 02:23:44 PM*
%MOMM*%
%LPD*%
G01*
G04 APERTURE LIST*
%ADD10C,0.010000*%
%ADD11R,0.901600X0.601600*%
%ADD12R,0.901600X0.401600*%
%ADD13R,1.001600X0.601600*%
%ADD14R,0.601600X1.001600*%
%ADD15R,1.301600X1.001600*%
%ADD16R,1.001600X1.301600*%
%ADD17R,1.801600X1.801600*%
%ADD18C,0.731600*%
%ADD19C,1.651600*%
%ADD20R,1.401600X0.371600*%
%ADD21R,1.651600X1.401600*%
%ADD22O,1.801600X1.801600*%
%ADD23C,1.901600*%
%ADD24C,0.100000*%
%ADD25O,1.101600X1.101600*%
%ADD26R,1.101600X1.101600*%
%ADD27C,3.301600*%
%ADD28C,2.601600*%
%ADD29C,6.101600*%
%ADD30O,1.451600X1.451600*%
%ADD31R,1.451600X1.451600*%
%ADD32R,0.851600X0.901600*%
G04 APERTURE END LIST*
D10*
%TO.C,G\002A\002A\002A*%
G36*
X240276897Y-68358969D02*
X240275122Y-68321134D01*
X240272050Y-68285237D01*
X240267549Y-68249588D01*
X240261488Y-68212501D01*
X240256774Y-68187463D01*
X240249127Y-68150495D01*
X240240944Y-68115230D01*
X240231892Y-68080622D01*
X240221636Y-68045624D01*
X240209844Y-68009191D01*
X240196182Y-67970278D01*
X240180316Y-67927839D01*
X240161912Y-67880827D01*
X240147594Y-67845263D01*
X240128195Y-67798042D01*
X240108057Y-67750102D01*
X240086989Y-67701041D01*
X240064801Y-67650453D01*
X240041305Y-67597934D01*
X240016311Y-67543079D01*
X239989628Y-67485486D01*
X239961068Y-67424749D01*
X239930441Y-67360464D01*
X239897558Y-67292227D01*
X239862228Y-67219635D01*
X239824263Y-67142281D01*
X239783472Y-67059764D01*
X239739667Y-66971677D01*
X239710823Y-66913915D01*
X239670036Y-66832201D01*
X239632302Y-66756268D01*
X239597404Y-66685642D01*
X239565125Y-66619851D01*
X239535248Y-66558423D01*
X239507556Y-66500885D01*
X239481833Y-66446765D01*
X239457862Y-66395591D01*
X239435425Y-66346889D01*
X239414305Y-66300189D01*
X239394286Y-66255018D01*
X239375152Y-66210903D01*
X239356684Y-66167371D01*
X239338666Y-66123951D01*
X239320881Y-66080171D01*
X239303112Y-66035557D01*
X239285143Y-65989637D01*
X239278491Y-65972458D01*
X239269207Y-65948476D01*
X239260545Y-65926212D01*
X239252891Y-65906652D01*
X239246634Y-65890781D01*
X239242160Y-65879586D01*
X239239930Y-65874216D01*
X239235427Y-65864168D01*
X239216151Y-65879302D01*
X239202098Y-65891111D01*
X239184518Y-65907080D01*
X239164551Y-65926079D01*
X239143337Y-65946977D01*
X239122014Y-65968643D01*
X239101723Y-65989945D01*
X239083603Y-66009754D01*
X239076080Y-66018319D01*
X239014961Y-66093898D01*
X238956762Y-66175648D01*
X238901625Y-66263253D01*
X238849694Y-66356399D01*
X238801114Y-66454769D01*
X238756027Y-66558048D01*
X238714578Y-66665921D01*
X238676909Y-66778072D01*
X238643165Y-66894186D01*
X238613490Y-67013946D01*
X238604719Y-67053722D01*
X238592433Y-67112747D01*
X238581987Y-67166586D01*
X238573123Y-67216795D01*
X238565587Y-67264926D01*
X238559123Y-67312531D01*
X238553474Y-67361165D01*
X238552412Y-67371222D01*
X238550815Y-67391268D01*
X238549562Y-67416488D01*
X238548652Y-67445561D01*
X238548087Y-67477167D01*
X238547866Y-67509986D01*
X238547989Y-67542697D01*
X238548457Y-67573980D01*
X238549270Y-67602515D01*
X238550428Y-67626981D01*
X238551931Y-67646059D01*
X238552371Y-67649917D01*
X238563641Y-67720413D01*
X238579223Y-67785332D01*
X238599125Y-67844686D01*
X238623358Y-67898489D01*
X238651929Y-67946754D01*
X238684848Y-67989494D01*
X238722125Y-68026725D01*
X238763767Y-68058458D01*
X238809784Y-68084708D01*
X238856444Y-68104186D01*
X238884664Y-68113436D01*
X238910210Y-68120050D01*
X238935330Y-68124389D01*
X238962274Y-68126811D01*
X238993290Y-68127677D01*
X239003310Y-68127689D01*
X239060217Y-68127494D01*
X239062570Y-68150459D01*
X239064922Y-68173423D01*
X239030990Y-68223181D01*
X238981641Y-68222739D01*
X238923410Y-68218754D01*
X238866659Y-68207973D01*
X238811805Y-68190573D01*
X238759268Y-68166733D01*
X238709464Y-68136631D01*
X238662812Y-68100446D01*
X238635845Y-68075226D01*
X238599000Y-68034590D01*
X238566629Y-67990860D01*
X238538509Y-67943528D01*
X238514416Y-67892089D01*
X238494127Y-67836034D01*
X238477416Y-67774857D01*
X238464062Y-67708052D01*
X238458887Y-67674611D01*
X238456611Y-67653545D01*
X238454815Y-67626697D01*
X238453500Y-67595325D01*
X238452666Y-67560685D01*
X238452312Y-67524034D01*
X238452438Y-67486631D01*
X238453044Y-67449731D01*
X238454130Y-67414593D01*
X238455697Y-67382474D01*
X238457743Y-67354630D01*
X238458912Y-67343000D01*
X238474085Y-67228753D01*
X238493945Y-67113621D01*
X238518230Y-66998476D01*
X238546679Y-66884191D01*
X238579031Y-66771641D01*
X238615025Y-66661697D01*
X238654400Y-66555234D01*
X238696894Y-66453124D01*
X238742246Y-66356240D01*
X238770502Y-66301392D01*
X238817249Y-66218282D01*
X238866369Y-66139342D01*
X238917513Y-66065019D01*
X238970332Y-65995759D01*
X239024478Y-65932007D01*
X239079603Y-65874209D01*
X239135357Y-65822812D01*
X239161520Y-65801120D01*
X239179428Y-65786411D01*
X239191741Y-65775353D01*
X239198733Y-65767679D01*
X239200678Y-65763122D01*
X239200627Y-65762894D01*
X239196988Y-65748318D01*
X239192861Y-65727871D01*
X239188412Y-65702704D01*
X239183807Y-65673971D01*
X239179213Y-65642826D01*
X239174796Y-65610421D01*
X239170724Y-65577909D01*
X239167163Y-65546444D01*
X239164280Y-65517179D01*
X239163107Y-65503264D01*
X239161370Y-65473004D01*
X239160689Y-65439491D01*
X239161091Y-65402279D01*
X239162602Y-65360925D01*
X239165250Y-65314983D01*
X239169062Y-65264009D01*
X239174063Y-65207559D01*
X239180281Y-65145188D01*
X239187744Y-65076452D01*
X239190147Y-65055236D01*
X239201961Y-64957304D01*
X239215747Y-64852890D01*
X239231456Y-64742274D01*
X239249038Y-64625733D01*
X239268441Y-64503546D01*
X239289614Y-64375989D01*
X239312508Y-64243343D01*
X239337072Y-64105883D01*
X239363254Y-63963890D01*
X239391005Y-63817640D01*
X239420273Y-63667412D01*
X239451009Y-63513483D01*
X239483160Y-63356133D01*
X239516678Y-63195639D01*
X239551511Y-63032279D01*
X239587608Y-62866331D01*
X239593834Y-62838028D01*
X239600732Y-62806495D01*
X239607213Y-62776427D01*
X239613101Y-62748674D01*
X239618220Y-62724087D01*
X239622393Y-62703516D01*
X239625444Y-62687814D01*
X239627196Y-62677830D01*
X239627480Y-62675750D01*
X239627397Y-62648371D01*
X239621802Y-62619403D01*
X239611360Y-62590663D01*
X239596737Y-62563968D01*
X239578600Y-62541137D01*
X239577903Y-62540423D01*
X239565542Y-62529666D01*
X239547416Y-62516441D01*
X239524218Y-62501127D01*
X239496638Y-62484102D01*
X239465367Y-62465747D01*
X239431098Y-62446438D01*
X239394521Y-62426556D01*
X239356329Y-62406479D01*
X239317211Y-62386585D01*
X239277861Y-62367253D01*
X239238969Y-62348863D01*
X239201226Y-62331792D01*
X239181112Y-62323062D01*
X239112172Y-62295582D01*
X239047247Y-62273705D01*
X238986369Y-62257436D01*
X238929572Y-62246780D01*
X238876888Y-62241742D01*
X238828350Y-62242326D01*
X238783992Y-62248538D01*
X238745645Y-62259697D01*
X238725383Y-62269279D01*
X238703470Y-62282842D01*
X238682372Y-62298641D01*
X238664559Y-62314928D01*
X238659140Y-62320911D01*
X238647229Y-62336300D01*
X238636713Y-62352919D01*
X238627482Y-62371311D01*
X238619426Y-62392022D01*
X238612435Y-62415594D01*
X238606398Y-62442573D01*
X238601206Y-62473502D01*
X238596748Y-62508926D01*
X238592914Y-62549388D01*
X238589595Y-62595433D01*
X238586679Y-62647604D01*
X238584818Y-62688097D01*
X238584039Y-62707868D01*
X238583124Y-62733696D01*
X238582103Y-62764584D01*
X238581006Y-62799536D01*
X238579863Y-62837554D01*
X238578706Y-62877643D01*
X238577563Y-62918805D01*
X238576466Y-62960044D01*
X238575930Y-62980903D01*
X238573135Y-63086868D01*
X238570272Y-63186377D01*
X238567312Y-63280029D01*
X238564226Y-63368424D01*
X238560984Y-63452160D01*
X238557556Y-63531838D01*
X238553914Y-63608056D01*
X238550028Y-63681413D01*
X238545868Y-63752509D01*
X238541405Y-63821944D01*
X238536610Y-63890317D01*
X238531452Y-63958226D01*
X238525904Y-64026271D01*
X238522832Y-64062167D01*
X238508516Y-64214575D01*
X238492499Y-64361084D01*
X238474574Y-64502686D01*
X238454538Y-64640371D01*
X238432187Y-64775131D01*
X238407314Y-64907958D01*
X238379717Y-65039844D01*
X238349189Y-65171779D01*
X238315527Y-65304756D01*
X238278526Y-65439766D01*
X238237982Y-65577801D01*
X238193689Y-65719851D01*
X238158484Y-65827819D01*
X238139585Y-65884471D01*
X238121819Y-65936899D01*
X238104921Y-65985676D01*
X238088623Y-66031373D01*
X238072660Y-66074563D01*
X238056765Y-66115816D01*
X238040673Y-66155705D01*
X238024116Y-66194801D01*
X238006830Y-66233675D01*
X237988548Y-66272901D01*
X237969003Y-66313048D01*
X237947929Y-66354690D01*
X237925061Y-66398398D01*
X237900131Y-66444743D01*
X237872875Y-66494297D01*
X237843025Y-66547632D01*
X237810316Y-66605320D01*
X237774481Y-66667932D01*
X237737185Y-66732694D01*
X237708257Y-66782887D01*
X237682550Y-66827657D01*
X237659702Y-66867661D01*
X237639352Y-66903555D01*
X237621137Y-66935994D01*
X237604697Y-66965635D01*
X237589670Y-66993134D01*
X237575693Y-67019147D01*
X237562406Y-67044330D01*
X237549446Y-67069338D01*
X237536451Y-67094828D01*
X237525180Y-67117222D01*
X237493259Y-67182539D01*
X237465298Y-67243326D01*
X237440936Y-67300631D01*
X237419812Y-67355499D01*
X237401564Y-67408978D01*
X237385831Y-67462115D01*
X237372252Y-67515957D01*
X237360463Y-67571551D01*
X237351906Y-67619025D01*
X237342525Y-67678301D01*
X237335151Y-67732886D01*
X237329623Y-67784804D01*
X237325777Y-67836074D01*
X237323450Y-67888721D01*
X237322478Y-67944766D01*
X237322491Y-67983292D01*
X237322691Y-68009880D01*
X237322949Y-68034924D01*
X237323249Y-68057330D01*
X237323574Y-68076003D01*
X237323908Y-68089851D01*
X237324233Y-68097777D01*
X237324245Y-68097944D01*
X237333260Y-68188991D01*
X237346904Y-68278800D01*
X237364958Y-68366515D01*
X237387202Y-68451282D01*
X237413417Y-68532244D01*
X237443381Y-68608545D01*
X237470183Y-68666209D01*
X237517081Y-68752043D01*
X237570623Y-68835670D01*
X237630727Y-68917012D01*
X237697310Y-68995994D01*
X237770292Y-69072539D01*
X237849589Y-69146571D01*
X237935121Y-69218015D01*
X238026804Y-69286793D01*
X238124558Y-69352829D01*
X238228299Y-69416048D01*
X238337947Y-69476373D01*
X238346254Y-69480700D01*
X238421266Y-69517707D01*
X238499011Y-69552221D01*
X238580420Y-69584600D01*
X238666426Y-69615202D01*
X238757961Y-69644388D01*
X238814242Y-69660890D01*
X238840831Y-69668457D01*
X238939956Y-69914194D01*
X238955931Y-69953671D01*
X238971209Y-69991187D01*
X238985578Y-70026234D01*
X238998827Y-70058306D01*
X239010743Y-70086898D01*
X239021113Y-70111502D01*
X239029726Y-70131612D01*
X239036370Y-70146722D01*
X239040832Y-70156326D01*
X239042899Y-70159917D01*
X239042945Y-70159931D01*
X239045822Y-70157356D01*
X239053035Y-70149885D01*
X239064238Y-70137902D01*
X239079083Y-70121787D01*
X239097224Y-70101922D01*
X239118314Y-70078690D01*
X239142006Y-70052471D01*
X239167952Y-70023649D01*
X239195807Y-69992605D01*
X239225222Y-69959720D01*
X239248034Y-69934153D01*
X239449259Y-69708375D01*
X239488978Y-69693997D01*
X239559052Y-69665662D01*
X239625955Y-69632414D01*
X239690293Y-69593848D01*
X239752676Y-69549555D01*
X239813713Y-69499130D01*
X239874010Y-69442165D01*
X239890083Y-69425776D01*
X239950261Y-69358462D01*
X240005941Y-69285870D01*
X240056990Y-69208266D01*
X240103278Y-69125914D01*
X240144670Y-69039079D01*
X240181036Y-68948026D01*
X240212242Y-68853021D01*
X240238158Y-68754329D01*
X240248166Y-68708250D01*
X240256803Y-68663853D01*
X240263573Y-68624131D01*
X240268705Y-68587021D01*
X240272428Y-68550460D01*
X240274971Y-68512386D01*
X240276561Y-68470735D01*
X240277084Y-68447194D01*
X240277507Y-68400426D01*
X240276897Y-68358969D01*
X240276897Y-68358969D01*
G37*
X240276897Y-68358969D02*
X240275122Y-68321134D01*
X240272050Y-68285237D01*
X240267549Y-68249588D01*
X240261488Y-68212501D01*
X240256774Y-68187463D01*
X240249127Y-68150495D01*
X240240944Y-68115230D01*
X240231892Y-68080622D01*
X240221636Y-68045624D01*
X240209844Y-68009191D01*
X240196182Y-67970278D01*
X240180316Y-67927839D01*
X240161912Y-67880827D01*
X240147594Y-67845263D01*
X240128195Y-67798042D01*
X240108057Y-67750102D01*
X240086989Y-67701041D01*
X240064801Y-67650453D01*
X240041305Y-67597934D01*
X240016311Y-67543079D01*
X239989628Y-67485486D01*
X239961068Y-67424749D01*
X239930441Y-67360464D01*
X239897558Y-67292227D01*
X239862228Y-67219635D01*
X239824263Y-67142281D01*
X239783472Y-67059764D01*
X239739667Y-66971677D01*
X239710823Y-66913915D01*
X239670036Y-66832201D01*
X239632302Y-66756268D01*
X239597404Y-66685642D01*
X239565125Y-66619851D01*
X239535248Y-66558423D01*
X239507556Y-66500885D01*
X239481833Y-66446765D01*
X239457862Y-66395591D01*
X239435425Y-66346889D01*
X239414305Y-66300189D01*
X239394286Y-66255018D01*
X239375152Y-66210903D01*
X239356684Y-66167371D01*
X239338666Y-66123951D01*
X239320881Y-66080171D01*
X239303112Y-66035557D01*
X239285143Y-65989637D01*
X239278491Y-65972458D01*
X239269207Y-65948476D01*
X239260545Y-65926212D01*
X239252891Y-65906652D01*
X239246634Y-65890781D01*
X239242160Y-65879586D01*
X239239930Y-65874216D01*
X239235427Y-65864168D01*
X239216151Y-65879302D01*
X239202098Y-65891111D01*
X239184518Y-65907080D01*
X239164551Y-65926079D01*
X239143337Y-65946977D01*
X239122014Y-65968643D01*
X239101723Y-65989945D01*
X239083603Y-66009754D01*
X239076080Y-66018319D01*
X239014961Y-66093898D01*
X238956762Y-66175648D01*
X238901625Y-66263253D01*
X238849694Y-66356399D01*
X238801114Y-66454769D01*
X238756027Y-66558048D01*
X238714578Y-66665921D01*
X238676909Y-66778072D01*
X238643165Y-66894186D01*
X238613490Y-67013946D01*
X238604719Y-67053722D01*
X238592433Y-67112747D01*
X238581987Y-67166586D01*
X238573123Y-67216795D01*
X238565587Y-67264926D01*
X238559123Y-67312531D01*
X238553474Y-67361165D01*
X238552412Y-67371222D01*
X238550815Y-67391268D01*
X238549562Y-67416488D01*
X238548652Y-67445561D01*
X238548087Y-67477167D01*
X238547866Y-67509986D01*
X238547989Y-67542697D01*
X238548457Y-67573980D01*
X238549270Y-67602515D01*
X238550428Y-67626981D01*
X238551931Y-67646059D01*
X238552371Y-67649917D01*
X238563641Y-67720413D01*
X238579223Y-67785332D01*
X238599125Y-67844686D01*
X238623358Y-67898489D01*
X238651929Y-67946754D01*
X238684848Y-67989494D01*
X238722125Y-68026725D01*
X238763767Y-68058458D01*
X238809784Y-68084708D01*
X238856444Y-68104186D01*
X238884664Y-68113436D01*
X238910210Y-68120050D01*
X238935330Y-68124389D01*
X238962274Y-68126811D01*
X238993290Y-68127677D01*
X239003310Y-68127689D01*
X239060217Y-68127494D01*
X239062570Y-68150459D01*
X239064922Y-68173423D01*
X239030990Y-68223181D01*
X238981641Y-68222739D01*
X238923410Y-68218754D01*
X238866659Y-68207973D01*
X238811805Y-68190573D01*
X238759268Y-68166733D01*
X238709464Y-68136631D01*
X238662812Y-68100446D01*
X238635845Y-68075226D01*
X238599000Y-68034590D01*
X238566629Y-67990860D01*
X238538509Y-67943528D01*
X238514416Y-67892089D01*
X238494127Y-67836034D01*
X238477416Y-67774857D01*
X238464062Y-67708052D01*
X238458887Y-67674611D01*
X238456611Y-67653545D01*
X238454815Y-67626697D01*
X238453500Y-67595325D01*
X238452666Y-67560685D01*
X238452312Y-67524034D01*
X238452438Y-67486631D01*
X238453044Y-67449731D01*
X238454130Y-67414593D01*
X238455697Y-67382474D01*
X238457743Y-67354630D01*
X238458912Y-67343000D01*
X238474085Y-67228753D01*
X238493945Y-67113621D01*
X238518230Y-66998476D01*
X238546679Y-66884191D01*
X238579031Y-66771641D01*
X238615025Y-66661697D01*
X238654400Y-66555234D01*
X238696894Y-66453124D01*
X238742246Y-66356240D01*
X238770502Y-66301392D01*
X238817249Y-66218282D01*
X238866369Y-66139342D01*
X238917513Y-66065019D01*
X238970332Y-65995759D01*
X239024478Y-65932007D01*
X239079603Y-65874209D01*
X239135357Y-65822812D01*
X239161520Y-65801120D01*
X239179428Y-65786411D01*
X239191741Y-65775353D01*
X239198733Y-65767679D01*
X239200678Y-65763122D01*
X239200627Y-65762894D01*
X239196988Y-65748318D01*
X239192861Y-65727871D01*
X239188412Y-65702704D01*
X239183807Y-65673971D01*
X239179213Y-65642826D01*
X239174796Y-65610421D01*
X239170724Y-65577909D01*
X239167163Y-65546444D01*
X239164280Y-65517179D01*
X239163107Y-65503264D01*
X239161370Y-65473004D01*
X239160689Y-65439491D01*
X239161091Y-65402279D01*
X239162602Y-65360925D01*
X239165250Y-65314983D01*
X239169062Y-65264009D01*
X239174063Y-65207559D01*
X239180281Y-65145188D01*
X239187744Y-65076452D01*
X239190147Y-65055236D01*
X239201961Y-64957304D01*
X239215747Y-64852890D01*
X239231456Y-64742274D01*
X239249038Y-64625733D01*
X239268441Y-64503546D01*
X239289614Y-64375989D01*
X239312508Y-64243343D01*
X239337072Y-64105883D01*
X239363254Y-63963890D01*
X239391005Y-63817640D01*
X239420273Y-63667412D01*
X239451009Y-63513483D01*
X239483160Y-63356133D01*
X239516678Y-63195639D01*
X239551511Y-63032279D01*
X239587608Y-62866331D01*
X239593834Y-62838028D01*
X239600732Y-62806495D01*
X239607213Y-62776427D01*
X239613101Y-62748674D01*
X239618220Y-62724087D01*
X239622393Y-62703516D01*
X239625444Y-62687814D01*
X239627196Y-62677830D01*
X239627480Y-62675750D01*
X239627397Y-62648371D01*
X239621802Y-62619403D01*
X239611360Y-62590663D01*
X239596737Y-62563968D01*
X239578600Y-62541137D01*
X239577903Y-62540423D01*
X239565542Y-62529666D01*
X239547416Y-62516441D01*
X239524218Y-62501127D01*
X239496638Y-62484102D01*
X239465367Y-62465747D01*
X239431098Y-62446438D01*
X239394521Y-62426556D01*
X239356329Y-62406479D01*
X239317211Y-62386585D01*
X239277861Y-62367253D01*
X239238969Y-62348863D01*
X239201226Y-62331792D01*
X239181112Y-62323062D01*
X239112172Y-62295582D01*
X239047247Y-62273705D01*
X238986369Y-62257436D01*
X238929572Y-62246780D01*
X238876888Y-62241742D01*
X238828350Y-62242326D01*
X238783992Y-62248538D01*
X238745645Y-62259697D01*
X238725383Y-62269279D01*
X238703470Y-62282842D01*
X238682372Y-62298641D01*
X238664559Y-62314928D01*
X238659140Y-62320911D01*
X238647229Y-62336300D01*
X238636713Y-62352919D01*
X238627482Y-62371311D01*
X238619426Y-62392022D01*
X238612435Y-62415594D01*
X238606398Y-62442573D01*
X238601206Y-62473502D01*
X238596748Y-62508926D01*
X238592914Y-62549388D01*
X238589595Y-62595433D01*
X238586679Y-62647604D01*
X238584818Y-62688097D01*
X238584039Y-62707868D01*
X238583124Y-62733696D01*
X238582103Y-62764584D01*
X238581006Y-62799536D01*
X238579863Y-62837554D01*
X238578706Y-62877643D01*
X238577563Y-62918805D01*
X238576466Y-62960044D01*
X238575930Y-62980903D01*
X238573135Y-63086868D01*
X238570272Y-63186377D01*
X238567312Y-63280029D01*
X238564226Y-63368424D01*
X238560984Y-63452160D01*
X238557556Y-63531838D01*
X238553914Y-63608056D01*
X238550028Y-63681413D01*
X238545868Y-63752509D01*
X238541405Y-63821944D01*
X238536610Y-63890317D01*
X238531452Y-63958226D01*
X238525904Y-64026271D01*
X238522832Y-64062167D01*
X238508516Y-64214575D01*
X238492499Y-64361084D01*
X238474574Y-64502686D01*
X238454538Y-64640371D01*
X238432187Y-64775131D01*
X238407314Y-64907958D01*
X238379717Y-65039844D01*
X238349189Y-65171779D01*
X238315527Y-65304756D01*
X238278526Y-65439766D01*
X238237982Y-65577801D01*
X238193689Y-65719851D01*
X238158484Y-65827819D01*
X238139585Y-65884471D01*
X238121819Y-65936899D01*
X238104921Y-65985676D01*
X238088623Y-66031373D01*
X238072660Y-66074563D01*
X238056765Y-66115816D01*
X238040673Y-66155705D01*
X238024116Y-66194801D01*
X238006830Y-66233675D01*
X237988548Y-66272901D01*
X237969003Y-66313048D01*
X237947929Y-66354690D01*
X237925061Y-66398398D01*
X237900131Y-66444743D01*
X237872875Y-66494297D01*
X237843025Y-66547632D01*
X237810316Y-66605320D01*
X237774481Y-66667932D01*
X237737185Y-66732694D01*
X237708257Y-66782887D01*
X237682550Y-66827657D01*
X237659702Y-66867661D01*
X237639352Y-66903555D01*
X237621137Y-66935994D01*
X237604697Y-66965635D01*
X237589670Y-66993134D01*
X237575693Y-67019147D01*
X237562406Y-67044330D01*
X237549446Y-67069338D01*
X237536451Y-67094828D01*
X237525180Y-67117222D01*
X237493259Y-67182539D01*
X237465298Y-67243326D01*
X237440936Y-67300631D01*
X237419812Y-67355499D01*
X237401564Y-67408978D01*
X237385831Y-67462115D01*
X237372252Y-67515957D01*
X237360463Y-67571551D01*
X237351906Y-67619025D01*
X237342525Y-67678301D01*
X237335151Y-67732886D01*
X237329623Y-67784804D01*
X237325777Y-67836074D01*
X237323450Y-67888721D01*
X237322478Y-67944766D01*
X237322491Y-67983292D01*
X237322691Y-68009880D01*
X237322949Y-68034924D01*
X237323249Y-68057330D01*
X237323574Y-68076003D01*
X237323908Y-68089851D01*
X237324233Y-68097777D01*
X237324245Y-68097944D01*
X237333260Y-68188991D01*
X237346904Y-68278800D01*
X237364958Y-68366515D01*
X237387202Y-68451282D01*
X237413417Y-68532244D01*
X237443381Y-68608545D01*
X237470183Y-68666209D01*
X237517081Y-68752043D01*
X237570623Y-68835670D01*
X237630727Y-68917012D01*
X237697310Y-68995994D01*
X237770292Y-69072539D01*
X237849589Y-69146571D01*
X237935121Y-69218015D01*
X238026804Y-69286793D01*
X238124558Y-69352829D01*
X238228299Y-69416048D01*
X238337947Y-69476373D01*
X238346254Y-69480700D01*
X238421266Y-69517707D01*
X238499011Y-69552221D01*
X238580420Y-69584600D01*
X238666426Y-69615202D01*
X238757961Y-69644388D01*
X238814242Y-69660890D01*
X238840831Y-69668457D01*
X238939956Y-69914194D01*
X238955931Y-69953671D01*
X238971209Y-69991187D01*
X238985578Y-70026234D01*
X238998827Y-70058306D01*
X239010743Y-70086898D01*
X239021113Y-70111502D01*
X239029726Y-70131612D01*
X239036370Y-70146722D01*
X239040832Y-70156326D01*
X239042899Y-70159917D01*
X239042945Y-70159931D01*
X239045822Y-70157356D01*
X239053035Y-70149885D01*
X239064238Y-70137902D01*
X239079083Y-70121787D01*
X239097224Y-70101922D01*
X239118314Y-70078690D01*
X239142006Y-70052471D01*
X239167952Y-70023649D01*
X239195807Y-69992605D01*
X239225222Y-69959720D01*
X239248034Y-69934153D01*
X239449259Y-69708375D01*
X239488978Y-69693997D01*
X239559052Y-69665662D01*
X239625955Y-69632414D01*
X239690293Y-69593848D01*
X239752676Y-69549555D01*
X239813713Y-69499130D01*
X239874010Y-69442165D01*
X239890083Y-69425776D01*
X239950261Y-69358462D01*
X240005941Y-69285870D01*
X240056990Y-69208266D01*
X240103278Y-69125914D01*
X240144670Y-69039079D01*
X240181036Y-68948026D01*
X240212242Y-68853021D01*
X240238158Y-68754329D01*
X240248166Y-68708250D01*
X240256803Y-68663853D01*
X240263573Y-68624131D01*
X240268705Y-68587021D01*
X240272428Y-68550460D01*
X240274971Y-68512386D01*
X240276561Y-68470735D01*
X240277084Y-68447194D01*
X240277507Y-68400426D01*
X240276897Y-68358969D01*
%TD*%
D11*
%TO.C,LED2*%
X118850000Y-80900000D03*
D12*
X118850000Y-80000000D03*
D11*
X118850000Y-79100000D03*
X117150000Y-79100000D03*
D12*
X117150000Y-80000000D03*
D11*
X117150000Y-80900000D03*
%TD*%
%TO.C,LED1*%
X118850000Y-64900000D03*
D12*
X118850000Y-64000000D03*
D11*
X118850000Y-63100000D03*
X117150000Y-63100000D03*
D12*
X117150000Y-64000000D03*
D11*
X117150000Y-64900000D03*
%TD*%
D13*
%TO.C,R21*%
X230100000Y-68850000D03*
X230100000Y-67350000D03*
%TD*%
D14*
%TO.C,R22*%
X238950000Y-71400000D03*
X237450000Y-71400000D03*
%TD*%
D15*
%TO.C,D3*%
X222700000Y-79550000D03*
X222700000Y-82850000D03*
%TD*%
D16*
%TO.C,D4*%
X222850000Y-77600000D03*
X226150000Y-77600000D03*
%TD*%
%TO.C,D9*%
X231400000Y-77600000D03*
X231400000Y-79800000D03*
%TD*%
%TO.C,D10*%
X233900000Y-79800000D03*
X233900000Y-77600000D03*
%TD*%
%TO.C,D11*%
X236400000Y-77600000D03*
X236400000Y-79800000D03*
%TD*%
%TO.C,D12*%
X238900000Y-79800000D03*
X238900000Y-77600000D03*
%TD*%
D17*
%TO.C,J17*%
X217400000Y-74700000D03*
%TD*%
D15*
%TO.C,R23*%
X234600000Y-61400000D03*
X236800000Y-61400000D03*
%TD*%
%TO.C,R24*%
X240900000Y-61400000D03*
X238700000Y-61400000D03*
%TD*%
D18*
%TO.C,J1*%
X235300000Y-76100000D03*
X235300000Y-65100000D03*
D19*
X235470000Y-74700000D03*
X232530000Y-74700000D03*
X235470000Y-66500000D03*
X232530000Y-66500000D03*
D20*
X235750000Y-73350000D03*
X235750000Y-72850000D03*
X235750000Y-72350000D03*
X235750000Y-71850000D03*
X235750000Y-71350000D03*
X235750000Y-70850000D03*
X235750000Y-70350000D03*
X235750000Y-69850000D03*
X235750000Y-69350000D03*
X235750000Y-68850000D03*
X235750000Y-68350000D03*
X235750000Y-67850000D03*
X232250000Y-67850000D03*
X232250000Y-68350000D03*
X232250000Y-68850000D03*
X232250000Y-69350000D03*
X232250000Y-69850000D03*
X232250000Y-70350000D03*
X232250000Y-70850000D03*
X232250000Y-71350000D03*
X232250000Y-71850000D03*
X232250000Y-72350000D03*
X232250000Y-72850000D03*
X232250000Y-73350000D03*
%TD*%
D21*
%TO.C,SW9*%
X220220000Y-68850000D03*
X220220000Y-64350000D03*
X228180000Y-64350000D03*
X228180000Y-68850000D03*
%TD*%
D22*
%TO.C,J3*%
X246000000Y-80780000D03*
X246000000Y-78240000D03*
X246000000Y-75700000D03*
X246000000Y-73160000D03*
X246000000Y-70620000D03*
X246000000Y-68080000D03*
X246000000Y-65540000D03*
D17*
X246000000Y-63000000D03*
%TD*%
D23*
%TO.C,D2*%
X164500000Y-66300000D03*
D24*
G36*
X165601460Y-67071251D02*
X163728749Y-67401460D01*
X163398540Y-65528749D01*
X165271251Y-65198540D01*
X165601460Y-67071251D01*
X165601460Y-67071251D01*
G37*
D23*
X164058934Y-63798588D03*
%TD*%
%TO.C,D5*%
X164941066Y-80998588D03*
X164500000Y-83500000D03*
D24*
G36*
X165271251Y-84601460D02*
X163398540Y-84271251D01*
X163728749Y-82398540D01*
X165601460Y-82728749D01*
X165271251Y-84601460D01*
X165271251Y-84601460D01*
G37*
%TD*%
D23*
%TO.C,D6*%
X164200000Y-50200000D03*
D24*
G36*
X164548017Y-51498817D02*
X162901183Y-50548017D01*
X163851983Y-48901183D01*
X165498817Y-49851983D01*
X164548017Y-51498817D01*
X164548017Y-51498817D01*
G37*
D23*
X165470000Y-48000295D03*
%TD*%
%TO.C,D7*%
X163230000Y-95500295D03*
X164500000Y-97700000D03*
D24*
G36*
X165798817Y-98048017D02*
X164151983Y-98998817D01*
X163201183Y-97351983D01*
X164848017Y-96401183D01*
X165798817Y-98048017D01*
X165798817Y-98048017D01*
G37*
%TD*%
D25*
%TO.C,J19*%
X226780000Y-73470000D03*
X226780000Y-72200000D03*
X225510000Y-73470000D03*
X225510000Y-72200000D03*
X224240000Y-73470000D03*
X224240000Y-72200000D03*
X222970000Y-73470000D03*
X222970000Y-72200000D03*
X221700000Y-73470000D03*
D26*
X221700000Y-72200000D03*
%TD*%
D27*
%TO.C,J15*%
X141500000Y-91000000D03*
%TD*%
D28*
%TO.C,J12*%
X132000000Y-47000000D03*
%TD*%
D29*
%TO.C,J13*%
X110000000Y-58000000D03*
%TD*%
D27*
%TO.C,J16*%
X128000000Y-85500000D03*
%TD*%
%TO.C,J14*%
X141500000Y-55000000D03*
%TD*%
%TO.C,J18*%
X126000000Y-47000000D03*
%TD*%
%TO.C,J11*%
X106000000Y-86000000D03*
%TD*%
D21*
%TO.C,SW8*%
X161020000Y-71750000D03*
X161020000Y-76250000D03*
X168980000Y-76250000D03*
X168980000Y-71750000D03*
%TD*%
%TO.C,SW7*%
X161980000Y-55750000D03*
X161980000Y-60250000D03*
X154020000Y-60250000D03*
X154020000Y-55750000D03*
%TD*%
%TO.C,SW6*%
X154020000Y-87750000D03*
X154020000Y-92250000D03*
X161980000Y-92250000D03*
X161980000Y-87750000D03*
%TD*%
%TO.C,SW5*%
X154980000Y-71750000D03*
X154980000Y-76250000D03*
X147020000Y-76250000D03*
X147020000Y-71750000D03*
%TD*%
%TO.C,SW4*%
X121020000Y-90750000D03*
X121020000Y-95250000D03*
X128980000Y-95250000D03*
X128980000Y-90750000D03*
%TD*%
%TO.C,SW3*%
X121980000Y-70750000D03*
X121980000Y-75250000D03*
X114020000Y-75250000D03*
X114020000Y-70750000D03*
%TD*%
%TO.C,SW2*%
X114020000Y-50750000D03*
X114020000Y-55250000D03*
X121980000Y-55250000D03*
X121980000Y-50750000D03*
%TD*%
%TO.C,SW1*%
X114980000Y-90750000D03*
X114980000Y-95250000D03*
X107020000Y-95250000D03*
X107020000Y-90750000D03*
%TD*%
D28*
%TO.C,J9*%
X246500000Y-92000000D03*
%TD*%
%TO.C,J8*%
X246500000Y-52000000D03*
%TD*%
D29*
%TO.C,J10*%
X214000000Y-90000000D03*
%TD*%
D27*
%TO.C,J6*%
X219000000Y-97000000D03*
%TD*%
%TO.C,J4*%
X219000000Y-47000000D03*
%TD*%
%TO.C,J5*%
X246500000Y-46000000D03*
%TD*%
%TO.C,J7*%
X246500000Y-98000000D03*
%TD*%
D30*
%TO.C,J2*%
X202500000Y-85000000D03*
X202500000Y-83000000D03*
X202500000Y-81000000D03*
X202500000Y-79000000D03*
X202500000Y-77000000D03*
X202500000Y-75000000D03*
X202500000Y-73000000D03*
X202500000Y-71000000D03*
X202500000Y-69000000D03*
X202500000Y-67000000D03*
X202500000Y-65000000D03*
D31*
X202500000Y-63000000D03*
%TD*%
D32*
%TO.C,C2*%
X225100000Y-80350000D03*
X225100000Y-81850000D03*
%TD*%
%TO.C,C1*%
X220500000Y-80250000D03*
X220500000Y-81750000D03*
%TD*%
M02*
