M48
;DRILL file {KiCad (5.0.0-3-g5ebb6b6)} date Tuesday, July 24, 2018 at 11:49:52 PM
;FORMAT={2:4/ absolute / inch / suppress leading zeros}
FMAT,2
INCH,TZ
T1C0.0150
T2C0.0256
T3C0.0315
T4C0.0354
T5C0.0394
T6C0.0531
T7C0.0248
T8C0.0984
T9C0.1260
T10C0.2520
%
G90
G05
M72
T1
X44449Y-35984
X45906Y-27874
X46142Y-26181
X46299Y-32244
X46457Y-19961
X46772Y-26142
X46850Y-27874
X47244Y-32126
X48110Y-28701
X48133Y-31539
X48228Y-24724
X48228Y-25551
X48583Y-31535
X50000Y-36299
X50118Y-30866
X52402Y-31496
X59449Y-28110
X61654Y-31142
X61811Y-30236
X62047Y-21929
X62318Y-29876
X62913Y-34994
X63307Y-33976
X65512Y-29488
X68307Y-32362
X68701Y-31339
X69055Y-28110
X69488Y-27953
X69567Y-32480
X69843Y-34646
X70039Y-27402
X70377Y-37056
X70472Y-28465
X70663Y-30046
X70707Y-36786
X70921Y-29767
X71339Y-29803
X71378Y-38543
X71614Y-25669
X72638Y-36811
X72717Y-26614
X72992Y-37047
X74252Y-26260
X74291Y-38543
X74511Y-36362
X74567Y-32323
X74780Y-36630
X75118Y-35748
X75709Y-21575
X76299Y-23150
X77087Y-37953
X77846Y-35754
X79873Y-35521
X80375Y-35894
X80394Y-35354
X81379Y-34407
X81496Y-36024
X81732Y-23150
X86024Y-31929
X86339Y-26575
X88898Y-31969
X89764Y-27598
X89852Y-21053
X89852Y-22254
X90401Y-27458
X90512Y-21654
X90709Y-27874
X91171Y-21053
X91171Y-22254
X91535Y-30630
X91575Y-31614
X91912Y-27624
X92126Y-27283
X92126Y-28465
X92329Y-28017
X92559Y-32008
X92598Y-23661
X93543Y-31811
X94724Y-24764
T2
X87283Y-28425
X87283Y-28925
X87783Y-28425
X87783Y-28925
X88283Y-28425
X88283Y-28925
X88783Y-28425
X88783Y-28925
X89283Y-28425
X89283Y-28925
T3
X79724Y-24803
X79724Y-25591
X79724Y-26378
X79724Y-27165
X79724Y-27953
X79724Y-28740
X79724Y-29528
X79724Y-30315
X79724Y-31102
X79724Y-31890
X79724Y-32677
X79724Y-33465
T4
X64264Y-37599
X64764Y-38465
X64764Y-32874
X64937Y-31889
X64590Y-25118
X64764Y-26102
X64646Y-19764
X65146Y-18898
T5
X85591Y-29409
X96850Y-24803
X96850Y-25803
X96850Y-26803
X96850Y-27803
X96850Y-28803
X96850Y-29803
X96850Y-30803
X96850Y-31803
T6
X91547Y-26181
X91547Y-29409
X92705Y-26181
X92705Y-29409
T7
X92638Y-25630
X92638Y-29961
T8
X97047Y-20669
X51969Y-18504
X97047Y-36220
T9
X97047Y-38583
X49606Y-18504
X50394Y-33661
X86024Y-18504
X97047Y-18110
X41732Y-33858
X55709Y-21654
X86220Y-38189
X55709Y-35827
T10
X84252Y-35433
X43307Y-22835
T0
M30
