%TF.GenerationSoftware,KiCad,Pcbnew,(5.0.0-3-g5ebb6b6)*%
%TF.CreationDate,2018-07-24T23:49:47-07:00*%
%TF.ProjectId,pyoven,70796F76656E2E6B696361645F706362,rev?*%
%TF.SameCoordinates,Original*%
%TF.FileFunction,Copper,L1,Top,Signal*%
%TF.FilePolarity,Positive*%
%FSLAX46Y46*%
G04 Gerber Fmt 4.6, Leading zero omitted, Abs format (unit mm)*
G04 Created by KiCad (PCBNEW (5.0.0-3-g5ebb6b6)) date Tuesday, July 24, 2018 at 11:49:47 PM*
%MOMM*%
%LPD*%
G01*
G04 APERTURE LIST*
%TA.AperFunction,ComponentPad*%
%ADD10C,1.550000*%
%TD*%
%TA.AperFunction,SMDPad,CuDef*%
%ADD11R,0.800000X0.750000*%
%TD*%
%TA.AperFunction,SMDPad,CuDef*%
%ADD12R,0.750000X0.800000*%
%TD*%
%TA.AperFunction,SMDPad,CuDef*%
%ADD13R,3.050000X2.750000*%
%TD*%
%TA.AperFunction,SMDPad,CuDef*%
%ADD14R,6.400000X5.800000*%
%TD*%
%TA.AperFunction,SMDPad,CuDef*%
%ADD15R,2.200000X1.200000*%
%TD*%
%TA.AperFunction,SMDPad,CuDef*%
%ADD16R,0.900000X1.200000*%
%TD*%
%TA.AperFunction,SMDPad,CuDef*%
%ADD17R,1.200000X0.900000*%
%TD*%
%TA.AperFunction,ComponentPad*%
%ADD18R,1.700000X1.700000*%
%TD*%
%TA.AperFunction,ComponentPad*%
%ADD19O,1.700000X1.700000*%
%TD*%
%TA.AperFunction,ComponentPad*%
%ADD20C,1.800000*%
%TD*%
%TA.AperFunction,Conductor*%
%ADD21C,0.100000*%
%TD*%
%TA.AperFunction,ComponentPad*%
%ADD22O,1.000000X1.000000*%
%TD*%
%TA.AperFunction,ComponentPad*%
%ADD23R,1.000000X1.000000*%
%TD*%
%TA.AperFunction,SMDPad,CuDef*%
%ADD24R,0.650000X1.060000*%
%TD*%
%TA.AperFunction,SMDPad,CuDef*%
%ADD25R,0.800000X0.900000*%
%TD*%
%TA.AperFunction,SMDPad,CuDef*%
%ADD26R,1.500000X0.300000*%
%TD*%
%TA.AperFunction,SMDPad,CuDef*%
%ADD27R,0.300000X1.500000*%
%TD*%
%TA.AperFunction,SMDPad,CuDef*%
%ADD28R,1.000000X0.285000*%
%TD*%
%TA.AperFunction,ComponentPad*%
%ADD29O,1.350000X1.350000*%
%TD*%
%TA.AperFunction,ComponentPad*%
%ADD30R,1.350000X1.350000*%
%TD*%
%TA.AperFunction,ViaPad*%
%ADD31C,0.762000*%
%TD*%
%TA.AperFunction,Conductor*%
%ADD32C,0.203200*%
%TD*%
%TA.AperFunction,Conductor*%
%ADD33C,0.508000*%
%TD*%
G04 APERTURE END LIST*
D10*
%TO.P,J1,S1*%
%TO.N,GNDPWR*%
X235470000Y-74700000D03*
X232530000Y-74700000D03*
X235470000Y-66500000D03*
X232530000Y-66500000D03*
%TD*%
D11*
%TO.P,C17,2*%
%TO.N,GNDPWR*%
X119150000Y-82800000D03*
%TO.P,C17,1*%
%TO.N,+5V*%
X117650000Y-82800000D03*
%TD*%
%TO.P,C16,1*%
%TO.N,+5V*%
X117250000Y-65400000D03*
%TO.P,C16,2*%
%TO.N,GNDPWR*%
X118750000Y-65400000D03*
%TD*%
D12*
%TO.P,C15,1*%
%TO.N,+VDC*%
X240800000Y-56550000D03*
%TO.P,C15,2*%
%TO.N,GNDPWR*%
X240800000Y-55050000D03*
%TD*%
D13*
%TO.P,U3,2*%
%TO.N,GNDPWR*%
X231575000Y-53475000D03*
X228225000Y-56525000D03*
X231575000Y-56525000D03*
X228225000Y-53475000D03*
D14*
X229900000Y-55000000D03*
D15*
%TO.P,U3,3*%
%TO.N,/TOASTER_5V*%
X236200000Y-52720000D03*
%TO.P,U3,1*%
%TO.N,+VDC*%
X236200000Y-57280000D03*
%TD*%
D16*
%TO.P,R29,2*%
%TO.N,GNDPWR*%
X208000000Y-89900000D03*
%TO.P,R29,1*%
%TO.N,/TEMP-*%
X208000000Y-87700000D03*
%TD*%
D17*
%TO.P,D1,1*%
%TO.N,+5V*%
X238700000Y-64650000D03*
%TO.P,D1,2*%
%TO.N,Net-(D1-Pad2)*%
X238700000Y-67950000D03*
%TD*%
%TO.P,D8,2*%
%TO.N,/TOASTER_5V*%
X238700000Y-59650000D03*
%TO.P,D8,1*%
%TO.N,+5V*%
X238700000Y-62950000D03*
%TD*%
D18*
%TO.P,J17,1*%
%TO.N,/PUMP*%
X217400000Y-74700000D03*
%TD*%
D16*
%TO.P,R25,1*%
%TO.N,/ENABLE*%
X231400000Y-79800000D03*
%TO.P,R25,2*%
%TO.N,Net-(D9-Pad2)*%
X231400000Y-77600000D03*
%TD*%
%TO.P,R26,2*%
%TO.N,Net-(D10-Pad2)*%
X233900000Y-79000000D03*
%TO.P,R26,1*%
%TO.N,/RELAY2*%
X233900000Y-81200000D03*
%TD*%
%TO.P,R27,1*%
%TO.N,/RELAY1*%
X236400000Y-81200000D03*
%TO.P,R27,2*%
%TO.N,Net-(D11-Pad2)*%
X236400000Y-79000000D03*
%TD*%
%TO.P,R28,2*%
%TO.N,Net-(D12-Pad2)*%
X239000000Y-77500000D03*
%TO.P,R28,1*%
%TO.N,/BUZZER*%
X239000000Y-79700000D03*
%TD*%
D17*
%TO.P,R13,1*%
%TO.N,+3V3*%
X116900000Y-52900000D03*
%TO.P,R13,2*%
%TO.N,/MORE*%
X119100000Y-52900000D03*
%TD*%
%TO.P,R14,2*%
%TO.N,/START*%
X119000000Y-72900000D03*
%TO.P,R14,1*%
%TO.N,+3V3*%
X116800000Y-72900000D03*
%TD*%
%TO.P,R15,1*%
%TO.N,+3V3*%
X109900000Y-92900000D03*
%TO.P,R15,2*%
%TO.N,/FROZEN*%
X112100000Y-92900000D03*
%TD*%
%TO.P,R16,2*%
%TO.N,/UNITS*%
X125900000Y-92900000D03*
%TO.P,R16,1*%
%TO.N,+3V3*%
X123700000Y-92900000D03*
%TD*%
%TO.P,R17,1*%
%TO.N,+3V3*%
X149900000Y-74100000D03*
%TO.P,R17,2*%
%TO.N,/DEC*%
X152100000Y-74100000D03*
%TD*%
%TO.P,R18,2*%
%TO.N,/TEMP*%
X159200000Y-90000000D03*
%TO.P,R18,1*%
%TO.N,+3V3*%
X157000000Y-90000000D03*
%TD*%
%TO.P,R19,1*%
%TO.N,+3V3*%
X159200000Y-58000000D03*
%TO.P,R19,2*%
%TO.N,/TIME*%
X157000000Y-58000000D03*
%TD*%
D16*
%TO.P,R20,2*%
%TO.N,/INC*%
X165000000Y-75000000D03*
%TO.P,R20,1*%
%TO.N,+3V3*%
X165000000Y-72800000D03*
%TD*%
D19*
%TO.P,J3,8*%
%TO.N,/TEMP-*%
X246000000Y-80780000D03*
%TO.P,J3,7*%
%TO.N,+3V3*%
X246000000Y-78240000D03*
%TO.P,J3,6*%
%TO.N,Net-(J3-Pad6)*%
X246000000Y-75700000D03*
%TO.P,J3,5*%
%TO.N,Net-(J3-Pad5)*%
X246000000Y-73160000D03*
%TO.P,J3,4*%
%TO.N,Net-(J3-Pad4)*%
X246000000Y-70620000D03*
%TO.P,J3,3*%
%TO.N,/ENABLE*%
X246000000Y-68080000D03*
%TO.P,J3,2*%
%TO.N,GNDPWR*%
X246000000Y-65540000D03*
D18*
%TO.P,J3,1*%
%TO.N,+VDC*%
X246000000Y-63000000D03*
%TD*%
D11*
%TO.P,C14,2*%
%TO.N,GNDPWR*%
X175650000Y-80000000D03*
%TO.P,C14,1*%
%TO.N,+3V3*%
X177150000Y-80000000D03*
%TD*%
%TO.P,C13,1*%
%TO.N,+5V*%
X175650000Y-74000000D03*
%TO.P,C13,2*%
%TO.N,GNDPWR*%
X177150000Y-74000000D03*
%TD*%
D20*
%TO.P,D2,1*%
%TO.N,Net-(D2-Pad1)*%
X164500000Y-66300000D03*
D21*
%TD*%
%TO.N,Net-(D2-Pad1)*%
%TO.C,D2*%
G36*
X165542610Y-67030044D02*
X163769956Y-67342610D01*
X163457390Y-65569956D01*
X165230044Y-65257390D01*
X165542610Y-67030044D01*
X165542610Y-67030044D01*
G37*
D20*
%TO.P,D2,2*%
%TO.N,+3V3*%
X164058934Y-63798588D03*
%TD*%
%TO.P,D5,2*%
%TO.N,+3V3*%
X164941066Y-80998588D03*
%TO.P,D5,1*%
%TO.N,Net-(D5-Pad1)*%
X164500000Y-83500000D03*
D21*
%TD*%
%TO.N,Net-(D5-Pad1)*%
%TO.C,D5*%
G36*
X165230044Y-84542610D02*
X163457390Y-84230044D01*
X163769956Y-82457390D01*
X165542610Y-82769956D01*
X165230044Y-84542610D01*
X165230044Y-84542610D01*
G37*
D20*
%TO.P,D6,1*%
%TO.N,Net-(D6-Pad1)*%
X164200000Y-50200000D03*
D21*
%TD*%
%TO.N,Net-(D6-Pad1)*%
%TO.C,D6*%
G36*
X164529423Y-51429423D02*
X162970577Y-50529423D01*
X163870577Y-48970577D01*
X165429423Y-49870577D01*
X164529423Y-51429423D01*
X164529423Y-51429423D01*
G37*
D20*
%TO.P,D6,2*%
%TO.N,+3V3*%
X165470000Y-48000295D03*
%TD*%
%TO.P,D7,2*%
%TO.N,+3V3*%
X163230000Y-95500295D03*
%TO.P,D7,1*%
%TO.N,Net-(D7-Pad1)*%
X164500000Y-97700000D03*
D21*
%TD*%
%TO.N,Net-(D7-Pad1)*%
%TO.C,D7*%
G36*
X165729423Y-98029423D02*
X164170577Y-98929423D01*
X163270577Y-97370577D01*
X164829423Y-96470577D01*
X165729423Y-98029423D01*
X165729423Y-98029423D01*
G37*
D22*
%TO.P,J19,10*%
%TO.N,/nReset*%
X226780000Y-73470000D03*
%TO.P,J19,9*%
%TO.N,Net-(J19-Pad9)*%
X226780000Y-72200000D03*
%TO.P,J19,8*%
%TO.N,Net-(J19-Pad8)*%
X225510000Y-73470000D03*
%TO.P,J19,7*%
%TO.N,Net-(J19-Pad7)*%
X225510000Y-72200000D03*
%TO.P,J19,6*%
%TO.N,Net-(J19-Pad6)*%
X224240000Y-73470000D03*
%TO.P,J19,5*%
%TO.N,GNDPWR*%
X224240000Y-72200000D03*
%TO.P,J19,4*%
%TO.N,/SWDCLK*%
X222970000Y-73470000D03*
%TO.P,J19,3*%
%TO.N,GNDPWR*%
X222970000Y-72200000D03*
%TO.P,J19,2*%
%TO.N,/SWDIO*%
X221700000Y-73470000D03*
D23*
%TO.P,J19,1*%
%TO.N,+3V3*%
X221700000Y-72200000D03*
%TD*%
D17*
%TO.P,R9,1*%
%TO.N,Net-(D2-Pad1)*%
X167800000Y-68100000D03*
%TO.P,R9,2*%
%TO.N,/RIGHT_LED*%
X170000000Y-68100000D03*
%TD*%
%TO.P,R10,2*%
%TO.N,/LEFT_LED*%
X169400000Y-85200000D03*
%TO.P,R10,1*%
%TO.N,Net-(D5-Pad1)*%
X167200000Y-85200000D03*
%TD*%
%TO.P,R11,1*%
%TO.N,Net-(D6-Pad1)*%
X166500000Y-55200000D03*
%TO.P,R11,2*%
%TO.N,/FAR_RIGHT_LED*%
X168700000Y-55200000D03*
%TD*%
D16*
%TO.P,R12,2*%
%TO.N,/FAR_LEFT_LED*%
X168600000Y-94700000D03*
%TO.P,R12,1*%
%TO.N,Net-(D7-Pad1)*%
X168600000Y-96900000D03*
%TD*%
D24*
%TO.P,U4,5*%
%TO.N,+3V3*%
X177250000Y-78100000D03*
%TO.P,U4,4*%
%TO.N,Net-(U4-Pad4)*%
X175350000Y-78100000D03*
%TO.P,U4,3*%
%TO.N,+5V*%
X175350000Y-75900000D03*
%TO.P,U4,2*%
%TO.N,GNDPWR*%
X176300000Y-75900000D03*
%TO.P,U4,1*%
%TO.N,+5V*%
X177250000Y-75900000D03*
%TD*%
D17*
%TO.P,R1,1*%
%TO.N,Net-(J3-Pad4)*%
X242900000Y-70600000D03*
%TO.P,R1,2*%
%TO.N,/RELAY2*%
X240700000Y-70600000D03*
%TD*%
%TO.P,R2,2*%
%TO.N,/RELAY1*%
X240700000Y-73200000D03*
%TO.P,R2,1*%
%TO.N,Net-(J3-Pad5)*%
X242900000Y-73200000D03*
%TD*%
%TO.P,R3,1*%
%TO.N,Net-(J3-Pad6)*%
X242900000Y-75900000D03*
%TO.P,R3,2*%
%TO.N,/BUZZER*%
X240700000Y-75900000D03*
%TD*%
%TO.P,R4,2*%
%TO.N,/SDA_5V*%
X187100000Y-66000000D03*
%TO.P,R4,1*%
%TO.N,+5V*%
X184900000Y-66000000D03*
%TD*%
%TO.P,R5,1*%
%TO.N,+5V*%
X180900000Y-68000000D03*
%TO.P,R5,2*%
%TO.N,/SCL_5V*%
X183100000Y-68000000D03*
%TD*%
%TO.P,R6,2*%
%TO.N,/SDA_3V*%
X188100000Y-72000000D03*
%TO.P,R6,1*%
%TO.N,+3V3*%
X185900000Y-72000000D03*
%TD*%
%TO.P,R7,1*%
%TO.N,+3V3*%
X181900000Y-74000000D03*
%TO.P,R7,2*%
%TO.N,/SCL_3V*%
X184100000Y-74000000D03*
%TD*%
D16*
%TO.P,R8,2*%
%TO.N,/nReset*%
X219500000Y-68900000D03*
%TO.P,R8,1*%
%TO.N,+3V3*%
X219500000Y-71100000D03*
%TD*%
D11*
%TO.P,C12,2*%
%TO.N,+3V3*%
X184250000Y-97900000D03*
%TO.P,C12,1*%
%TO.N,GNDPWR*%
X182750000Y-97900000D03*
%TD*%
%TO.P,C10,1*%
%TO.N,Net-(C10-Pad1)*%
X194750000Y-92300000D03*
%TO.P,C10,2*%
%TO.N,GNDPWR*%
X196250000Y-92300000D03*
%TD*%
D12*
%TO.P,C3,2*%
%TO.N,GNDPWR*%
X193700000Y-56350000D03*
%TO.P,C3,1*%
%TO.N,+5V*%
X193700000Y-57850000D03*
%TD*%
%TO.P,C4,1*%
%TO.N,+5V*%
X192000000Y-57850000D03*
%TO.P,C4,2*%
%TO.N,GNDPWR*%
X192000000Y-56350000D03*
%TD*%
D11*
%TO.P,C5,2*%
%TO.N,+3V3*%
X186850000Y-82100000D03*
%TO.P,C5,1*%
%TO.N,GNDPWR*%
X188350000Y-82100000D03*
%TD*%
D12*
%TO.P,C6,1*%
%TO.N,+3V3*%
X178900000Y-87850000D03*
%TO.P,C6,2*%
%TO.N,GNDPWR*%
X178900000Y-89350000D03*
%TD*%
D11*
%TO.P,C9,2*%
%TO.N,GNDPWR*%
X196250000Y-93800000D03*
%TO.P,C9,1*%
%TO.N,Net-(C10-Pad1)*%
X194750000Y-93800000D03*
%TD*%
%TO.P,C8,1*%
%TO.N,Net-(C10-Pad1)*%
X194750000Y-95300000D03*
%TO.P,C8,2*%
%TO.N,GNDPWR*%
X196250000Y-95300000D03*
%TD*%
%TO.P,C11,2*%
%TO.N,+3V3*%
X191350000Y-97900000D03*
%TO.P,C11,1*%
%TO.N,GNDPWR*%
X189850000Y-97900000D03*
%TD*%
D12*
%TO.P,C7,1*%
%TO.N,GNDPWR*%
X195300000Y-90850000D03*
%TO.P,C7,2*%
%TO.N,+3V3*%
X195300000Y-89350000D03*
%TD*%
D25*
%TO.P,Q1,1*%
%TO.N,+3V3*%
X186050000Y-70000000D03*
%TO.P,Q1,2*%
%TO.N,/SDA_3V*%
X187950000Y-70000000D03*
%TO.P,Q1,3*%
%TO.N,/SDA_5V*%
X187000000Y-68000000D03*
%TD*%
%TO.P,Q2,3*%
%TO.N,/SCL_5V*%
X183000000Y-70000000D03*
%TO.P,Q2,2*%
%TO.N,/SCL_3V*%
X183950000Y-72000000D03*
%TO.P,Q2,1*%
%TO.N,+3V3*%
X182050000Y-72000000D03*
%TD*%
D26*
%TO.P,U2,64*%
%TO.N,/RELAY1*%
X192700000Y-86250000D03*
%TO.P,U2,63*%
%TO.N,/BUZZER*%
X192700000Y-86750000D03*
%TO.P,U2,62*%
%TO.N,+3V3*%
X192700000Y-87250000D03*
%TO.P,U2,61*%
%TO.N,/TEMP-*%
X192700000Y-87750000D03*
%TO.P,U2,60*%
%TO.N,Net-(U2-Pad60)*%
X192700000Y-88250000D03*
%TO.P,U2,59*%
%TO.N,Net-(U2-Pad59)*%
X192700000Y-88750000D03*
%TO.P,U2,58*%
%TO.N,/SWDIO*%
X192700000Y-89250000D03*
%TO.P,U2,57*%
%TO.N,/SWDCLK*%
X192700000Y-89750000D03*
%TO.P,U2,56*%
%TO.N,+3V3*%
X192700000Y-90250000D03*
%TO.P,U2,55*%
%TO.N,Net-(U2-Pad55)*%
X192700000Y-90750000D03*
%TO.P,U2,54*%
%TO.N,GNDPWR*%
X192700000Y-91250000D03*
%TO.P,U2,53*%
%TO.N,Net-(C10-Pad1)*%
X192700000Y-91750000D03*
%TO.P,U2,52*%
%TO.N,/nReset*%
X192700000Y-92250000D03*
%TO.P,U2,51*%
%TO.N,Net-(U2-Pad51)*%
X192700000Y-92750000D03*
%TO.P,U2,50*%
%TO.N,Net-(U2-Pad50)*%
X192700000Y-93250000D03*
%TO.P,U2,49*%
%TO.N,/PUMP*%
X192700000Y-93750000D03*
D27*
%TO.P,U2,48*%
%TO.N,+3V3*%
X190750000Y-95700000D03*
%TO.P,U2,47*%
%TO.N,GNDPWR*%
X190250000Y-95700000D03*
%TO.P,U2,46*%
%TO.N,/D+*%
X189750000Y-95700000D03*
%TO.P,U2,45*%
%TO.N,/D-*%
X189250000Y-95700000D03*
%TO.P,U2,44*%
%TO.N,Net-(U2-Pad44)*%
X188750000Y-95700000D03*
%TO.P,U2,43*%
%TO.N,Net-(U2-Pad43)*%
X188250000Y-95700000D03*
%TO.P,U2,42*%
%TO.N,Net-(U2-Pad42)*%
X187750000Y-95700000D03*
%TO.P,U2,41*%
%TO.N,Net-(U2-Pad41)*%
X187250000Y-95700000D03*
%TO.P,U2,40*%
%TO.N,Net-(U2-Pad40)*%
X186750000Y-95700000D03*
%TO.P,U2,39*%
%TO.N,Net-(U2-Pad39)*%
X186250000Y-95700000D03*
%TO.P,U2,38*%
%TO.N,Net-(U2-Pad38)*%
X185750000Y-95700000D03*
%TO.P,U2,37*%
%TO.N,Net-(U2-Pad37)*%
X185250000Y-95700000D03*
%TO.P,U2,36*%
%TO.N,/TEMP*%
X184750000Y-95700000D03*
%TO.P,U2,35*%
%TO.N,/UNITS*%
X184250000Y-95700000D03*
%TO.P,U2,34*%
%TO.N,+3V3*%
X183750000Y-95700000D03*
%TO.P,U2,33*%
%TO.N,GNDPWR*%
X183250000Y-95700000D03*
D26*
%TO.P,U2,32*%
%TO.N,/FAR_LEFT_LED*%
X181300000Y-93750000D03*
%TO.P,U2,31*%
%TO.N,Net-(U2-Pad31)*%
X181300000Y-93250000D03*
%TO.P,U2,30*%
%TO.N,/FROZEN*%
X181300000Y-92750000D03*
%TO.P,U2,29*%
%TO.N,Net-(U2-Pad29)*%
X181300000Y-92250000D03*
%TO.P,U2,28*%
%TO.N,/DI*%
X181300000Y-91750000D03*
%TO.P,U2,27*%
%TO.N,/START*%
X181300000Y-91250000D03*
%TO.P,U2,26*%
%TO.N,/CI*%
X181300000Y-90750000D03*
%TO.P,U2,25*%
%TO.N,/MORE*%
X181300000Y-90250000D03*
%TO.P,U2,24*%
%TO.N,/LEFT_LED*%
X181300000Y-89750000D03*
%TO.P,U2,23*%
%TO.N,Net-(U2-Pad23)*%
X181300000Y-89250000D03*
%TO.P,U2,22*%
%TO.N,GNDPWR*%
X181300000Y-88750000D03*
%TO.P,U2,21*%
%TO.N,+3V3*%
X181300000Y-88250000D03*
%TO.P,U2,20*%
%TO.N,Net-(U2-Pad20)*%
X181300000Y-87750000D03*
%TO.P,U2,19*%
%TO.N,/DEC*%
X181300000Y-87250000D03*
%TO.P,U2,18*%
%TO.N,/INC*%
X181300000Y-86750000D03*
%TO.P,U2,17*%
%TO.N,Net-(U2-Pad17)*%
X181300000Y-86250000D03*
D27*
%TO.P,U2,16*%
%TO.N,/RIGHT_LED*%
X183250000Y-84300000D03*
%TO.P,U2,15*%
%TO.N,/TIME*%
X183750000Y-84300000D03*
%TO.P,U2,14*%
%TO.N,Net-(U2-Pad14)*%
X184250000Y-84300000D03*
%TO.P,U2,13*%
%TO.N,/FAR_RIGHT_LED*%
X184750000Y-84300000D03*
%TO.P,U2,12*%
%TO.N,/SCL_3V*%
X185250000Y-84300000D03*
%TO.P,U2,11*%
%TO.N,/SDA_3V*%
X185750000Y-84300000D03*
%TO.P,U2,10*%
%TO.N,Net-(U2-Pad10)*%
X186250000Y-84300000D03*
%TO.P,U2,9*%
%TO.N,Net-(U2-Pad9)*%
X186750000Y-84300000D03*
%TO.P,U2,8*%
%TO.N,+3V3*%
X187250000Y-84300000D03*
%TO.P,U2,7*%
%TO.N,GNDPWR*%
X187750000Y-84300000D03*
%TO.P,U2,6*%
%TO.N,Net-(U2-Pad6)*%
X188250000Y-84300000D03*
%TO.P,U2,5*%
%TO.N,Net-(R23-Pad2)*%
X188750000Y-84300000D03*
%TO.P,U2,4*%
%TO.N,Net-(U2-Pad4)*%
X189250000Y-84300000D03*
%TO.P,U2,3*%
%TO.N,Net-(U2-Pad3)*%
X189750000Y-84300000D03*
%TO.P,U2,2*%
%TO.N,Net-(U2-Pad2)*%
X190250000Y-84300000D03*
%TO.P,U2,1*%
%TO.N,/RELAY2*%
X190750000Y-84300000D03*
%TD*%
D28*
%TO.P,U1,48*%
%TO.N,Net-(U1-Pad48)*%
X182650000Y-62550000D03*
%TO.P,U1,47*%
%TO.N,Net-(U1-Pad47)*%
X182650000Y-62050000D03*
%TO.P,U1,46*%
%TO.N,Net-(U1-Pad46)*%
X182650000Y-61550000D03*
%TO.P,U1,45*%
%TO.N,Net-(U1-Pad45)*%
X182650000Y-61050000D03*
%TO.P,U1,44*%
%TO.N,Net-(U1-Pad44)*%
X182650000Y-60550000D03*
%TO.P,U1,43*%
%TO.N,Net-(U1-Pad43)*%
X182650000Y-60050000D03*
%TO.P,U1,42*%
%TO.N,Net-(U1-Pad42)*%
X182650000Y-59550000D03*
%TO.P,U1,41*%
%TO.N,Net-(U1-Pad41)*%
X182650000Y-59050000D03*
%TO.P,U1,40*%
%TO.N,Net-(U1-Pad40)*%
X182650000Y-58550000D03*
%TO.P,U1,39*%
%TO.N,Net-(U1-Pad39)*%
X182650000Y-58050000D03*
%TO.P,U1,38*%
%TO.N,Net-(U1-Pad38)*%
X182650000Y-57550000D03*
%TO.P,U1,37*%
%TO.N,Net-(U1-Pad37)*%
X182650000Y-57050000D03*
%TO.P,U1,36*%
%TO.N,Net-(U1-Pad36)*%
X182650000Y-56550000D03*
%TO.P,U1,35*%
%TO.N,Net-(U1-Pad35)*%
X182650000Y-56050000D03*
%TO.P,U1,34*%
%TO.N,Net-(U1-Pad34)*%
X182650000Y-55550000D03*
%TO.P,U1,33*%
%TO.N,Net-(U1-Pad33)*%
X182650000Y-55050000D03*
%TO.P,U1,32*%
%TO.N,Net-(U1-Pad32)*%
X182650000Y-54550000D03*
%TO.P,U1,31*%
%TO.N,Net-(U1-Pad31)*%
X182650000Y-54050000D03*
%TO.P,U1,30*%
%TO.N,Net-(U1-Pad30)*%
X182650000Y-53550000D03*
%TO.P,U1,29*%
%TO.N,Net-(U1-Pad29)*%
X182650000Y-53050000D03*
%TO.P,U1,28*%
%TO.N,Net-(U1-Pad28)*%
X182650000Y-52550000D03*
%TO.P,U1,27*%
%TO.N,Net-(U1-Pad27)*%
X182650000Y-52050000D03*
%TO.P,U1,26*%
%TO.N,Net-(U1-Pad26)*%
X182650000Y-51550000D03*
%TO.P,U1,25*%
%TO.N,/SEG7*%
X182650000Y-51050000D03*
%TO.P,U1,24*%
%TO.N,/SEG6*%
X190150000Y-51050000D03*
%TO.P,U1,23*%
%TO.N,/SEG5*%
X190150000Y-51550000D03*
%TO.P,U1,22*%
%TO.N,/SEG4*%
X190150000Y-52050000D03*
%TO.P,U1,21*%
%TO.N,/SEG3*%
X190150000Y-52550000D03*
%TO.P,U1,20*%
%TO.N,/SEG2*%
X190150000Y-53050000D03*
%TO.P,U1,19*%
%TO.N,/SEG1*%
X190150000Y-53550000D03*
%TO.P,U1,18*%
%TO.N,/SEG0*%
X190150000Y-54050000D03*
%TO.P,U1,17*%
%TO.N,GNDPWR*%
X190150000Y-54550000D03*
%TO.P,U1,16*%
%TO.N,/SDA_5V*%
X190150000Y-55050000D03*
%TO.P,U1,15*%
%TO.N,/SCL_5V*%
X190150000Y-55550000D03*
%TO.P,U1,14*%
%TO.N,Net-(U1-Pad14)*%
X190150000Y-56050000D03*
%TO.P,U1,13*%
%TO.N,GNDPWR*%
X190150000Y-56550000D03*
%TO.P,U1,12*%
X190150000Y-57050000D03*
%TO.P,U1,11*%
%TO.N,+5V*%
X190150000Y-57550000D03*
%TO.P,U1,10*%
X190150000Y-58050000D03*
%TO.P,U1,9*%
%TO.N,/COM3*%
X190150000Y-58550000D03*
%TO.P,U1,8*%
%TO.N,/COM2*%
X190150000Y-59050000D03*
%TO.P,U1,7*%
%TO.N,/COM1*%
X190150000Y-59550000D03*
%TO.P,U1,6*%
%TO.N,/COM0*%
X190150000Y-60050000D03*
%TO.P,U1,5*%
%TO.N,Net-(U1-Pad5)*%
X190150000Y-60550000D03*
%TO.P,U1,4*%
%TO.N,Net-(U1-Pad4)*%
X190150000Y-61050000D03*
%TO.P,U1,3*%
%TO.N,Net-(U1-Pad3)*%
X190150000Y-61550000D03*
%TO.P,U1,2*%
%TO.N,Net-(U1-Pad2)*%
X190150000Y-62050000D03*
%TO.P,U1,1*%
%TO.N,Net-(U1-Pad1)*%
X190150000Y-62550000D03*
%TD*%
D29*
%TO.P,J2,12*%
%TO.N,/SEG7*%
X202500000Y-85000000D03*
%TO.P,J2,11*%
%TO.N,/SEG6*%
X202500000Y-83000000D03*
%TO.P,J2,10*%
%TO.N,/SEG5*%
X202500000Y-81000000D03*
%TO.P,J2,9*%
%TO.N,/SEG4*%
X202500000Y-79000000D03*
%TO.P,J2,8*%
%TO.N,/SEG3*%
X202500000Y-77000000D03*
%TO.P,J2,7*%
%TO.N,/SEG2*%
X202500000Y-75000000D03*
%TO.P,J2,6*%
%TO.N,/SEG1*%
X202500000Y-73000000D03*
%TO.P,J2,5*%
%TO.N,/SEG0*%
X202500000Y-71000000D03*
%TO.P,J2,4*%
%TO.N,/COM0*%
X202500000Y-69000000D03*
%TO.P,J2,3*%
%TO.N,/COM1*%
X202500000Y-67000000D03*
%TO.P,J2,2*%
%TO.N,/COM2*%
X202500000Y-65000000D03*
D30*
%TO.P,J2,1*%
%TO.N,/COM3*%
X202500000Y-63000000D03*
%TD*%
D31*
%TO.N,/ENABLE*%
X225799992Y-81200000D03*
%TO.N,GNDPWR*%
X195800000Y-96400000D03*
X179000000Y-72300000D03*
X174500000Y-79600000D03*
X197727624Y-90814190D03*
X189400000Y-82100000D03*
X192300000Y-54800000D03*
X177400000Y-88000000D03*
X188700000Y-97900000D03*
X181300000Y-97900000D03*
X231575000Y-56525000D03*
X228225000Y-53475000D03*
X231575000Y-53475000D03*
X228225000Y-56525000D03*
X229900000Y-55000000D03*
X207000000Y-91500000D03*
X120000000Y-81600000D03*
X118800000Y-66400000D03*
%TO.N,/PUMP*%
X204151527Y-91170627D03*
X218500000Y-81100000D03*
%TO.N,+5V*%
X117600000Y-81900000D03*
X117200000Y-66500000D03*
X157000000Y-76800000D03*
X156600000Y-79100000D03*
X122200000Y-72900000D03*
X181900000Y-65200000D03*
X193800000Y-58799996D03*
X207600000Y-58800000D03*
%TO.N,+3V3*%
X206702000Y-87394141D03*
X160800000Y-86300000D03*
X176700000Y-82500000D03*
X173500000Y-82200000D03*
%TO.N,Net-(D1-Pad2)*%
X234000000Y-69300000D03*
X234000000Y-72300000D03*
%TO.N,/CI*%
X123400000Y-80100000D03*
%TO.N,/DI*%
X122257773Y-80109383D03*
%TO.N,/nReset*%
X190800000Y-90800000D03*
X228000000Y-70100000D03*
X219300000Y-67500000D03*
%TO.N,/SWDCLK*%
X202877803Y-90224274D03*
%TO.N,/SWDIO*%
X204201365Y-89799016D03*
%TO.N,/D+*%
X234515799Y-71164190D03*
X233456051Y-70164194D03*
X189941250Y-93041250D03*
%TO.N,/D-*%
X189258750Y-92358750D03*
X229618211Y-69743945D03*
X230400000Y-70800000D03*
%TO.N,/SCL_5V*%
X188600000Y-66700000D03*
X184700000Y-67600000D03*
%TO.N,/FAR_RIGHT_LED*%
X177900000Y-69600000D03*
X181200000Y-75700000D03*
%TO.N,/RIGHT_LED*%
X179483722Y-76317593D03*
X175400000Y-71400000D03*
%TO.N,/TEMP*%
X178756699Y-94121620D03*
X185400000Y-94100000D03*
X159800000Y-88885810D03*
%TO.N,/UNITS*%
X179594598Y-93435810D03*
X184500000Y-93500000D03*
X127000000Y-92200000D03*
%TO.N,/FROZEN*%
X112900000Y-91400000D03*
%TO.N,/MORE*%
X122500000Y-62800000D03*
X122500000Y-64900000D03*
X118000000Y-50700000D03*
%TO.N,/START*%
X127300000Y-78400000D03*
X133100000Y-80000000D03*
X116600000Y-70800000D03*
X119000000Y-70800000D03*
%TO.N,/DEC*%
X158287081Y-75885689D03*
X151000000Y-71400000D03*
%TO.N,/TIME*%
X180139254Y-75609136D03*
X176500000Y-71000000D03*
X157600000Y-55700000D03*
%TO.N,/INC*%
X166400000Y-74900000D03*
%TO.N,/TOASTER_5V*%
X235200000Y-60100000D03*
%TO.N,Net-(R23-Pad2)*%
X240600000Y-62900000D03*
%TO.N,Net-(D12-Pad2)*%
X237600000Y-80800000D03*
%TO.N,Net-(D11-Pad2)*%
X235100000Y-81300000D03*
%TO.N,Net-(D10-Pad2)*%
X232600000Y-80300000D03*
%TO.N,Net-(D9-Pad2)*%
X232500000Y-77800000D03*
%TD*%
D32*
%TO.N,/RELAY2*%
X235000000Y-79885012D02*
X235000000Y-78700000D01*
X235000000Y-78700000D02*
X239300000Y-74400000D01*
X239300000Y-74400000D02*
X239300000Y-72653200D01*
X233900000Y-80985012D02*
X235000000Y-79885012D01*
X239300000Y-72653200D02*
X240700000Y-71253200D01*
X233900000Y-81200000D02*
X233900000Y-80985012D01*
X240700000Y-71253200D02*
X240700000Y-70600000D01*
X231900000Y-81200000D02*
X233246800Y-81200000D01*
X233246800Y-81200000D02*
X233900000Y-81200000D01*
X208302909Y-82600000D02*
X230500000Y-82600000D01*
X190750000Y-84300000D02*
X198325249Y-84300000D01*
X230500000Y-82600000D02*
X231900000Y-81200000D01*
X198325249Y-84300000D02*
X200931660Y-86906411D01*
X200931660Y-86906411D02*
X203996498Y-86906411D01*
X203996498Y-86906411D02*
X208302909Y-82600000D01*
%TO.N,Net-(J3-Pad4)*%
X242900000Y-70600000D02*
X245980000Y-70600000D01*
X245980000Y-70600000D02*
X246000000Y-70620000D01*
%TO.N,Net-(J3-Pad5)*%
X246000000Y-73160000D02*
X242940000Y-73160000D01*
X242940000Y-73160000D02*
X242900000Y-73200000D01*
%TO.N,/RELAY1*%
X204136680Y-87312822D02*
X208443091Y-83006411D01*
X192700000Y-86250000D02*
X199700498Y-86250000D01*
X236400000Y-81350000D02*
X236400000Y-81200000D01*
X231374751Y-82300000D02*
X235450000Y-82300000D01*
X235450000Y-82300000D02*
X236400000Y-81350000D01*
X230668340Y-83006411D02*
X231374751Y-82300000D01*
X208443091Y-83006411D02*
X230668340Y-83006411D01*
X200763320Y-87312822D02*
X204136680Y-87312822D01*
X199700498Y-86250000D02*
X200763320Y-87312822D01*
X236400000Y-81200000D02*
X236400000Y-80985012D01*
X237800000Y-76753200D02*
X240700000Y-73853200D01*
X237800000Y-79585012D02*
X237800000Y-76753200D01*
X240700000Y-73853200D02*
X240700000Y-73200000D01*
X236400000Y-80985012D02*
X237800000Y-79585012D01*
%TO.N,/BUZZER*%
X236103200Y-83400000D02*
X239000000Y-80503200D01*
X239000000Y-80503200D02*
X239000000Y-79700000D01*
X230849502Y-83400000D02*
X236103200Y-83400000D01*
X208611431Y-83412822D02*
X230836680Y-83412822D01*
X199625747Y-86750000D02*
X200594980Y-87719233D01*
X230836680Y-83412822D02*
X230849502Y-83400000D01*
X204305020Y-87719233D02*
X208611431Y-83412822D01*
X192700000Y-86750000D02*
X199625747Y-86750000D01*
X200594980Y-87719233D02*
X204305020Y-87719233D01*
X239000000Y-79700000D02*
X239000000Y-79550000D01*
X239000000Y-79550000D02*
X240700000Y-77850000D01*
X240700000Y-77850000D02*
X240700000Y-76553200D01*
X240700000Y-76553200D02*
X240700000Y-75900000D01*
%TO.N,Net-(J3-Pad6)*%
X242900000Y-75900000D02*
X245800000Y-75900000D01*
X245800000Y-75900000D02*
X246000000Y-75700000D01*
%TO.N,/TEMP-*%
X242280000Y-84500000D02*
X245150001Y-81629999D01*
X208673755Y-84500000D02*
X242280000Y-84500000D01*
X199476245Y-87750000D02*
X200258300Y-88532055D01*
X192700000Y-87750000D02*
X199476245Y-87750000D01*
X245150001Y-81629999D02*
X246000000Y-80780000D01*
X200258300Y-88532055D02*
X204641700Y-88532055D01*
X207500000Y-86396800D02*
X207500000Y-85673755D01*
X208000000Y-87700000D02*
X208000000Y-86896800D01*
X208000000Y-86896800D02*
X207500000Y-86396800D01*
X207500000Y-85673755D02*
X208673755Y-84500000D01*
X204641700Y-88532055D02*
X207500000Y-85673755D01*
%TO.N,/ENABLE*%
X233801358Y-77500000D02*
X235025250Y-77500000D01*
X235025250Y-77500000D02*
X238600000Y-73925250D01*
X231400000Y-79800000D02*
X231400000Y-79650000D01*
X232053200Y-78996800D02*
X232304558Y-78996800D01*
X231400000Y-79650000D02*
X232053200Y-78996800D01*
X232304558Y-78996800D02*
X233801358Y-77500000D01*
X241621358Y-68080000D02*
X238600000Y-71101358D01*
X238600000Y-71101358D02*
X238600000Y-73925250D01*
X246000000Y-68080000D02*
X241621358Y-68080000D01*
X226180991Y-80819001D02*
X225799992Y-81200000D01*
X231400000Y-79800000D02*
X227199992Y-79800000D01*
X227199992Y-79800000D02*
X226180991Y-80819001D01*
%TO.N,GNDPWR*%
X196250000Y-95300000D02*
X196250000Y-95950000D01*
X196250000Y-95950000D02*
X195800000Y-96400000D01*
X176300000Y-75900000D02*
X176300000Y-74825000D01*
X177125000Y-74000000D02*
X177150000Y-74000000D01*
X176300000Y-74825000D02*
X177125000Y-74000000D01*
X177150000Y-74000000D02*
X177175000Y-74000000D01*
X177175000Y-74000000D02*
X178875000Y-72300000D01*
X178875000Y-72300000D02*
X179000000Y-72300000D01*
X175650000Y-80000000D02*
X174900000Y-80000000D01*
X174900000Y-80000000D02*
X174500000Y-79600000D01*
X195300000Y-90850000D02*
X197691814Y-90850000D01*
X197691814Y-90850000D02*
X197727624Y-90814190D01*
X188350000Y-82100000D02*
X189400000Y-82100000D01*
X192000000Y-56350000D02*
X192000000Y-55100000D01*
X192000000Y-55100000D02*
X192300000Y-54800000D01*
X178900000Y-89325000D02*
X177575000Y-88000000D01*
X177575000Y-88000000D02*
X177400000Y-88000000D01*
X189850000Y-97900000D02*
X188700000Y-97900000D01*
X182750000Y-97900000D02*
X181300000Y-97900000D01*
X187750000Y-84300000D02*
X187750000Y-82700000D01*
X187750000Y-82700000D02*
X187746800Y-82696800D01*
X187746800Y-82696800D02*
X187746800Y-82678200D01*
X187746800Y-82678200D02*
X188325000Y-82100000D01*
X188325000Y-82100000D02*
X188350000Y-82100000D01*
X181300000Y-88750000D02*
X179500000Y-88750000D01*
X179500000Y-88750000D02*
X179496800Y-88746800D01*
X179496800Y-88746800D02*
X179478200Y-88746800D01*
X179478200Y-88746800D02*
X178900000Y-89325000D01*
X178900000Y-89325000D02*
X178900000Y-89350000D01*
X192700000Y-91250000D02*
X194900000Y-91250000D01*
X194900000Y-91250000D02*
X195300000Y-90850000D01*
X195300000Y-90850000D02*
X195300000Y-91350000D01*
X195300000Y-91350000D02*
X196250000Y-92300000D01*
X196250000Y-92300000D02*
X196250000Y-93800000D01*
X196250000Y-95300000D02*
X196250000Y-93800000D01*
X190150000Y-54550000D02*
X190853200Y-54550000D01*
X190853200Y-54550000D02*
X192000000Y-55696800D01*
X192000000Y-55696800D02*
X192000000Y-55746800D01*
X192000000Y-55746800D02*
X192000000Y-56350000D01*
X193700000Y-56350000D02*
X192000000Y-56350000D01*
X190150000Y-56550000D02*
X191800000Y-56550000D01*
X191800000Y-56550000D02*
X192000000Y-56350000D01*
X190150000Y-57050000D02*
X191325000Y-57050000D01*
X191325000Y-57050000D02*
X192000000Y-56375000D01*
X192000000Y-56375000D02*
X192000000Y-56350000D01*
X183250000Y-95700000D02*
X183250000Y-97400000D01*
X183250000Y-97400000D02*
X182750000Y-97900000D01*
X190250000Y-95700000D02*
X190250000Y-97500000D01*
X190250000Y-97500000D02*
X189850000Y-97900000D01*
D33*
X231575000Y-50825000D02*
X231575000Y-53475000D01*
X232200000Y-50200000D02*
X231575000Y-50825000D01*
X237600000Y-50200000D02*
X232200000Y-50200000D01*
X247307201Y-64232799D02*
X247307201Y-59907201D01*
X246000000Y-65540000D02*
X247307201Y-64232799D01*
X230050000Y-55000000D02*
X231575000Y-56525000D01*
X229750000Y-55000000D02*
X228225000Y-53475000D01*
X230050000Y-55000000D02*
X231575000Y-53475000D01*
X229900000Y-55000000D02*
X230050000Y-55000000D01*
X229750000Y-55000000D02*
X228225000Y-56525000D01*
X229900000Y-55000000D02*
X229750000Y-55000000D01*
X240800000Y-55050000D02*
X240800000Y-53400000D01*
X240800000Y-53400000D02*
X237600000Y-50200000D01*
X247307201Y-59907201D02*
X240800000Y-53400000D01*
D32*
X208000000Y-90500000D02*
X207000000Y-91500000D01*
X208000000Y-89900000D02*
X208000000Y-90500000D01*
X119150000Y-82450000D02*
X120000000Y-81600000D01*
X119150000Y-82800000D02*
X119150000Y-82450000D01*
X118750000Y-66350000D02*
X118800000Y-66400000D01*
X118750000Y-65400000D02*
X118750000Y-66350000D01*
D33*
%TO.N,+VDC*%
X236460000Y-57540000D02*
X236200000Y-57280000D01*
X246000000Y-61642000D02*
X241898000Y-57540000D01*
X246000000Y-63000000D02*
X246000000Y-61642000D01*
X240800000Y-56550000D02*
X240800000Y-57458000D01*
X240800000Y-57458000D02*
X240800000Y-57540000D01*
X240800000Y-57540000D02*
X236460000Y-57540000D01*
X241898000Y-57540000D02*
X240800000Y-57540000D01*
D32*
%TO.N,/PUMP*%
X203770528Y-91551626D02*
X204151527Y-91170627D01*
X197400000Y-95739804D02*
X197400000Y-92700000D01*
X197400000Y-92700000D02*
X198548374Y-91551626D01*
X196104802Y-97035002D02*
X197400000Y-95739804D01*
X195161360Y-97035002D02*
X196104802Y-97035002D01*
X198548374Y-91551626D02*
X203770528Y-91551626D01*
X192700000Y-94573642D02*
X195161360Y-97035002D01*
X192700000Y-93750000D02*
X192700000Y-94573642D01*
X218500000Y-81100000D02*
X217400000Y-80000000D01*
X217400000Y-80000000D02*
X217400000Y-74700000D01*
%TO.N,+5V*%
X128500000Y-79200000D02*
X120300000Y-79200000D01*
X117980999Y-81519001D02*
X117600000Y-81900000D01*
X120300000Y-79200000D02*
X117980999Y-81519001D01*
X117580999Y-66880999D02*
X117200000Y-66500000D01*
X122200000Y-72900000D02*
X122200000Y-71500000D01*
X122200000Y-71500000D02*
X117580999Y-66880999D01*
X238700000Y-62950000D02*
X238700000Y-64650000D01*
X157000000Y-76800000D02*
X157380999Y-76419001D01*
X157380999Y-75619001D02*
X159000000Y-74000000D01*
X157380999Y-76419001D02*
X157380999Y-75619001D01*
X155500000Y-79200000D02*
X156500000Y-79200000D01*
X156500000Y-79200000D02*
X156600000Y-79100000D01*
X160700000Y-74000000D02*
X159000000Y-74000000D01*
X122814988Y-72900000D02*
X122738815Y-72900000D01*
X128500000Y-78585012D02*
X122814988Y-72900000D01*
X122738815Y-72900000D02*
X122200000Y-72900000D01*
X128500000Y-79200000D02*
X128500000Y-78585012D01*
X132602474Y-78907787D02*
X132310262Y-79200000D01*
X133697526Y-78907787D02*
X132602474Y-78907787D01*
X175650000Y-74000000D02*
X160700000Y-74000000D01*
X155500000Y-79200000D02*
X133989738Y-79200000D01*
X133989738Y-79200000D02*
X133935597Y-79145858D01*
X133935597Y-79145858D02*
X133697526Y-78907787D01*
X132310262Y-79200000D02*
X128500000Y-79200000D01*
X184900000Y-66000000D02*
X182700000Y-66000000D01*
X182700000Y-66000000D02*
X181900000Y-65200000D01*
X180900000Y-68000000D02*
X180900000Y-66200000D01*
X180900000Y-66200000D02*
X181900000Y-65200000D01*
X180900000Y-68000000D02*
X180750000Y-68000000D01*
X175650000Y-73100000D02*
X175650000Y-73421800D01*
X175650000Y-73421800D02*
X175650000Y-74000000D01*
X180750000Y-68000000D02*
X175650000Y-73100000D01*
X179000000Y-74526358D02*
X180900000Y-72626358D01*
X180900000Y-72626358D02*
X180900000Y-68000000D01*
X179000000Y-74678200D02*
X179000000Y-74526358D01*
X177250000Y-75900000D02*
X177778200Y-75900000D01*
X177778200Y-75900000D02*
X179000000Y-74678200D01*
X175650000Y-74000000D02*
X175650000Y-75600000D01*
X175650000Y-75600000D02*
X175350000Y-75900000D01*
X192000000Y-57850000D02*
X193700000Y-57850000D01*
X190150000Y-57550000D02*
X191700000Y-57550000D01*
X191700000Y-57550000D02*
X192000000Y-57850000D01*
X190150000Y-58050000D02*
X191800000Y-58050000D01*
X191800000Y-58050000D02*
X192000000Y-57850000D01*
X193700000Y-57850000D02*
X193700000Y-58699996D01*
X193700000Y-58699996D02*
X193800000Y-58799996D01*
D33*
X238700000Y-62950000D02*
X211750000Y-62950000D01*
X211750000Y-62950000D02*
X207980999Y-59180999D01*
X207980999Y-59180999D02*
X207600000Y-58800000D01*
D32*
X117650000Y-81950000D02*
X117600000Y-81900000D01*
X117650000Y-82800000D02*
X117650000Y-81950000D01*
X117200000Y-65450000D02*
X117250000Y-65400000D01*
X117200000Y-66500000D02*
X117200000Y-65450000D01*
%TO.N,/SCL_3V*%
X184100000Y-74000000D02*
X184100000Y-74653200D01*
X184100000Y-74653200D02*
X185250000Y-75803200D01*
X185250000Y-75803200D02*
X185250000Y-83346800D01*
X185250000Y-83346800D02*
X185250000Y-84300000D01*
X183950000Y-72000000D02*
X183950000Y-73850000D01*
X183950000Y-73850000D02*
X184100000Y-74000000D01*
%TO.N,+3V3*%
X190750000Y-92250000D02*
X189800000Y-91300000D01*
X191164999Y-90164999D02*
X191200000Y-90200000D01*
X189800000Y-91300000D02*
X189800000Y-90860198D01*
X190750000Y-95700000D02*
X190750000Y-92250000D01*
X190495199Y-90164999D02*
X191164999Y-90164999D01*
X189800000Y-90860198D02*
X190495199Y-90164999D01*
X204611323Y-90484818D02*
X206702000Y-88394141D01*
X203782118Y-90484818D02*
X204611323Y-90484818D01*
X199351993Y-89350000D02*
X200912068Y-90910075D01*
X206702000Y-87932956D02*
X206702000Y-87394141D01*
X203356861Y-90910075D02*
X203782118Y-90484818D01*
X200912068Y-90910075D02*
X203356861Y-90910075D01*
X206702000Y-88394141D02*
X206702000Y-87932956D01*
X195300000Y-89350000D02*
X199351993Y-89350000D01*
X192700000Y-87250000D02*
X199550996Y-87250000D01*
X240240000Y-84000000D02*
X245150001Y-79089999D01*
X200426640Y-88125644D02*
X204473360Y-88125644D01*
X245150001Y-79089999D02*
X246000000Y-78240000D01*
X204473360Y-88125644D02*
X208599004Y-84000000D01*
X199550996Y-87250000D02*
X200426640Y-88125644D01*
X208599004Y-84000000D02*
X240240000Y-84000000D01*
X192700000Y-87250000D02*
X191746800Y-87250000D01*
X191746800Y-87250000D02*
X190743600Y-86246800D01*
X190743600Y-86246800D02*
X187250000Y-86246800D01*
X192700000Y-90250000D02*
X191746800Y-90250000D01*
X191746800Y-90250000D02*
X191696800Y-90200000D01*
X191696800Y-90200000D02*
X191200000Y-90200000D01*
X159200000Y-58000000D02*
X159200000Y-58939654D01*
X159200000Y-58939654D02*
X164058934Y-63798588D01*
X159200000Y-58000000D02*
X159050000Y-58000000D01*
X159050000Y-58000000D02*
X157350000Y-59700000D01*
X157350000Y-59700000D02*
X156900000Y-59700000D01*
X155800000Y-58600000D02*
X155800000Y-54900000D01*
X156900000Y-59700000D02*
X155800000Y-58600000D01*
X155800000Y-54900000D02*
X162699705Y-48000295D01*
X162699705Y-48000295D02*
X165470000Y-48000295D01*
X181900000Y-74000000D02*
X180616800Y-74000000D01*
X177250000Y-77366800D02*
X177250000Y-78100000D01*
X180616800Y-74000000D02*
X177250000Y-77366800D01*
X162400000Y-70050000D02*
X162400000Y-65457522D01*
X162400000Y-65457522D02*
X164058934Y-63798588D01*
X165000000Y-72800000D02*
X165000000Y-72650000D01*
X165000000Y-72650000D02*
X162400000Y-70050000D01*
X157000000Y-90000000D02*
X157150000Y-90000000D01*
X157150000Y-90000000D02*
X160800000Y-86350000D01*
X160800000Y-86350000D02*
X160800000Y-86300000D01*
X176700000Y-82500000D02*
X177150000Y-82050000D01*
X177150000Y-82050000D02*
X177150000Y-80000000D01*
X164941066Y-80998588D02*
X172298588Y-80998588D01*
X172298588Y-80998588D02*
X173500000Y-82200000D01*
X164346800Y-72800000D02*
X165000000Y-72800000D01*
X157225250Y-75200000D02*
X159625250Y-72800000D01*
X154400000Y-75200000D02*
X157225250Y-75200000D01*
X159625250Y-72800000D02*
X164346800Y-72800000D01*
X150346800Y-75200000D02*
X154400000Y-75200000D01*
X158300000Y-79100000D02*
X154400000Y-75200000D01*
X161769686Y-79100000D02*
X158300000Y-79100000D01*
X164941066Y-80998588D02*
X163668274Y-80998588D01*
X163668274Y-80998588D02*
X161769686Y-79100000D01*
X159700295Y-95500295D02*
X157000000Y-92800000D01*
X157000000Y-92800000D02*
X157000000Y-90000000D01*
X163230000Y-95500295D02*
X159700295Y-95500295D01*
X132714988Y-74100000D02*
X149096800Y-74100000D01*
X121814198Y-64570814D02*
X122170814Y-64214198D01*
X116800000Y-64500000D02*
X116870814Y-64570814D01*
X122829186Y-64214198D02*
X132714988Y-74100000D01*
X122170814Y-64214198D02*
X122829186Y-64214198D01*
X149096800Y-74100000D02*
X149900000Y-74100000D01*
X116870814Y-64570814D02*
X121814198Y-64570814D01*
X149900000Y-74100000D02*
X149900000Y-74753200D01*
X149900000Y-74753200D02*
X150346800Y-75200000D01*
X116800000Y-64500000D02*
X115428389Y-65871611D01*
X116900000Y-64400000D02*
X116800000Y-64500000D01*
X111146800Y-94800000D02*
X120996800Y-94800000D01*
X120996800Y-94800000D02*
X122896800Y-92900000D01*
X122896800Y-92900000D02*
X123700000Y-92900000D01*
X109900000Y-92900000D02*
X109900000Y-93553200D01*
X109900000Y-93553200D02*
X111146800Y-94800000D01*
X116800000Y-72900000D02*
X116800000Y-86150000D01*
X110050000Y-92900000D02*
X109900000Y-92900000D01*
X116800000Y-86150000D02*
X110050000Y-92900000D01*
X116800000Y-72246800D02*
X116800000Y-72900000D01*
X115428389Y-65871611D02*
X115428389Y-70875189D01*
X115428389Y-70875189D02*
X116800000Y-72246800D01*
X116900000Y-52900000D02*
X116900000Y-64400000D01*
X181900000Y-74000000D02*
X181900000Y-72150000D01*
X181900000Y-72150000D02*
X182050000Y-72000000D01*
X184446800Y-71000000D02*
X183653200Y-71000000D01*
X183653200Y-71000000D02*
X182653200Y-72000000D01*
X182653200Y-72000000D02*
X182050000Y-72000000D01*
X186050000Y-70000000D02*
X185446800Y-70000000D01*
X185446800Y-70000000D02*
X184446800Y-71000000D01*
X186050000Y-70000000D02*
X186050000Y-71850000D01*
X186050000Y-71850000D02*
X185900000Y-72000000D01*
X186850000Y-82100000D02*
X186850000Y-82678200D01*
X186850000Y-82678200D02*
X187250000Y-83078200D01*
X187250000Y-83346800D02*
X187250000Y-84300000D01*
X187250000Y-83078200D02*
X187250000Y-83346800D01*
X178900000Y-87850000D02*
X179478200Y-87850000D01*
X179878200Y-88250000D02*
X180346800Y-88250000D01*
X179478200Y-87850000D02*
X179878200Y-88250000D01*
X180346800Y-88250000D02*
X181300000Y-88250000D01*
X177150000Y-80000000D02*
X177175000Y-80000000D01*
X177175000Y-80000000D02*
X185300000Y-88125000D01*
X185300000Y-88125000D02*
X185300000Y-88196800D01*
X177250000Y-78100000D02*
X177250000Y-79900000D01*
X177250000Y-79900000D02*
X177150000Y-80000000D01*
X185300000Y-88196800D02*
X187250000Y-86246800D01*
X183750000Y-89746800D02*
X185300000Y-88196800D01*
X187250000Y-86246800D02*
X187250000Y-84300000D01*
X181300000Y-88250000D02*
X182253200Y-88250000D01*
X183750000Y-94746800D02*
X183750000Y-95700000D01*
X182253200Y-88250000D02*
X183750000Y-89746800D01*
X183750000Y-89746800D02*
X183750000Y-94746800D01*
X184671800Y-98900000D02*
X190325000Y-98900000D01*
X190325000Y-98900000D02*
X191325000Y-97900000D01*
X191325000Y-97900000D02*
X191350000Y-97900000D01*
X184250000Y-97900000D02*
X184250000Y-98478200D01*
X184250000Y-98478200D02*
X184671800Y-98900000D01*
X221700000Y-72200000D02*
X220450000Y-72200000D01*
X220450000Y-72200000D02*
X219500000Y-71250000D01*
X219500000Y-71250000D02*
X219500000Y-71100000D01*
X195300000Y-89375000D02*
X194425000Y-90250000D01*
X194425000Y-90250000D02*
X193653200Y-90250000D01*
X193653200Y-90250000D02*
X192700000Y-90250000D01*
X183750000Y-95700000D02*
X183750000Y-97400000D01*
X183750000Y-97400000D02*
X184250000Y-97900000D01*
X190750000Y-95700000D02*
X190750000Y-97300000D01*
X190750000Y-97300000D02*
X190746800Y-97303200D01*
X190746800Y-97303200D02*
X190746800Y-97321800D01*
X190746800Y-97321800D02*
X191325000Y-97900000D01*
%TO.N,/COM0*%
X190150000Y-60050000D02*
X190853200Y-60050000D01*
X201545406Y-69000000D02*
X202500000Y-69000000D01*
X190853200Y-60050000D02*
X199803200Y-69000000D01*
X199803200Y-69000000D02*
X201545406Y-69000000D01*
%TO.N,/COM1*%
X190150000Y-59550000D02*
X191344183Y-59550000D01*
X198794183Y-67000000D02*
X201545406Y-67000000D01*
X201545406Y-67000000D02*
X202500000Y-67000000D01*
X191344183Y-59550000D02*
X198794183Y-67000000D01*
%TO.N,/COM2*%
X197697092Y-65000000D02*
X201545406Y-65000000D01*
X191747092Y-59050000D02*
X197697092Y-65000000D01*
X190150000Y-59050000D02*
X191747092Y-59050000D01*
X201545406Y-65000000D02*
X202500000Y-65000000D01*
%TO.N,/COM3*%
X190150000Y-58550000D02*
X191950000Y-58550000D01*
X196400000Y-63000000D02*
X202500000Y-63000000D01*
X191950000Y-58550000D02*
X196400000Y-63000000D01*
%TO.N,/SEG0*%
X193329637Y-54050000D02*
X200168914Y-60889277D01*
X190150000Y-54050000D02*
X193329637Y-54050000D01*
X200168914Y-60889277D02*
X202471829Y-60889277D01*
X203866334Y-62283782D02*
X203866334Y-69633666D01*
X203866334Y-69633666D02*
X203174999Y-70325001D01*
X202471829Y-60889277D02*
X203866334Y-62283782D01*
X203174999Y-70325001D02*
X202500000Y-71000000D01*
%TO.N,/SEG1*%
X204221945Y-71278055D02*
X203174999Y-72325001D01*
X203174999Y-72325001D02*
X202500000Y-73000000D01*
X193332546Y-53550000D02*
X200316212Y-60533666D01*
X204221945Y-62136485D02*
X204221945Y-71278055D01*
X190150000Y-53550000D02*
X193332546Y-53550000D01*
X200316212Y-60533666D02*
X202619126Y-60533666D01*
X202619126Y-60533666D02*
X204221945Y-62136485D01*
%TO.N,/SEG2*%
X190150000Y-53050000D02*
X193335455Y-53050000D01*
X193335455Y-53050000D02*
X200463510Y-60178055D01*
X204577556Y-72922444D02*
X203174999Y-74325001D01*
X203174999Y-74325001D02*
X202500000Y-75000000D01*
X200463510Y-60178055D02*
X202766423Y-60178055D01*
X202766423Y-60178055D02*
X204577556Y-61989188D01*
X204577556Y-61989188D02*
X204577556Y-72922444D01*
%TO.N,/SEG3*%
X193338364Y-52550000D02*
X200610808Y-59822444D01*
X203174999Y-76325001D02*
X202500000Y-77000000D01*
X190150000Y-52550000D02*
X193338364Y-52550000D01*
X204933167Y-74566833D02*
X203174999Y-76325001D01*
X202913720Y-59822444D02*
X204933167Y-61841891D01*
X200610808Y-59822444D02*
X202913720Y-59822444D01*
X204933167Y-61841891D02*
X204933167Y-74566833D01*
%TO.N,/SEG4*%
X203061017Y-59466833D02*
X205288778Y-61694594D01*
X205288778Y-61694594D02*
X205288778Y-76211222D01*
X193341273Y-52050000D02*
X200758106Y-59466833D01*
X190150000Y-52050000D02*
X193341273Y-52050000D01*
X200758106Y-59466833D02*
X203061017Y-59466833D01*
X205288778Y-76211222D02*
X203174999Y-78325001D01*
X203174999Y-78325001D02*
X202500000Y-79000000D01*
%TO.N,/SEG5*%
X200905404Y-59111222D02*
X203208314Y-59111222D01*
X205644389Y-77855611D02*
X203174999Y-80325001D01*
X190150000Y-51550000D02*
X193344182Y-51550000D01*
X203208314Y-59111222D02*
X205644389Y-61547297D01*
X193344182Y-51550000D02*
X200905404Y-59111222D01*
X205644389Y-61547297D02*
X205644389Y-77855611D01*
X203174999Y-80325001D02*
X202500000Y-81000000D01*
%TO.N,/SEG6*%
X206000000Y-61400000D02*
X206000000Y-79500000D01*
X190150000Y-51050000D02*
X193347091Y-51050000D01*
X203355611Y-58755611D02*
X206000000Y-61400000D01*
X203174999Y-82325001D02*
X202500000Y-83000000D01*
X201052702Y-58755611D02*
X203355611Y-58755611D01*
X193347091Y-51050000D02*
X201052702Y-58755611D01*
X206000000Y-79500000D02*
X203174999Y-82325001D01*
%TO.N,/SEG7*%
X183353200Y-51050000D02*
X184403200Y-50000000D01*
X182650000Y-51050000D02*
X183353200Y-51050000D01*
X184403200Y-50000000D02*
X192800000Y-50000000D01*
X192800000Y-50000000D02*
X201200000Y-58400000D01*
X201200000Y-58400000D02*
X203600000Y-58400000D01*
X203600000Y-58400000D02*
X206400000Y-61200000D01*
X206400000Y-81100000D02*
X202500000Y-85000000D01*
X206400000Y-61200000D02*
X206400000Y-81100000D01*
%TO.N,Net-(D1-Pad2)*%
X238700000Y-70400000D02*
X238700000Y-67950000D01*
X234000000Y-69300000D02*
X234538815Y-69300000D01*
X235638815Y-70400000D02*
X238700000Y-70400000D01*
X234538815Y-69300000D02*
X235638815Y-70400000D01*
X236800000Y-72300000D02*
X238700000Y-70400000D01*
X234000000Y-72300000D02*
X236800000Y-72300000D01*
%TO.N,/CI*%
X131985012Y-80100000D02*
X123938815Y-80100000D01*
X133529186Y-79314198D02*
X132770814Y-79314198D01*
X134008577Y-79793589D02*
X133529186Y-79314198D01*
X157717839Y-79793589D02*
X134008577Y-79793589D01*
X177837073Y-90912821D02*
X176417840Y-89493588D01*
X176417840Y-89493588D02*
X167417838Y-89493588D01*
X180399503Y-90750000D02*
X180236682Y-90912821D01*
X181300000Y-90750000D02*
X180399503Y-90750000D01*
X167417838Y-89493588D02*
X157717839Y-79793589D01*
X132770814Y-79314198D02*
X131985012Y-80100000D01*
X180236682Y-90912821D02*
X177837073Y-90912821D01*
X123938815Y-80100000D02*
X123400000Y-80100000D01*
%TO.N,/DI*%
X177524751Y-91750000D02*
X176081161Y-90306410D01*
X122948390Y-80800000D02*
X122638772Y-80490382D01*
X133614988Y-80800000D02*
X133529186Y-80885802D01*
X132785012Y-80800000D02*
X122948390Y-80800000D01*
X133529186Y-80885802D02*
X132870814Y-80885802D01*
X122638772Y-80490382D02*
X122257773Y-80109383D01*
X157574750Y-80800000D02*
X133614988Y-80800000D01*
X132870814Y-80885802D02*
X132785012Y-80800000D01*
X167081161Y-90306410D02*
X157574750Y-80800000D01*
X176081161Y-90306410D02*
X167081161Y-90306410D01*
X181300000Y-91750000D02*
X177524751Y-91750000D01*
%TO.N,Net-(D7-Pad1)*%
X168600000Y-96900000D02*
X165300000Y-96900000D01*
X165300000Y-96900000D02*
X164500000Y-97700000D01*
%TO.N,Net-(D6-Pad1)*%
X164200000Y-50200000D02*
X166500000Y-52500000D01*
X166500000Y-52500000D02*
X166500000Y-55200000D01*
%TO.N,Net-(D5-Pad1)*%
X164500000Y-83500000D02*
X166200000Y-85200000D01*
X166200000Y-85200000D02*
X167200000Y-85200000D01*
%TO.N,Net-(D2-Pad1)*%
X167800000Y-68100000D02*
X166300000Y-68100000D01*
X166300000Y-68100000D02*
X164500000Y-66300000D01*
%TO.N,/nReset*%
X191711185Y-92250000D02*
X190800000Y-91338815D01*
X190800000Y-91338815D02*
X190800000Y-90800000D01*
X192700000Y-92250000D02*
X191711185Y-92250000D01*
X226780000Y-73470000D02*
X227487106Y-73470000D01*
X227487106Y-73470000D02*
X228000000Y-72957106D01*
X228000000Y-72957106D02*
X228000000Y-70638815D01*
X228000000Y-70638815D02*
X228000000Y-70100000D01*
X219500000Y-68900000D02*
X226800000Y-68900000D01*
X226800000Y-68900000D02*
X228000000Y-70100000D01*
X219300000Y-67500000D02*
X219300000Y-68700000D01*
X219300000Y-68700000D02*
X219500000Y-68900000D01*
%TO.N,/SWDCLK*%
X194764756Y-88638444D02*
X199215188Y-88638444D01*
X193653200Y-89750000D02*
X194764756Y-88638444D01*
X192700000Y-89750000D02*
X193653200Y-89750000D01*
X199215188Y-88638444D02*
X200801018Y-90224274D01*
X200801018Y-90224274D02*
X202338988Y-90224274D01*
X202338988Y-90224274D02*
X202877803Y-90224274D01*
%TO.N,/SWDIO*%
X192700000Y-89250000D02*
X193550000Y-89250000D01*
X193550000Y-89250000D02*
X194567967Y-88232033D01*
X203820366Y-89418017D02*
X204201365Y-89799016D01*
X194567967Y-88232033D02*
X199383528Y-88232033D01*
X200569512Y-89418017D02*
X203820366Y-89418017D01*
X199383528Y-88232033D02*
X200569512Y-89418017D01*
%TO.N,/D+*%
X233456051Y-70164194D02*
X234456047Y-71164190D01*
X234456047Y-71164190D02*
X234515799Y-71164190D01*
X189941250Y-93041250D02*
X189941250Y-93580065D01*
X189941250Y-93580065D02*
X189750000Y-93771315D01*
X189750000Y-93771315D02*
X189750000Y-94746800D01*
X189750000Y-94746800D02*
X189750000Y-95700000D01*
%TO.N,/D-*%
X189258750Y-92358750D02*
X189258750Y-92897565D01*
X189258750Y-92897565D02*
X189250000Y-92906315D01*
X189250000Y-92906315D02*
X189250000Y-94746800D01*
X189250000Y-94746800D02*
X189250000Y-95700000D01*
X229618211Y-70018211D02*
X229618211Y-69743945D01*
X230400000Y-70800000D02*
X229618211Y-70018211D01*
%TO.N,/SCL_5V*%
X188600000Y-66700000D02*
X188980999Y-66319001D01*
X188980999Y-56027859D02*
X189458858Y-55550000D01*
X188980999Y-66319001D02*
X188980999Y-56027859D01*
X189458858Y-55550000D02*
X190150000Y-55550000D01*
X183903200Y-68000000D02*
X184300000Y-68000000D01*
X184300000Y-68000000D02*
X184700000Y-67600000D01*
X183000000Y-70000000D02*
X183000000Y-68100000D01*
X183000000Y-68100000D02*
X183100000Y-68000000D01*
X183100000Y-68000000D02*
X183903200Y-68000000D01*
X189458857Y-55550000D02*
X190150000Y-55550000D01*
%TO.N,/SDA_3V*%
X187950000Y-70000000D02*
X187950000Y-71850000D01*
X187950000Y-71850000D02*
X188100000Y-72000000D01*
X185750000Y-84300000D02*
X185750000Y-74200000D01*
X187950000Y-72000000D02*
X188100000Y-72000000D01*
X185750000Y-74200000D02*
X187950000Y-72000000D01*
%TO.N,/SDA_5V*%
X187000000Y-68000000D02*
X187000000Y-66100000D01*
X187000000Y-66100000D02*
X187100000Y-66000000D01*
X187100000Y-57334107D02*
X189384107Y-55050000D01*
X189384107Y-55050000D02*
X189446800Y-55050000D01*
X187100000Y-66000000D02*
X187100000Y-57334107D01*
X189446800Y-55050000D02*
X190150000Y-55050000D01*
%TO.N,/FAR_LEFT_LED*%
X169800000Y-92300000D02*
X168600000Y-93500000D01*
X168600000Y-93500000D02*
X168600000Y-94700000D01*
X175000000Y-92300000D02*
X169800000Y-92300000D01*
X175800000Y-93100000D02*
X175000000Y-92300000D01*
X175800000Y-93700000D02*
X175800000Y-93100000D01*
X177500000Y-95400000D02*
X175800000Y-93700000D01*
X179050000Y-95400000D02*
X177500000Y-95400000D01*
X181300000Y-93750000D02*
X180700000Y-93750000D01*
X180700000Y-93750000D02*
X179050000Y-95400000D01*
X168600000Y-94700000D02*
X168900000Y-95000000D01*
%TO.N,/FAR_RIGHT_LED*%
X177900000Y-69600000D02*
X168700000Y-60400000D01*
X168700000Y-60400000D02*
X168700000Y-55200000D01*
X184750000Y-84300000D02*
X184750000Y-79250000D01*
X184750000Y-79250000D02*
X181200000Y-75700000D01*
%TO.N,/LEFT_LED*%
X180346800Y-89750000D02*
X181300000Y-89750000D01*
X180250001Y-89750000D02*
X180346800Y-89750000D01*
X178326358Y-90100000D02*
X179900001Y-90100000D01*
X173426358Y-85200000D02*
X178326358Y-90100000D01*
X179900001Y-90100000D02*
X180250001Y-89750000D01*
X169400000Y-85200000D02*
X173426358Y-85200000D01*
%TO.N,/RIGHT_LED*%
X179864721Y-76698592D02*
X179483722Y-76317593D01*
X183250000Y-80083871D02*
X179864721Y-76698592D01*
X183250000Y-84300000D02*
X183250000Y-80083871D01*
X173300000Y-71400000D02*
X170000000Y-68100000D01*
X175400000Y-71400000D02*
X173300000Y-71400000D01*
%TO.N,/TEMP*%
X159200000Y-90000000D02*
X165050499Y-90000000D01*
X165050499Y-90000000D02*
X166650499Y-91600000D01*
X166650499Y-91600000D02*
X175600000Y-91600000D01*
X175600000Y-91600000D02*
X178121620Y-94121620D01*
X178121620Y-94121620D02*
X178217884Y-94121620D01*
X178217884Y-94121620D02*
X178756699Y-94121620D01*
X185400000Y-94100000D02*
X184750000Y-94750000D01*
X184750000Y-94750000D02*
X184750000Y-95700000D01*
X159200000Y-89346800D02*
X159660990Y-88885810D01*
X159660990Y-88885810D02*
X159800000Y-88885810D01*
X159200000Y-90000000D02*
X159200000Y-89346800D01*
%TO.N,/UNITS*%
X178035810Y-93435810D02*
X179055783Y-93435810D01*
X179055783Y-93435810D02*
X179594598Y-93435810D01*
X175793589Y-91193589D02*
X178035810Y-93435810D01*
X166818839Y-91193589D02*
X175793589Y-91193589D01*
X160470814Y-85614198D02*
X161239448Y-85614198D01*
X157885012Y-88200000D02*
X160470814Y-85614198D01*
X135700000Y-88200000D02*
X157885012Y-88200000D01*
X131000000Y-92900000D02*
X135700000Y-88200000D01*
X161239448Y-85614198D02*
X166818839Y-91193589D01*
X184500000Y-93500000D02*
X184500000Y-94038815D01*
X184500000Y-94038815D02*
X184250000Y-94288815D01*
X184250000Y-94288815D02*
X184250000Y-94746800D01*
X184250000Y-94746800D02*
X184250000Y-95700000D01*
X127000000Y-92200000D02*
X127000000Y-92900000D01*
X127000000Y-92900000D02*
X131000000Y-92900000D01*
X125900000Y-92900000D02*
X127000000Y-92900000D01*
%TO.N,/FROZEN*%
X179027128Y-92293589D02*
X179483539Y-92750000D01*
X157810261Y-87700000D02*
X160302474Y-85207787D01*
X179483539Y-92750000D02*
X180346800Y-92750000D01*
X116300000Y-92900000D02*
X121500000Y-87700000D01*
X177493589Y-92293589D02*
X179027128Y-92293589D01*
X166987179Y-90787178D02*
X175987178Y-90787178D01*
X161407788Y-85207787D02*
X166987179Y-90787178D01*
X121500000Y-87700000D02*
X157810261Y-87700000D01*
X180346800Y-92750000D02*
X181300000Y-92750000D01*
X175987178Y-90787178D02*
X177493589Y-92293589D01*
X112100000Y-92900000D02*
X116300000Y-92900000D01*
X160302474Y-85207787D02*
X161407788Y-85207787D01*
X112100000Y-92900000D02*
X112100000Y-92200000D01*
X112100000Y-92200000D02*
X112900000Y-91400000D01*
%TO.N,/MORE*%
X136000000Y-78400000D02*
X122880999Y-65280999D01*
X167587178Y-89087178D02*
X156900000Y-78400000D01*
X180068341Y-90506411D02*
X178106411Y-90506411D01*
X176687178Y-89087178D02*
X167587178Y-89087178D01*
X178106411Y-90506411D02*
X176687178Y-89087178D01*
X122880999Y-65280999D02*
X122500000Y-64900000D01*
X180324752Y-90250000D02*
X180068341Y-90506411D01*
X181300000Y-90250000D02*
X180324752Y-90250000D01*
X156900000Y-78400000D02*
X136000000Y-78400000D01*
X122500000Y-62800000D02*
X121961185Y-62800000D01*
X121961185Y-62800000D02*
X119100000Y-59938815D01*
X119100000Y-59938815D02*
X119100000Y-53553200D01*
X119100000Y-53553200D02*
X119100000Y-52900000D01*
X119100000Y-52900000D02*
X119100000Y-51800000D01*
X119100000Y-51800000D02*
X118000000Y-50700000D01*
%TO.N,/START*%
X176249500Y-89899999D02*
X167249499Y-89899999D01*
X177668733Y-91319232D02*
X176249500Y-89899999D01*
X180474254Y-91250000D02*
X180405020Y-91319232D01*
X157730499Y-80380999D02*
X133480999Y-80380999D01*
X133480999Y-80380999D02*
X133100000Y-80000000D01*
X180405020Y-91319232D02*
X177668733Y-91319232D01*
X167249499Y-89899999D02*
X157730499Y-80380999D01*
X181300000Y-91250000D02*
X180474254Y-91250000D01*
X119000000Y-74700000D02*
X122700000Y-78400000D01*
X122700000Y-78400000D02*
X127300000Y-78400000D01*
X119000000Y-72900000D02*
X119000000Y-74700000D01*
X116600000Y-70800000D02*
X118700000Y-72900000D01*
X118700000Y-72900000D02*
X119000000Y-72900000D01*
X119000000Y-70800000D02*
X119000000Y-72900000D01*
%TO.N,/DEC*%
X170731660Y-78406411D02*
X160807803Y-78406411D01*
X181300000Y-87250000D02*
X179575249Y-87250000D01*
X158668080Y-76266688D02*
X158287081Y-75885689D01*
X179575249Y-87250000D02*
X170731660Y-78406411D01*
X160807803Y-78406411D02*
X158668080Y-76266688D01*
X152100000Y-74100000D02*
X152100000Y-72500000D01*
X152100000Y-72500000D02*
X151000000Y-71400000D01*
%TO.N,/TIME*%
X183750000Y-79219882D02*
X180520253Y-75990135D01*
X183750000Y-84300000D02*
X183750000Y-79219882D01*
X180520253Y-75990135D02*
X180139254Y-75609136D01*
X175019001Y-70619001D02*
X160100000Y-55700000D01*
X160100000Y-55700000D02*
X157600000Y-55700000D01*
X176500000Y-71000000D02*
X176119001Y-70619001D01*
X176119001Y-70619001D02*
X175019001Y-70619001D01*
X157600000Y-55700000D02*
X157000000Y-56300000D01*
X157000000Y-56300000D02*
X157000000Y-58000000D01*
%TO.N,/INC*%
X171200000Y-78000000D02*
X169500000Y-78000000D01*
X169500000Y-78000000D02*
X166400000Y-74900000D01*
X179904801Y-86704801D02*
X171200000Y-78000000D01*
X181254801Y-86704801D02*
X179904801Y-86704801D01*
X181300000Y-86750000D02*
X181254801Y-86704801D01*
X166400000Y-74900000D02*
X165100000Y-74900000D01*
X165100000Y-74900000D02*
X165000000Y-75000000D01*
%TO.N,/TOASTER_5V*%
X235886539Y-59650000D02*
X235650000Y-59650000D01*
X235650000Y-59650000D02*
X235200000Y-60100000D01*
X235886539Y-59650000D02*
X238700000Y-59650000D01*
X234896800Y-52720000D02*
X236200000Y-52720000D01*
X234280866Y-58044327D02*
X234280866Y-53335934D01*
X234280866Y-53335934D02*
X234896800Y-52720000D01*
X235886539Y-59650000D02*
X234280866Y-58044327D01*
%TO.N,Net-(R23-Pad2)*%
X188750000Y-83346800D02*
X188750000Y-84300000D01*
X189196800Y-82900000D02*
X188750000Y-83346800D01*
X197700000Y-82900000D02*
X189196800Y-82900000D01*
X201300000Y-86500000D02*
X197700000Y-82900000D01*
X203800000Y-86500000D02*
X201300000Y-86500000D01*
X204300000Y-86000000D02*
X203800000Y-86500000D01*
X240600000Y-62900000D02*
X240600000Y-64800000D01*
X239995199Y-65404801D02*
X237856159Y-65404801D01*
X240600000Y-64800000D02*
X239995199Y-65404801D01*
X237856159Y-65404801D02*
X236600000Y-64148642D01*
X204400000Y-86000000D02*
X204300000Y-86000000D01*
X210200000Y-80200000D02*
X204400000Y-86000000D01*
X210200000Y-75000000D02*
X210200000Y-80200000D01*
X221051358Y-64148642D02*
X210200000Y-75000000D01*
X236600000Y-64148642D02*
X221051358Y-64148642D01*
%TO.N,Net-(D12-Pad2)*%
X239000000Y-77650000D02*
X238245199Y-78404801D01*
X239000000Y-77500000D02*
X239000000Y-77650000D01*
X238245199Y-78404801D02*
X238245199Y-80154801D01*
X238245199Y-80154801D02*
X237600000Y-80800000D01*
%TO.N,Net-(D11-Pad2)*%
X235100000Y-80450000D02*
X235100000Y-81300000D01*
X236400000Y-79000000D02*
X236400000Y-79150000D01*
X236400000Y-79150000D02*
X235100000Y-80450000D01*
%TO.N,Net-(D10-Pad2)*%
X233900000Y-79000000D02*
X232600000Y-80300000D01*
%TO.N,Net-(D9-Pad2)*%
X231400000Y-77600000D02*
X232300000Y-77600000D01*
X232300000Y-77600000D02*
X232500000Y-77800000D01*
%TO.N,Net-(C10-Pad1)*%
X194750000Y-95300000D02*
X194750000Y-93800000D01*
X194750000Y-93800000D02*
X194750000Y-92300000D01*
X192700000Y-91750000D02*
X194200000Y-91750000D01*
X194200000Y-91750000D02*
X194750000Y-92300000D01*
%TD*%
M02*
